0
SECTION
2
ENTITIES
0
POLYLINE
0
VERTEX
10
63.0000
20
210.0000
0
VERTEX
10
3.0651
20
223.3951
0
SEQEND
0
POLYLINE
0
VERTEX
10
3.0651
20
223.3951
0
VERTEX
10
51.3393
20
185.2910
0
SEQEND
0
POLYLINE
0
VERTEX
10
51.3393
20
185.2910
0
VERTEX
10
24.0914
20
240.1210
0
SEQEND
0
POLYLINE
0
VERTEX
10
24.0914
20
240.1210
0
VERTEX
10
25.0634
20
178.7250
0
SEQEND
0
POLYLINE
0
VERTEX
10
25.0634
20
178.7250
0
VERTEX
10
50.4570
20
234.2011
0
SEQEND
0
POLYLINE
0
VERTEX
10
50.4570
20
234.2011
0
VERTEX
10
3.7343
20
194.8531
0
SEQEND
0
POLYLINE
0
VERTEX
10
3.7343
20
194.8531
0
VERTEX
10
62.5898
20
209.9881
0
SEQEND
0
POLYLINE
0
VERTEX
10
62.5898
20
209.9881
0
VERTEX
10
3.0801
20
221.3105
0
SEQEND
0
POLYLINE
0
VERTEX
10
3.0801
20
221.3105
0
VERTEX
10
51.6834
20
185.3863
0
SEQEND
0
POLYLINE
0
VERTEX
10
51.6834
20
185.3863
0
VERTEX
10
23.2932
20
238.2085
0
SEQEND
0
POLYLINE
0
VERTEX
10
23.2932
20
238.2085
0
VERTEX
10
26.1384
20
178.3437
0
SEQEND
0
POLYLINE
0
VERTEX
10
26.1384
20
178.3437
0
VERTEX
10
49.0980
20
233.0530
0
SEQEND
0
POLYLINE
0
VERTEX
10
49.0980
20
233.0530
0
VERTEX
10
5.0435
20
193.4934
0
SEQEND
0
POLYLINE
0
VERTEX
10
5.0435
20
193.4934
0
VERTEX
10
61.3797
20
209.9059
0
SEQEND
0
POLYLINE
0
VERTEX
10
61.3797
20
209.9059
0
VERTEX
10
3.7863
20
218.9692
0
SEQEND
0
POLYLINE
0
VERTEX
10
3.7863
20
218.9692
0
VERTEX
10
51.4543
20
186.0169
0
SEQEND
0
POLYLINE
0
VERTEX
10
51.4543
20
186.0169
0
VERTEX
10
22.7282
20
235.5907
0
SEQEND
0
POLYLINE
0
VERTEX
10
22.7282
20
235.5907
0
VERTEX
10
27.2398
20
178.7090
0
SEQEND
0
POLYLINE
0
VERTEX
10
27.2398
20
178.7090
0
VERTEX
10
47.3461
20
231.2619
0
SEQEND
0
POLYLINE
0
VERTEX
10
47.3461
20
231.2619
0
VERTEX
10
6.9143
20
192.5628
0
SEQEND
0
POLYLINE
0
VERTEX
10
6.9143
20
192.5628
0
VERTEX
10
59.4300
20
209.6890
0
SEQEND
0
POLYLINE
0
VERTEX
10
59.4300
20
209.6890
0
VERTEX
10
5.1522
20
216.4584
0
SEQEND
0
POLYLINE
0
VERTEX
10
5.1522
20
216.4584
0
VERTEX
10
50.6475
20
187.0892
0
SEQEND
0
POLYLINE
0
VERTEX
10
50.6475
20
187.0892
0
VERTEX
10
22.4390
20
232.3569
0
SEQEND
0
POLYLINE
0
VERTEX
10
22.4390
20
232.3569
0
VERTEX
10
28.2916
20
179.7552
0
SEQEND
0
POLYLINE
0
VERTEX
10
28.2916
20
179.7552
0
VERTEX
10
45.3005
20
228.8608
0
SEQEND
0
POLYLINE
0
VERTEX
10
45.3005
20
228.8608
0
VERTEX
10
9.2398
20
192.0730
0
SEQEND
0
POLYLINE
0
VERTEX
10
9.2398
20
192.0730
0
VERTEX
10
56.8377
20
209.2843
0
SEQEND
0
POLYLINE
0
VERTEX
10
56.8377
20
209.2843
0
VERTEX
10
7.1091
20
213.8702
0
SEQEND
0
POLYLINE
0
VERTEX
10
7.1091
20
213.8702
0
VERTEX
10
49.2903
20
188.4898
0
SEQEND
0
POLYLINE
0
VERTEX
10
49.2903
20
188.4898
0
VERTEX
10
22.4475
20
228.6266
0
SEQEND
0
POLYLINE
0
VERTEX
10
22.4475
20
228.6266
0
VERTEX
10
29.2237
20
181.3813
0
SEQEND
0
POLYLINE
0
VERTEX
10
29.2237
20
181.3813
0
VERTEX
10
43.0696
20
225.9171
0
SEQEND
0
POLYLINE
0
VERTEX
10
43.0696
20
225.9171
0
VERTEX
10
11.8910
20
192.0078
0
SEQEND
0
POLYLINE
0
VERTEX
10
11.8910
20
192.0078
0
VERTEX
10
53.7306
20
208.6547
0
SEQEND
0
POLYLINE
0
VERTEX
10
53.7306
20
208.6547
0
VERTEX
10
9.5537
20
211.2945
0
SEQEND
0
POLYLINE
0
VERTEX
10
9.5537
20
211.2945
0
VERTEX
10
47.4417
20
190.0935
0
SEQEND
0
POLYLINE
0
VERTEX
10
47.4417
20
190.0935
0
VERTEX
10
22.7523
20
224.5430
0
SEQEND
0
POLYLINE
0
VERTEX
10
22.7523
20
224.5430
0
VERTEX
10
29.9782
20
183.4552
0
SEQEND
0
POLYLINE
0
VERTEX
10
29.9782
20
183.4552
0
VERTEX
10
40.7635
20
222.5307
0
SEQEND
0
POLYLINE
0
VERTEX
10
40.7635
20
222.5307
0
VERTEX
10
14.7246
20
192.3230
0
SEQEND
0
POLYLINE
0
VERTEX
10
14.7246
20
192.3230
0
VERTEX
10
50.2606
20
207.7827
0
SEQEND
0
POLYLINE
0
VERTEX
10
50.2606
20
207.7827
0
VERTEX
10
12.3538
20
208.8133
0
SEQEND
0
POLYLINE
0
VERTEX
10
12.3538
20
208.8133
0
VERTEX
10
45.1898
20
191.7705
0
SEQEND
0
POLYLINE
0
VERTEX
10
45.1898
20
191.7705
0
VERTEX
10
23.3273
20
220.2647
0
SEQEND
0
POLYLINE
0
VERTEX
10
23.3273
20
220.2647
0
VERTEX
10
30.5129
20
185.8219
0
SEQEND
0
POLYLINE
0
VERTEX
10
30.5129
20
185.8219
0
VERTEX
10
38.4869
20
218.8283
0
SEQEND
0
POLYLINE
0
VERTEX
10
38.4869
20
218.8283
0
VERTEX
10
17.5917
20
192.9478
0
SEQEND
0
POLYLINE
0
VERTEX
10
17.5917
20
192.9478
0
VERTEX
10
46.5949
20
206.6722
0
SEQEND
0
POLYLINE
0
VERTEX
10
46.5949
20
206.6722
0
VERTEX
10
15.3551
20
206.4953
0
SEQEND
0
POLYLINE
0
VERTEX
10
15.3551
20
206.4953
0
VERTEX
10
42.6481
20
193.3949
0
SEQEND
0
POLYLINE
0
VERTEX
10
42.6481
20
193.3949
0
VERTEX
10
24.1224
20
215.9564
0
SEQEND
0
POLYLINE
0
VERTEX
10
24.1224
20
215.9564
0
VERTEX
10
30.8052
20
188.3113
0
SEQEND
0
POLYLINE
0
VERTEX
10
30.8052
20
188.3113
0
VERTEX
10
36.3329
20
214.9575
0
SEQEND
0
POLYLINE
0
VERTEX
10
36.3329
20
214.9575
0
VERTEX
10
20.3462
20
193.7885
0
SEQEND
0
POLYLINE
0
VERTEX
10
20.3462
20
193.7885
0
VERTEX
10
42.9070
20
205.3492
0
SEQEND
0
POLYLINE
0
VERTEX
10
42.9070
20
205.3492
0
VERTEX
10
18.3893
20
204.3911
0
SEQEND
0
POLYLINE
0
VERTEX
10
18.3893
20
204.3911
0
VERTEX
10
39.9492
20
194.8517
0
SEQEND
0
POLYLINE
0
VERTEX
10
39.9492
20
194.8517
0
VERTEX
10
25.0659
20
211.7802
0
SEQEND
0
POLYLINE
0
VERTEX
10
25.0659
20
211.7802
0
VERTEX
10
30.8531
20
190.7478
0
SEQEND
0
POLYLINE
0
VERTEX
10
30.8531
20
190.7478
0
VERTEX
10
34.3772
20
211.0787
0
SEQEND
0
POLYLINE
0
VERTEX
10
34.3772
20
211.0787
0
VERTEX
10
22.8529
20
194.7328
0
SEQEND
0
POLYLINE
0
VERTEX
10
22.8529
20
194.7328
0
VERTEX
10
39.3672
20
203.8608
0
SEQEND
0
POLYLINE
0
VERTEX
10
39.3672
20
203.8608
0
VERTEX
10
21.2833
20
202.5310
0
SEQEND
0
POLYLINE
0
VERTEX
10
21.2833
20
202.5310
0
VERTEX
10
37.2381
20
196.0433
0
SEQEND
0
POLYLINE
0
VERTEX
10
37.2381
20
196.0433
0
VERTEX
10
26.0682
20
207.8863
0
SEQEND
0
POLYLINE
0
VERTEX
10
26.0682
20
207.8863
0
VERTEX
10
30.6760
20
192.9601
0
SEQEND
0
POLYLINE
0
VERTEX
10
30.6760
20
192.9601
0
VERTEX
10
32.6746
20
207.3565
0
SEQEND
0
POLYLINE
0
VERTEX
10
32.6746
20
207.3565
0
VERTEX
10
24.9951
20
195.6565
0
SEQEND
0
POLYLINE
0
VERTEX
10
24.9951
20
195.6565
0
VERTEX
10
36.1329
20
202.2722
0
SEQEND
0
POLYLINE
0
VERTEX
10
36.1329
20
202.2722
0
VERTEX
10
23.8691
20
200.9229
0
SEQEND
0
POLYLINE
0
VERTEX
10
23.8691
20
200.9229
0
VERTEX
10
34.6636
20
196.8944
0
SEQEND
0
POLYLINE
0
VERTEX
10
34.6636
20
196.8944
0
VERTEX
10
27.0271
20
204.4055
0
SEQEND
0
POLYLINE
0
VERTEX
10
27.0271
20
204.4055
0
VERTEX
10
30.3128
20
194.7902
0
SEQEND
0
POLYLINE
0
VERTEX
10
30.3128
20
194.7902
0
VERTEX
10
31.2559
20
203.9504
0
SEQEND
0
POLYLINE
0
VERTEX
10
31.2559
20
203.9504
0
VERTEX
10
26.6805
20
196.4309
0
SEQEND
0
POLYLINE
0
VERTEX
10
26.6805
20
196.4309
0
VERTEX
10
33.3408
20
200.6629
0
SEQEND
0
POLYLINE
0
VERTEX
10
33.3408
20
200.6629
0
VERTEX
10
25.9927
20
199.5531
0
SEQEND
0
POLYLINE
0
VERTEX
10
25.9927
20
199.5531
0
VERTEX
10
32.3704
20
197.3563
0
SEQEND
0
POLYLINE
0
VERTEX
10
32.3704
20
197.3563
0
VERTEX
10
27.8343
20
201.4421
0
SEQEND
0
POLYLINE
0
VERTEX
10
27.8343
20
201.4421
0
VERTEX
10
29.8191
20
196.1023
0
SEQEND
0
POLYLINE
0
VERTEX
10
29.8191
20
196.1023
0
VERTEX
10
30.1276
20
201.0060
0
SEQEND
0
POLYLINE
0
VERTEX
10
30.1276
20
201.0060
0
VERTEX
10
27.8455
20
196.9301
0
SEQEND
0
POLYLINE
0
VERTEX
10
27.8455
20
196.9301
0
VERTEX
10
31.0993
20
199.1212
0
SEQEND
0
POLYLINE
0
VERTEX
10
31.0993
20
199.1212
0
VERTEX
10
27.5229
20
198.3882
0
SEQEND
0
POLYLINE
0
VERTEX
10
27.5229
20
198.3882
0
VERTEX
10
30.4897
20
197.4078
0
SEQEND
0
POLYLINE
0
VERTEX
10
30.4897
20
197.4078
0
VERTEX
10
28.3820
20
199.0689
0
SEQEND
0
POLYLINE
0
VERTEX
10
28.3820
20
199.0689
0
VERTEX
10
29.2628
20
196.7902
0
SEQEND
0
POLYLINE
0
VERTEX
10
29.2628
20
196.7902
0
VERTEX
10
29.2721
20
198.6463
0
SEQEND
0
POLYLINE
0
VERTEX
10
29.2721
20
198.6463
0
VERTEX
10
28.4579
20
197.0392
0
SEQEND
0
POLYLINE
0
VERTEX
10
28.4579
20
197.0392
0
VERTEX
10
29.4832
20
197.7382
0
SEQEND
0
POLYLINE
0
VERTEX
10
29.4832
20
197.7382
0
VERTEX
10
28.3583
20
197.3780
0
SEQEND
0
POLYLINE
0
VERTEX
10
28.3583
20
197.3780
0
VERTEX
10
29.1322
20
197.0556
0
SEQEND
0
POLYLINE
0
VERTEX
10
29.1322
20
197.0556
0
VERTEX
10
28.5702
20
197.3245
0
SEQEND
0
POLYLINE
0
VERTEX
10
28.5702
20
197.3245
0
VERTEX
10
28.7189
20
196.7829
0
SEQEND
0
POLYLINE
0
VERTEX
10
28.7189
20
196.7829
0
VERTEX
10
28.6511
20
196.9649
0
SEQEND
0
POLYLINE
0
VERTEX
10
28.6511
20
196.9649
0
VERTEX
10
28.5176
20
196.6619
0
SEQEND
0
POLYLINE
0
VERTEX
10
28.5176
20
196.6619
0
VERTEX
10
28.5302
20
196.6012
0
SEQEND
0
POLYLINE
0
VERTEX
10
28.5302
20
196.6012
0
VERTEX
10
28.4338
20
196.4602
0
SEQEND
0
POLYLINE
0
VERTEX
10
28.4338
20
196.4602
0
VERTEX
10
28.3805
20
196.3327
0
SEQEND
0
POLYLINE
0
VERTEX
10
28.3805
20
196.3327
0
VERTEX
10
28.3140
20
196.2115
0
SEQEND
0
POLYLINE
0
VERTEX
10
28.3140
20
196.2115
0
VERTEX
10
28.2639
20
196.0482
0
SEQEND
0
POLYLINE
0
VERTEX
10
28.2639
20
196.0482
0
VERTEX
10
28.2086
20
196.0201
0
SEQEND
0
POLYLINE
0
VERTEX
10
28.2086
20
196.0201
0
VERTEX
10
28.0549
20
195.7269
0
SEQEND
0
POLYLINE
0
VERTEX
10
28.0549
20
195.7269
0
VERTEX
10
28.2395
20
195.7873
0
SEQEND
0
POLYLINE
0
VERTEX
10
28.2395
20
195.7873
0
VERTEX
10
27.7234
20
195.5660
0
SEQEND
0
POLYLINE
0
VERTEX
10
27.7234
20
195.5660
0
VERTEX
10
28.2840
20
195.2942
0
SEQEND
0
POLYLINE
0
VERTEX
10
28.2840
20
195.2942
0
VERTEX
10
27.5494
20
195.6983
0
SEQEND
0
POLYLINE
0
VERTEX
10
27.5494
20
195.6983
0
VERTEX
10
27.9691
20
194.5942
0
SEQEND
0
POLYLINE
0
VERTEX
10
27.9691
20
194.5942
0
VERTEX
10
27.8764
20
195.8316
0
SEQEND
0
POLYLINE
0
VERTEX
10
27.8764
20
195.8316
0
VERTEX
10
27.1276
20
194.1930
0
SEQEND
0
POLYLINE
0
VERTEX
10
27.1276
20
194.1930
0
VERTEX
10
28.5729
20
195.3576
0
SEQEND
0
POLYLINE
0
VERTEX
10
28.5729
20
195.3576
0
VERTEX
10
26.2421
20
194.6255
0
SEQEND
0
POLYLINE
0
VERTEX
10
26.2421
20
194.6255
0
VERTEX
10
28.8550
20
194.0133
0
SEQEND
0
POLYLINE
0
VERTEX
10
28.8550
20
194.0133
0
VERTEX
10
26.2387
20
195.7216
0
SEQEND
0
POLYLINE
0
VERTEX
10
26.2387
20
195.7216
0
VERTEX
10
27.8955
20
192.4684
0
SEQEND
0
POLYLINE
0
VERTEX
10
27.8955
20
192.4684
0
VERTEX
10
27.5799
20
196.3785
0
SEQEND
0
POLYLINE
0
VERTEX
10
27.5799
20
196.3785
0
VERTEX
10
25.8160
20
192.0530
0
SEQEND
0
POLYLINE
0
VERTEX
10
25.8160
20
192.0530
0
VERTEX
10
29.4576
20
195.3516
0
SEQEND
0
POLYLINE
0
VERTEX
10
29.4576
20
195.3516
0
VERTEX
10
24.0453
20
193.5740
0
SEQEND
0
POLYLINE
0
VERTEX
10
24.0453
20
193.5740
0
VERTEX
10
30.0678
20
192.5751
0
SEQEND
0
POLYLINE
0
VERTEX
10
30.0678
20
192.5751
0
VERTEX
10
24.3739
20
196.1916
0
SEQEND
0
POLYLINE
0
VERTEX
10
24.3739
20
196.1916
0
VERTEX
10
28.0877
20
189.7547
0
SEQEND
0
POLYLINE
0
VERTEX
10
28.0877
20
189.7547
0
VERTEX
10
27.2437
20
197.6006
0
SEQEND
0
POLYLINE
0
VERTEX
10
27.2437
20
197.6006
0
VERTEX
10
24.2175
20
189.3350
0
SEQEND
0
POLYLINE
0
VERTEX
10
24.2175
20
189.3350
0
VERTEX
10
30.7913
20
195.7836
0
SEQEND
0
POLYLINE
0
VERTEX
10
30.7913
20
195.7836
0
VERTEX
10
21.2251
20
192.3575
0
SEQEND
0
POLYLINE
0
VERTEX
10
21.2251
20
192.3575
0
VERTEX
10
31.8588
20
191.0701
0
SEQEND
0
POLYLINE
0
VERTEX
10
31.8588
20
191.0701
0
VERTEX
10
21.9790
20
196.9979
0
SEQEND
0
POLYLINE
0
VERTEX
10
21.9790
20
196.9979
0
VERTEX
10
28.5703
20
186.5684
0
SEQEND
0
POLYLINE
0
VERTEX
10
28.5703
20
186.5684
0
VERTEX
10
26.7983
20
199.4011
0
SEQEND
0
POLYLINE
0
VERTEX
10
26.7983
20
199.4011
0
VERTEX
10
22.4391
20
186.1022
0
SEQEND
0
POLYLINE
0
VERTEX
10
22.4391
20
186.1022
0
VERTEX
10
32.4485
20
196.6407
0
SEQEND
0
POLYLINE
0
VERTEX
10
32.4485
20
196.6407
0
VERTEX
10
17.9058
20
190.9369
0
SEQEND
0
POLYLINE
0
VERTEX
10
17.9058
20
190.9369
0
VERTEX
10
34.1294
20
189.5880
0
SEQEND
0
POLYLINE
0
VERTEX
10
34.1294
20
189.5880
0
VERTEX
10
19.1094
20
198.0169
0
SEQEND
0
POLYLINE
0
VERTEX
10
19.1094
20
198.0169
0
VERTEX
10
29.3449
20
183.0493
0
SEQEND
0
POLYLINE
0
VERTEX
10
29.3449
20
183.0493
0
VERTEX
10
26.1849
20
201.6519
0
SEQEND
0
POLYLINE
0
VERTEX
10
26.1849
20
201.6519
0
VERTEX
10
20.5905
20
182.4503
0
SEQEND
0
POLYLINE
0
VERTEX
10
20.5905
20
182.4503
0
VERTEX
10
34.2886
20
197.8816
0
SEQEND
0
POLYLINE
0
VERTEX
10
34.2886
20
197.8816
0
VERTEX
10
14.2365
20
189.2928
0
SEQEND
0
POLYLINE
0
VERTEX
10
14.2365
20
189.2928
0
VERTEX
10
36.7513
20
188.2112
0
SEQEND
0
POLYLINE
0
VERTEX
10
36.7513
20
188.2112
0
VERTEX
10
15.8507
20
199.1198
0
SEQEND
0
POLYLINE
0
VERTEX
10
15.8507
20
199.1198
0
VERTEX
10
30.3882
20
179.3537
0
SEQEND
0
POLYLINE
0
VERTEX
10
30.3882
20
179.3537
0
VERTEX
10
25.3603
20
204.2004
0
SEQEND
0
POLYLINE
0
VERTEX
10
25.3603
20
204.2004
0
VERTEX
10
18.7773
20
178.5029
0
SEQEND
0
POLYLINE
0
VERTEX
10
18.7773
20
178.5029
0
VERTEX
10
36.1637
20
199.4383
0
SEQEND
0
POLYLINE
0
VERTEX
10
36.1637
20
199.4383
0
VERTEX
10
10.3831
20
187.4266
0
SEQEND
0
POLYLINE
0
VERTEX
10
10.3831
20
187.4266
0
VERTEX
10
39.5730
20
187.0095
0
SEQEND
0
POLYLINE
0
VERTEX
10
39.5730
20
187.0095
0
VERTEX
10
12.3138
20
200.1800
0
SEQEND
0
POLYLINE
0
VERTEX
10
12.3138
20
200.1800
0
VERTEX
10
31.6532
20
175.6455
0
SEQEND
0
POLYLINE
0
VERTEX
10
31.6532
20
175.6455
0
VERTEX
10
24.3002
20
206.8781
0
SEQEND
0
POLYLINE
0
VERTEX
10
24.3002
20
206.8781
0
VERTEX
10
17.0940
20
174.4053
0
SEQEND
0
POLYLINE
0
VERTEX
10
17.0940
20
174.4053
0
VERTEX
10
37.9277
20
201.2188
0
SEQEND
0
POLYLINE
0
VERTEX
10
37.9277
20
201.2188
0
VERTEX
10
6.5190
20
185.3620
0
SEQEND
0
POLYLINE
0
VERTEX
10
6.5190
20
185.3620
0
VERTEX
10
42.4278
20
186.0351
0
SEQEND
0
POLYLINE
0
VERTEX
10
42.4278
20
186.0351
0
VERTEX
10
8.6303
20
201.0812
0
SEQEND
0
POLYLINE
0
VERTEX
10
8.6303
20
201.0812
0
VERTEX
10
33.0705
20
172.0872
0
SEQEND
0
POLYLINE
0
VERTEX
10
33.0705
20
172.0872
0
VERTEX
10
23.0011
20
209.5093
0
SEQEND
0
POLYLINE
0
VERTEX
10
23.0011
20
209.5093
0
VERTEX
10
15.6187
20
170.3170
0
SEQEND
0
POLYLINE
0
VERTEX
10
15.6187
20
170.3170
0
VERTEX
10
39.4447
20
203.1125
0
SEQEND
0
POLYLINE
0
VERTEX
10
39.4447
20
203.1125
0
VERTEX
10
2.8156
20
183.1441
0
SEQEND
0
POLYLINE
0
VERTEX
10
2.8156
20
183.1441
0
VERTEX
10
45.1430
20
185.3201
0
SEQEND
0
POLYLINE
0
VERTEX
10
45.1430
20
185.3201
0
VERTEX
10
4.9446
20
201.7235
0
SEQEND
0
POLYLINE
0
VERTEX
10
4.9446
20
201.7235
0
VERTEX
10
34.5523
20
168.8305
0
SEQEND
0
POLYLINE
0
VERTEX
10
34.5523
20
168.8305
0
VERTEX
10
21.4808
20
211.9212
0
SEQEND
0
POLYLINE
0
VERTEX
10
21.4808
20
211.9212
0
VERTEX
10
14.4090
20
166.4026
0
SEQEND
0
POLYLINE
0
VERTEX
10
14.4090
20
166.4026
0
VERTEX
10
40.5957
20
204.9955
0
SEQEND
0
POLYLINE
0
VERTEX
10
40.5957
20
204.9955
0
VERTEX
10
-0.5670
20
180.8363
0
SEQEND
0
POLYLINE
0
VERTEX
10
-0.5670
20
180.8363
0
VERTEX
10
47.5493
20
184.8747
0
SEQEND
0
POLYLINE
0
VERTEX
10
47.5493
20
184.8747
0
VERTEX
10
1.4066
20
202.0289
0
SEQEND
0
POLYLINE
0
VERTEX
10
1.4066
20
202.0289
0
VERTEX
10
35.9973
20
166.0088
0
SEQEND
0
POLYLINE
0
VERTEX
10
35.9973
20
166.0088
0
VERTEX
10
19.7768
20
213.9533
0
SEQEND
0
POLYLINE
0
VERTEX
10
19.7768
20
213.9533
0
VERTEX
10
13.4985
20
162.8232
0
SEQEND
0
POLYLINE
0
VERTEX
10
13.4985
20
162.8232
0
VERTEX
10
41.2858
20
206.7381
0
SEQEND
0
POLYLINE
0
VERTEX
10
41.2858
20
206.7381
0
VERTEX
10
-3.4888
20
178.5172
0
SEQEND
0
POLYLINE
0
VERTEX
10
-3.4888
20
178.5172
0
VERTEX
10
49.4906
20
184.6869
0
SEQEND
0
POLYLINE
0
VERTEX
10
49.4906
20
184.6869
0
VERTEX
10
-1.8370
20
201.9451
0
SEQEND
0
POLYLINE
0
VERTEX
10
-1.8370
20
201.9451
0
VERTEX
10
37.2972
20
163.7297
0
SEQEND
0
POLYLINE
0
VERTEX
10
37.2972
20
163.7297
0
VERTEX
10
17.9439
20
215.4661
0
SEQEND
0
POLYLINE
0
VERTEX
10
17.9439
20
215.4661
0
VERTEX
10
12.8966
20
159.7268
0
SEQEND
0
POLYLINE
0
VERTEX
10
12.8966
20
159.7268
0
VERTEX
10
41.4481
20
208.2127
0
SEQEND
0
POLYLINE
0
VERTEX
10
41.4481
20
208.2127
0
VERTEX
10
-5.8369
20
176.2748
0
SEQEND
0
POLYLINE
0
VERTEX
10
-5.8369
20
176.2748
0
VERTEX
10
50.8319
20
184.7246
0
SEQEND
0
POLYLINE
0
VERTEX
10
50.8319
20
184.7246
0
VERTEX
10
-4.6517
20
201.4476
0
SEQEND
0
POLYLINE
0
VERTEX
10
-4.6517
20
201.4476
0
VERTEX
10
38.3432
20
162.0701
0
SEQEND
0
POLYLINE
0
VERTEX
10
38.3432
20
162.0701
0
VERTEX
10
16.0499
20
216.3486
0
SEQEND
0
POLYLINE
0
VERTEX
10
16.0499
20
216.3486
0
VERTEX
10
12.5886
20
157.2403
0
SEQEND
0
POLYLINE
0
VERTEX
10
12.5886
20
157.2403
0
VERTEX
10
41.0469
20
209.3016
0
SEQEND
0
POLYLINE
0
VERTEX
10
41.0469
20
209.3016
0
VERTEX
10
-7.5312
20
174.2009
0
SEQEND
0
POLYLINE
0
VERTEX
10
-7.5312
20
174.2009
0
VERTEX
10
51.4678
20
184.9387
0
SEQEND
0
POLYLINE
0
VERTEX
10
51.4678
20
184.9387
0
VERTEX
10
-6.9225
20
200.5399
0
SEQEND
0
POLYLINE
0
VERTEX
10
-6.9225
20
200.5399
0
VERTEX
10
39.0334
20
161.0728
0
SEQEND
0
POLYLINE
0
VERTEX
10
39.0334
20
161.0728
0
VERTEX
10
14.1706
20
216.5243
0
SEQEND
0
POLYLINE
0
VERTEX
10
14.1706
20
216.5243
0
VERTEX
10
12.5382
20
155.4620
0
SEQEND
0
POLYLINE
0
VERTEX
10
12.5382
20
155.4620
0
VERTEX
10
40.0785
20
209.9043
0
SEQEND
0
POLYLINE
0
VERTEX
10
40.0785
20
209.9043
0
VERTEX
10
-8.5289
20
172.3844
0
SEQEND
0
POLYLINE
0
VERTEX
10
-8.5289
20
172.3844
0
VERTEX
10
51.3278
20
185.2671
0
SEQEND
0
POLYLINE
0
VERTEX
10
51.3278
20
185.2671
0
VERTEX
10
-8.5616
20
199.2519
0
SEQEND
0
POLYLINE
0
VERTEX
10
-8.5616
20
199.2519
0
VERTEX
10
39.2799
20
160.7446
0
SEQEND
0
POLYLINE
0
VERTEX
10
39.2799
20
160.7446
0
VERTEX
10
12.3838
20
215.9553
0
SEQEND
0
POLYLINE
0
VERTEX
10
12.3838
20
215.9553
0
VERTEX
10
12.6913
20
154.4555
0
SEQEND
0
POLYLINE
0
VERTEX
10
12.6913
20
154.4555
0
VERTEX
10
38.5703
20
209.9448
0
SEQEND
0
POLYLINE
0
VERTEX
10
38.5703
20
209.9448
0
VERTEX
10
-8.8250
20
170.9050
0
SEQEND
0
POLYLINE
0
VERTEX
10
-8.8250
20
170.9050
0
VERTEX
10
50.3806
20
185.6403
0
SEQEND
0
POLYLINE
0
VERTEX
10
50.3806
20
185.6403
0
VERTEX
10
-9.5140
20
197.6365
0
SEQEND
0
POLYLINE
0
VERTEX
10
-9.5140
20
197.6365
0
VERTEX
10
39.0148
20
161.0579
0
SEQEND
0
POLYLINE
0
VERTEX
10
39.0148
20
161.0579
0
VERTEX
10
10.7633
20
214.6439
0
SEQEND
0
POLYLINE
0
VERTEX
10
10.7633
20
214.6439
0
VERTEX
10
12.9803
20
154.2459
0
SEQEND
0
POLYLINE
0
VERTEX
10
12.9803
20
154.2459
0
VERTEX
10
36.5774
20
209.3764
0
SEQEND
0
POLYLINE
0
VERTEX
10
36.5774
20
209.3764
0
VERTEX
10
-8.4529
20
169.8268
0
SEQEND
0
POLYLINE
0
VERTEX
10
-8.4529
20
169.8268
0
VERTEX
10
48.6357
20
185.9869
0
SEQEND
0
POLYLINE
0
VERTEX
10
48.6357
20
185.9869
0
VERTEX
10
-9.7609
20
195.7652
0
SEQEND
0
POLYLINE
0
VERTEX
10
-9.7609
20
195.7652
0
VERTEX
10
38.1960
20
161.9528
0
SEQEND
0
POLYLINE
0
VERTEX
10
38.1960
20
161.9528
0
VERTEX
10
9.3731
20
212.6320
0
SEQEND
0
POLYLINE
0
VERTEX
10
9.3731
20
212.6320
0
VERTEX
10
13.3305
20
154.8182
0
SEQEND
0
POLYLINE
0
VERTEX
10
13.3305
20
154.8182
0
VERTEX
10
34.1784
20
208.1860
0
SEQEND
0
POLYLINE
0
VERTEX
10
34.1784
20
208.1860
0
VERTEX
10
-7.4806
20
169.1934
0
SEQEND
0
POLYLINE
0
VERTEX
10
-7.4806
20
169.1934
0
VERTEX
10
46.1430
20
186.2399
0
SEQEND
0
POLYLINE
0
VERTEX
10
46.1430
20
186.2399
0
VERTEX
10
-9.3220
20
193.7223
0
SEQEND
0
POLYLINE
0
VERTEX
10
-9.3220
20
193.7223
0
VERTEX
10
36.8108
20
163.3418
0
SEQEND
0
POLYLINE
0
VERTEX
10
36.8108
20
163.3418
0
VERTEX
10
8.2618
20
209.9986
0
SEQEND
0
POLYLINE
0
VERTEX
10
8.2618
20
209.9986
0
VERTEX
10
13.6658
20
156.1176
0
SEQEND
0
POLYLINE
0
VERTEX
10
13.6658
20
156.1176
0
VERTEX
10
31.4698
20
206.3958
0
SEQEND
0
POLYLINE
0
VERTEX
10
31.4698
20
206.3958
0
VERTEX
10
-6.0068
20
169.0235
0
SEQEND
0
POLYLINE
0
VERTEX
10
-6.0068
20
169.0235
0
VERTEX
10
42.9903
20
186.3421
0
SEQEND
0
POLYLINE
0
VERTEX
10
42.9903
20
186.3421
0
VERTEX
10
-8.2550
20
191.5988
0
SEQEND
0
POLYLINE
0
VERTEX
10
-8.2550
20
191.5988
0
VERTEX
10
34.8781
20
165.1163
0
SEQEND
0
POLYLINE
0
VERTEX
10
34.8781
20
165.1163
0
VERTEX
10
7.4583
20
206.8549
0
SEQEND
0
POLYLINE
0
VERTEX
10
7.4583
20
206.8549
0
VERTEX
10
13.9147
20
158.0519
0
SEQEND
0
POLYLINE
0
VERTEX
10
13.9147
20
158.0519
0
VERTEX
10
28.5587
20
204.0633
0
SEQEND
0
POLYLINE
0
VERTEX
10
28.5587
20
204.0633
0
VERTEX
10
-4.1543
20
169.3085
0
SEQEND
0
POLYLINE
0
VERTEX
10
-4.1543
20
169.3085
0
VERTEX
10
39.2980
20
186.2510
0
SEQEND
0
POLYLINE
0
VERTEX
10
39.2980
20
186.2510
0
VERTEX
10
-6.6530
20
189.4853
0
SEQEND
0
POLYLINE
0
VERTEX
10
-6.6530
20
189.4853
0
VERTEX
10
32.4487
20
167.1530
0
SEQEND
0
POLYLINE
0
VERTEX
10
32.4487
20
167.1530
0
VERTEX
10
6.9687
20
203.3377
0
SEQEND
0
POLYLINE
0
VERTEX
10
6.9687
20
203.3377
0
VERTEX
10
14.0158
20
160.4971
0
SEQEND
0
POLYLINE
0
VERTEX
10
14.0158
20
160.4971
0
VERTEX
10
25.5561
20
201.2790
0
SEQEND
0
POLYLINE
0
VERTEX
10
25.5561
20
201.2790
0
VERTEX
10
-2.0625
20
170.0117
0
SEQEND
0
POLYLINE
0
VERTEX
10
-2.0625
20
170.0117
0
VERTEX
10
35.2126
20
185.9426
0
SEQEND
0
POLYLINE
0
VERTEX
10
35.2126
20
185.9426
0
VERTEX
10
-4.6398
20
187.4664
0
SEQEND
0
POLYLINE
0
VERTEX
10
-4.6398
20
187.4664
0
VERTEX
10
29.6034
20
169.3222
0
SEQEND
0
POLYLINE
0
VERTEX
10
29.6034
20
169.3222
0
VERTEX
10
6.7747
20
199.6015
0
SEQEND
0
POLYLINE
0
VERTEX
10
6.7747
20
199.6015
0
VERTEX
10
13.9230
20
163.3033
0
SEQEND
0
POLYLINE
0
VERTEX
10
13.9230
20
163.3033
0
VERTEX
10
22.5696
20
198.1619
0
SEQEND
0
POLYLINE
0
VERTEX
10
22.5696
20
198.1619
0
VERTEX
10
0.1213
20
171.0692
0
SEQEND
0
POLYLINE
0
VERTEX
10
0.1213
20
171.0692
0
VERTEX
10
30.8985
20
185.4141
0
SEQEND
0
POLYLINE
0
VERTEX
10
30.8985
20
185.4141
0
VERTEX
10
-2.3637
20
185.6144
0
SEQEND
0
POLYLINE
0
VERTEX
10
-2.3637
20
185.6144
0
VERTEX
10
26.4496
20
171.4958
0
SEQEND
0
POLYLINE
0
VERTEX
10
26.4496
20
171.4958
0
VERTEX
10
6.8337
20
195.8097
0
SEQEND
0
POLYLINE
0
VERTEX
10
6.8337
20
195.8097
0
VERTEX
10
13.6083
20
166.3033
0
SEQEND
0
POLYLINE
0
VERTEX
10
13.6083
20
166.3033
0
VERTEX
10
19.6970
20
194.8541
0
SEQEND
0
POLYLINE
0
VERTEX
10
19.6970
20
194.8541
0
VERTEX
10
2.2498
20
172.3928
0
SEQEND
0
POLYLINE
0
VERTEX
10
2.2498
20
172.3928
0
VERTEX
10
26.5291
20
184.6848
0
SEQEND
0
POLYLINE
0
VERTEX
10
26.5291
20
184.6848
0
VERTEX
10
0.0110
20
183.9850
0
SEQEND
0
POLYLINE
0
VERTEX
10
0.0110
20
183.9850
0
VERTEX
10
23.1159
20
173.5542
0
SEQEND
0
POLYLINE
0
VERTEX
10
23.1159
20
173.5542
0
VERTEX
10
7.0803
20
192.1256
0
SEQEND
0
POLYLINE
0
VERTEX
10
7.0803
20
192.1256
0
VERTEX
10
13.0645
20
169.3217
0
SEQEND
0
POLYLINE
0
VERTEX
10
13.0645
20
169.3217
0
VERTEX
10
17.0201
20
191.5126
0
SEQEND
0
POLYLINE
0
VERTEX
10
17.0201
20
191.5126
0
VERTEX
10
4.1846
20
173.8745
0
SEQEND
0
POLYLINE
0
VERTEX
10
4.1846
20
173.8745
0
VERTEX
10
22.2772
20
183.7954
0
SEQEND
0
POLYLINE
0
VERTEX
10
22.2772
20
183.7954
0
VERTEX
10
2.3121
20
182.6140
0
SEQEND
0
POLYLINE
0
VERTEX
10
2.3121
20
182.6140
0
VERTEX
10
19.7452
20
175.3938
0
SEQEND
0
POLYLINE
0
VERTEX
10
19.7452
20
175.3938
0
VERTEX
10
7.4304
20
188.7032
0
SEQEND
0
POLYLINE
0
VERTEX
10
7.4304
20
188.7032
0
VERTEX
10
12.3057
20
172.1842
0
SEQEND
0
POLYLINE
0
VERTEX
10
12.3057
20
172.1842
0
VERTEX
10
14.6007
20
188.3012
0
SEQEND
0
POLYLINE
0
VERTEX
10
14.6007
20
188.3012
0
VERTEX
10
5.8038
20
175.3923
0
SEQEND
0
POLYLINE
0
VERTEX
10
5.8038
20
175.3923
0
VERTEX
10
18.3055
20
182.8058
0
SEQEND
0
POLYLINE
0
VERTEX
10
18.3055
20
182.8058
0
VERTEX
10
4.3700
20
181.5151
0
SEQEND
0
POLYLINE
0
VERTEX
10
4.3700
20
181.5151
0
VERTEX
10
16.4867
20
176.9320
0
SEQEND
0
POLYLINE
0
VERTEX
10
16.4867
20
176.9320
0
VERTEX
10
7.7854
20
185.6789
0
SEQEND
0
POLYLINE
0
VERTEX
10
7.7854
20
185.6789
0
VERTEX
10
11.3661
20
174.7277
0
SEQEND
0
POLYLINE
0
VERTEX
10
11.3661
20
174.7277
0
VERTEX
10
12.4772
20
185.3812
0
SEQEND
0
POLYLINE
0
VERTEX
10
12.4772
20
185.3812
0
VERTEX
10
7.0082
20
176.8173
0
SEQEND
0
POLYLINE
0
VERTEX
10
7.0082
20
176.8173
0
VERTEX
10
14.7580
20
181.7913
0
SEQEND
0
POLYLINE
0
VERTEX
10
14.7580
20
181.7913
0
VERTEX
10
6.0262
20
180.6802
0
SEQEND
0
POLYLINE
0
VERTEX
10
6.0262
20
180.6802
0
VERTEX
10
13.4877
20
178.1115
0
SEQEND
0
POLYLINE
0
VERTEX
10
13.4877
20
178.1115
0
VERTEX
10
8.0385
20
183.1645
0
SEQEND
0
POLYLINE
0
VERTEX
10
8.0385
20
183.1645
0
VERTEX
10
10.2973
20
176.8086
0
SEQEND
0
POLYLINE
0
VERTEX
10
10.2973
20
176.8086
0
VERTEX
10
10.6636
20
182.9025
0
SEQEND
0
POLYLINE
0
VERTEX
10
10.6636
20
182.9025
0
VERTEX
10
7.7262
20
178.0214
0
SEQEND
0
POLYLINE
0
VERTEX
10
7.7262
20
178.0214
0
VERTEX
10
11.7524
20
180.8376
0
SEQEND
0
POLYLINE
0
VERTEX
10
11.7524
20
180.8376
0
VERTEX
10
7.1429
20
180.0806
0
SEQEND
0
POLYLINE
0
VERTEX
10
7.1429
20
180.0806
0
VERTEX
10
10.8848
20
178.9028
0
SEQEND
0
POLYLINE
0
VERTEX
10
10.8848
20
178.9028
0
VERTEX
10
8.0818
20
181.2419
0
SEQEND
0
POLYLINE
0
VERTEX
10
8.0818
20
181.2419
0
VERTEX
10
9.1650
20
178.3110
0
SEQEND
0
POLYLINE
0
VERTEX
10
9.1650
20
178.3110
0
VERTEX
10
9.1496
20
180.9947
0
SEQEND
0
POLYLINE
0
VERTEX
10
9.1496
20
180.9947
0
VERTEX
10
7.9172
20
178.8853
0
SEQEND
0
POLYLINE
0
VERTEX
10
7.9172
20
178.8853
0
VERTEX
10
9.3742
20
180.0352
0
SEQEND
0
POLYLINE
0
VERTEX
10
9.3742
20
180.0352
0
VERTEX
10
7.6101
20
179.6698
0
SEQEND
0
POLYLINE
0
VERTEX
10
7.6101
20
179.6698
0
VERTEX
10
8.7958
20
179.3040
0
SEQEND
0
POLYLINE
0
VERTEX
10
8.7958
20
179.3040
0
VERTEX
10
7.8128
20
179.9589
0
SEQEND
0
POLYLINE
0
VERTEX
10
7.8128
20
179.9589
0
VERTEX
10
8.0433
20
179.1528
0
SEQEND
0
POLYLINE
0
VERTEX
10
8.0433
20
179.1528
0
VERTEX
10
7.9031
20
179.7598
0
SEQEND
0
POLYLINE
0
VERTEX
10
7.9031
20
179.7598
0
VERTEX
10
7.5725
20
179.3059
0
SEQEND
0
POLYLINE
0
VERTEX
10
7.5725
20
179.3059
0
VERTEX
10
7.6724
20
179.4724
0
SEQEND
0
POLYLINE
0
VERTEX
10
7.6724
20
179.4724
0
VERTEX
10
7.3524
20
179.3879
0
SEQEND
0
POLYLINE
0
VERTEX
10
7.3524
20
179.3879
0
VERTEX
10
7.3127
20
179.3402
0
SEQEND
0
POLYLINE
0
VERTEX
10
7.3127
20
179.3402
0
VERTEX
10
7.1423
20
179.3276
0
SEQEND
0
POLYLINE
0
VERTEX
10
7.1423
20
179.3276
0
VERTEX
10
7.0094
20
179.2898
0
SEQEND
0
POLYLINE
0
VERTEX
10
7.0094
20
179.2898
0
VERTEX
10
6.8732
20
179.2662
0
SEQEND
0
POLYLINE
0
VERTEX
10
6.8732
20
179.2662
0
VERTEX
10
6.7143
20
179.2036
0
SEQEND
0
POLYLINE
0
VERTEX
10
6.7143
20
179.2036
0
VERTEX
10
6.6579
20
179.2294
0
SEQEND
0
POLYLINE
0
VERTEX
10
6.6579
20
179.2294
0
VERTEX
10
6.3328
20
179.1667
0
SEQEND
0
POLYLINE
0
VERTEX
10
6.3328
20
179.1667
0
VERTEX
10
6.4951
20
179.0600
0
SEQEND
0
POLYLINE
0
VERTEX
10
6.4951
20
179.0600
0
VERTEX
10
6.0003
20
179.3255
0
SEQEND
0
POLYLINE
0
VERTEX
10
6.0003
20
179.3255
0
VERTEX
10
6.1373
20
178.7178
0
SEQEND
0
POLYLINE
0
VERTEX
10
6.1373
20
178.7178
0
VERTEX
10
5.9952
20
179.5440
0
SEQEND
0
POLYLINE
0
VERTEX
10
5.9952
20
179.5440
0
VERTEX
10
5.3937
20
178.5275
0
SEQEND
0
POLYLINE
0
VERTEX
10
5.3937
20
178.5275
0
VERTEX
10
6.3034
20
179.3715
0
SEQEND
0
POLYLINE
0
VERTEX
10
6.3034
20
179.3715
0
VERTEX
10
4.5554
20
178.9353
0
SEQEND
0
POLYLINE
0
VERTEX
10
4.5554
20
178.9353
0
VERTEX
10
6.3670
20
178.5314
0
SEQEND
0
POLYLINE
0
VERTEX
10
6.3670
20
178.5314
0
VERTEX
10
4.3414
20
179.8972
0
SEQEND
0
POLYLINE
0
VERTEX
10
4.3414
20
179.8972
0
VERTEX
10
5.4919
20
177.4727
0
SEQEND
0
POLYLINE
0
VERTEX
10
5.4919
20
177.4727
0
VERTEX
10
5.1962
20
180.5833
0
SEQEND
0
POLYLINE
0
VERTEX
10
5.1962
20
180.5833
0
VERTEX
10
3.6858
20
177.2597
0
SEQEND
0
POLYLINE
0
VERTEX
10
3.6858
20
177.2597
0
VERTEX
10
6.5461
20
179.9443
0
SEQEND
0
POLYLINE
0
VERTEX
10
6.5461
20
179.9443
0
VERTEX
10
2.0645
20
178.6264
0
SEQEND
0
POLYLINE
0
VERTEX
10
2.0645
20
178.6264
0
VERTEX
10
6.9139
20
177.8360
0
SEQEND
0
POLYLINE
0
VERTEX
10
6.9139
20
177.8360
0
VERTEX
10
2.1496
20
180.9592
0
SEQEND
0
POLYLINE
0
VERTEX
10
2.1496
20
180.9592
0
VERTEX
10
5.1236
20
175.6277
0
SEQEND
0
POLYLINE
0
VERTEX
10
5.1236
20
175.6277
0
VERTEX
10
4.4010
20
182.3343
0
SEQEND
0
POLYLINE
0
VERTEX
10
4.4010
20
182.3343
0
VERTEX
10
1.6839
20
175.4174
0
SEQEND
0
POLYLINE
0
VERTEX
10
1.6839
20
175.4174
0
VERTEX
10
7.2919
20
180.9691
0
SEQEND
0
POLYLINE
0
VERTEX
10
7.2919
20
180.9691
0
VERTEX
10
-1.0572
20
178.1816
0
SEQEND
0
POLYLINE
0
VERTEX
10
-1.0572
20
178.1816
0
VERTEX
10
8.0833
20
177.0627
0
SEQEND
0
POLYLINE
0
VERTEX
10
8.0833
20
177.0627
0
VERTEX
10
-0.5599
20
182.4056
0
SEQEND
0
POLYLINE
0
VERTEX
10
-0.5599
20
182.4056
0
VERTEX
10
5.0636
20
173.2892
0
SEQEND
0
POLYLINE
0
VERTEX
10
5.0636
20
173.2892
0
VERTEX
10
3.5382
20
184.7095
0
SEQEND
0
POLYLINE
0
VERTEX
10
3.5382
20
184.7095
0
VERTEX
10
-0.5063
20
173.0534
0
SEQEND
0
POLYLINE
0
VERTEX
10
-0.5063
20
173.0534
0
VERTEX
10
8.4219
20
182.4399
0
SEQEND
0
POLYLINE
0
VERTEX
10
8.4219
20
182.4399
0
VERTEX
10
-4.6935
20
177.5564
0
SEQEND
0
POLYLINE
0
VERTEX
10
-4.6935
20
177.5564
0
VERTEX
10
9.7866
20
176.3014
0
SEQEND
0
POLYLINE
0
VERTEX
10
9.7866
20
176.3014
0
VERTEX
10
-3.7400
20
184.1151
0
SEQEND
0
POLYLINE
0
VERTEX
10
-3.7400
20
184.1151
0
VERTEX
10
5.3206
20
170.5899
0
SEQEND
0
POLYLINE
0
VERTEX
10
5.3206
20
170.5899
0
VERTEX
10
2.5458
20
187.5883
0
SEQEND
0
POLYLINE
0
VERTEX
10
2.5458
20
187.5883
0
VERTEX
10
-2.7747
20
170.2537
0
SEQEND
0
POLYLINE
0
VERTEX
10
-2.7747
20
170.2537
0
VERTEX
10
9.7992
20
184.3228
0
SEQEND
0
POLYLINE
0
VERTEX
10
9.7992
20
184.3228
0
VERTEX
10
-8.7013
20
176.7247
0
SEQEND
0
POLYLINE
0
VERTEX
10
-8.7013
20
176.7247
0
VERTEX
10
11.9040
20
175.6364
0
SEQEND
0
POLYLINE
0
VERTEX
10
11.9040
20
175.6364
0
VERTEX
10
-7.3132
20
185.9587
0
SEQEND
0
POLYLINE
0
VERTEX
10
-7.3132
20
185.9587
0
VERTEX
10
5.8789
20
167.6816
0
SEQEND
0
POLYLINE
0
VERTEX
10
5.8789
20
167.6816
0
VERTEX
10
1.3762
20
190.8237
0
SEQEND
0
POLYLINE
0
VERTEX
10
1.3762
20
190.8237
0
VERTEX
10
-5.0135
20
167.1338
0
SEQEND
0
POLYLINE
0
VERTEX
10
-5.0135
20
167.1338
0
VERTEX
10
11.2776
20
186.5566
0
SEQEND
0
POLYLINE
0
VERTEX
10
11.2776
20
186.5566
0
VERTEX
10
-12.9180
20
175.6812
0
SEQEND
0
POLYLINE
0
VERTEX
10
-12.9180
20
175.6812
0
VERTEX
10
14.2902
20
175.1410
0
SEQEND
0
POLYLINE
0
VERTEX
10
14.2902
20
175.1410
0
VERTEX
10
-11.1748
20
187.8078
0
SEQEND
0
POLYLINE
0
VERTEX
10
-11.1748
20
187.8078
0
VERTEX
10
6.6986
20
164.7262
0
SEQEND
0
POLYLINE
0
VERTEX
10
6.6986
20
164.7262
0
VERTEX
10
-0.0000
20
194.2500
0
SEQEND
0
POLYLINE
0
VERTEX
10
-0.0000
20
194.2500
0
VERTEX
10
-7.1239
20
163.8328
0
SEQEND
0
POLYLINE
0
VERTEX
10
-7.1239
20
163.8328
0
VERTEX
10
12.7101
20
189.0549
0
SEQEND
0
POLYLINE
0
VERTEX
10
12.7101
20
189.0549
0
VERTEX
10
-17.1711
20
174.4425
0
SEQEND
0
POLYLINE
0
VERTEX
10
-17.1711
20
174.4425
0
VERTEX
10
16.7822
20
174.8719
0
SEQEND
0
POLYLINE
0
VERTEX
10
16.7822
20
174.8719
0
VERTEX
10
-15.1982
20
189.5417
0
SEQEND
0
POLYLINE
0
VERTEX
10
-15.1982
20
189.5417
0
VERTEX
10
7.7168
20
161.8868
0
SEQEND
0
POLYLINE
0
VERTEX
10
7.7168
20
161.8868
0
VERTEX
10
-1.5921
20
197.6918
0
SEQEND
0
POLYLINE
0
VERTEX
10
-1.5921
20
197.6918
0
VERTEX
10
-9.0223
20
160.5062
0
SEQEND
0
POLYLINE
0
VERTEX
10
-9.0223
20
160.5062
0
VERTEX
10
13.9573
20
191.7111
0
SEQEND
0
POLYLINE
0
VERTEX
10
13.9573
20
191.7111
0
VERTEX
10
-21.2873
20
173.0468
0
SEQEND
0
POLYLINE
0
VERTEX
10
-21.2873
20
173.0468
0
VERTEX
10
19.2085
20
174.8666
0
SEQEND
0
POLYLINE
0
VERTEX
10
19.2085
20
174.8666
0
VERTEX
10
-19.2413
20
191.0543
0
SEQEND
0
POLYLINE
0
VERTEX
10
-19.2413
20
191.0543
0
VERTEX
10
8.8507
20
159.3182
0
SEQEND
0
POLYLINE
0
VERTEX
10
8.8507
20
159.3182
0
VERTEX
10
-3.3879
20
200.9739
0
SEQEND
0
POLYLINE
0
VERTEX
10
-3.3879
20
200.9739
0
VERTEX
10
-10.6446
20
157.3172
0
SEQEND
0
POLYLINE
0
VERTEX
10
-10.6446
20
157.3172
0
VERTEX
10
14.8951
20
194.4035
0
SEQEND
0
POLYLINE
0
VERTEX
10
14.8951
20
194.4035
0
VERTEX
10
-25.1020
20
171.5521
0
SEQEND
0
POLYLINE
0
VERTEX
10
-25.1020
20
171.5521
0
VERTEX
10
21.3983
20
175.1407
0
SEQEND
0
POLYLINE
0
VERTEX
10
21.3983
20
175.1407
0
VERTEX
10
-23.1546
20
192.2601
0
SEQEND
0
POLYLINE
0
VERTEX
10
-23.1546
20
192.2601
0
VERTEX
10
10.0028
20
157.1591
0
SEQEND
0
POLYLINE
0
VERTEX
10
10.0028
20
157.1591
0
VERTEX
10
-5.3551
20
203.9303
0
SEQEND
0
POLYLINE
0
VERTEX
10
-5.3551
20
203.9303
0
VERTEX
10
-11.9498
20
154.4281
0
SEQEND
0
POLYLINE
0
VERTEX
10
-11.9498
20
154.4281
0
VERTEX
10
15.4215
20
197.0028
0
SEQEND
0
POLYLINE
0
VERTEX
10
15.4215
20
197.0028
0
VERTEX
10
-28.4682
20
170.0322
0
SEQEND
0
POLYLINE
0
VERTEX
10
-28.4682
20
170.0322
0
VERTEX
10
23.1910
20
175.6877
0
SEQEND
0
POLYLINE
0
VERTEX
10
23.1910
20
175.6877
0
VERTEX
10
-26.7895
20
193.0985
0
SEQEND
0
POLYLINE
0
VERTEX
10
-26.7895
20
193.0985
0
VERTEX
10
11.0663
20
155.5242
0
SEQEND
0
POLYLINE
0
VERTEX
10
11.0663
20
155.5242
0
VERTEX
10
-7.4430
20
206.4141
0
SEQEND
0
POLYLINE
0
VERTEX
10
-7.4430
20
206.4141
0
VERTEX
10
-12.9212
20
151.9908
0
SEQEND
0
POLYLINE
0
VERTEX
10
-12.9212
20
151.9908
0
VERTEX
10
15.4614
20
199.3790
0
SEQEND
0
POLYLINE
0
VERTEX
10
15.4614
20
199.3790
0
VERTEX
10
-31.2643
20
168.5722
0
SEQEND
0
POLYLINE
0
VERTEX
10
-31.2643
20
168.5722
0
VERTEX
10
24.4451
20
176.4802
0
SEQEND
0
POLYLINE
0
VERTEX
10
24.4451
20
176.4802
0
VERTEX
10
-30.0066
20
193.5361
0
SEQEND
0
POLYLINE
0
VERTEX
10
-30.0066
20
193.5361
0
VERTEX
10
11.9321
20
154.4991
0
SEQEND
0
POLYLINE
0
VERTEX
10
11.9321
20
154.4991
0
VERTEX
10
-9.5868
20
208.3045
0
SEQEND
0
POLYLINE
0
VERTEX
10
-9.5868
20
208.3045
0
VERTEX
10
-13.5665
20
150.1383
0
SEQEND
0
POLYLINE
0
VERTEX
10
-13.5665
20
150.1383
0
VERTEX
10
14.9705
20
201.4099
0
SEQEND
0
POLYLINE
0
VERTEX
10
14.9705
20
201.4099
0
VERTEX
10
-33.4003
20
167.2627
0
SEQEND
0
POLYLINE
0
VERTEX
10
-33.4003
20
167.2627
0
VERTEX
10
25.0462
20
177.4728
0
SEQEND
0
POLYLINE
0
VERTEX
10
25.0462
20
177.4728
0
VERTEX
10
-32.6845
20
193.5678
0
SEQEND
0
POLYLINE
0
VERTEX
10
-32.6845
20
193.5678
0
VERTEX
10
12.4960
20
154.1354
0
SEQEND
0
POLYLINE
0
VERTEX
10
12.4960
20
154.1354
0
VERTEX
10
-11.7123
20
209.5139
0
SEQEND
0
POLYLINE
0
VERTEX
10
-11.7123
20
209.5139
0
VERTEX
10
-13.9159
20
148.9768
0
SEQEND
0
POLYLINE
0
VERTEX
10
-13.9159
20
148.9768
0
VERTEX
10
13.9361
20
202.9888
0
SEQEND
0
POLYLINE
0
VERTEX
10
13.9361
20
202.9888
0
VERTEX
10
-34.8221
20
166.1933
0
SEQEND
0
POLYLINE
0
VERTEX
10
-34.8221
20
166.1933
0
VERTEX
10
24.9138
20
178.6057
0
SEQEND
0
POLYLINE
0
VERTEX
10
24.9138
20
178.6057
0
VERTEX
10
-34.7267
20
193.2152
0
SEQEND
0
POLYLINE
0
VERTEX
10
-34.7267
20
193.2152
0
VERTEX
10
12.6654
20
154.4496
0
SEQEND
0
POLYLINE
0
VERTEX
10
12.6654
20
154.4496
0
VERTEX
10
-13.7413
20
209.9924
0
SEQEND
0
POLYLINE
0
VERTEX
10
-13.7413
20
209.9924
0
VERTEX
10
-14.0188
20
148.5795
0
SEQEND
0
POLYLINE
0
VERTEX
10
-14.0188
20
148.5795
0
VERTEX
10
12.3772
20
204.0310
0
SEQEND
0
POLYLINE
0
VERTEX
10
12.3772
20
204.0310
0
VERTEX
10
-35.5136
20
165.4461
0
SEQEND
0
POLYLINE
0
VERTEX
10
-35.5136
20
165.4461
0
VERTEX
10
24.0050
20
179.8101
0
SEQEND
0
POLYLINE
0
VERTEX
10
24.0050
20
179.8101
0
VERTEX
10
-36.0680
20
192.5244
0
SEQEND
0
POLYLINE
0
VERTEX
10
-36.0680
20
192.5244
0
VERTEX
10
12.3666
20
155.4228
0
SEQEND
0
POLYLINE
0
VERTEX
10
12.3666
20
155.4228
0
VERTEX
10
-15.5981
20
209.7298
0
SEQEND
0
POLYLINE
0
VERTEX
10
-15.5981
20
209.7298
0
VERTEX
10
-13.9392
20
148.9821
0
SEQEND
0
POLYLINE
0
VERTEX
10
-13.9392
20
148.9821
0
VERTEX
10
10.3415
20
204.4803
0
SEQEND
0
POLYLINE
0
VERTEX
10
10.3415
20
204.4803
0
VERTEX
10
-35.4972
20
165.0895
0
SEQEND
0
POLYLINE
0
VERTEX
10
-35.4972
20
165.0895
0
VERTEX
10
22.3180
20
181.0138
0
SEQEND
0
POLYLINE
0
VERTEX
10
22.3180
20
181.0138
0
VERTEX
10
-36.6789
20
191.5611
0
SEQEND
0
POLYLINE
0
VERTEX
10
-36.6789
20
191.5611
0
VERTEX
10
11.5496
20
157.0032
0
SEQEND
0
POLYLINE
0
VERTEX
10
11.5496
20
157.0032
0
VERTEX
10
-17.2150
20
208.7561
0
SEQEND
0
POLYLINE
0
VERTEX
10
-17.2150
20
208.7561
0
VERTEX
10
-13.7500
20
150.1802
0
SEQEND
0
POLYLINE
0
VERTEX
10
-13.7500
20
150.1802
0
VERTEX
10
7.9018
20
204.3128
0
SEQEND
0
POLYLINE
0
VERTEX
10
7.9018
20
204.3128
0
VERTEX
10
-34.8314
20
165.1725
0
SEQEND
0
POLYLINE
0
VERTEX
10
-34.8314
20
165.1725
0
VERTEX
10
19.8916
20
182.1472
0
SEQEND
0
POLYLINE
0
VERTEX
10
19.8916
20
182.1472
0
VERTEX
10
-36.5679
20
190.4060
0
SEQEND
0
POLYLINE
0
VERTEX
10
-36.5679
20
190.4060
0
VERTEX
10
10.1933
20
159.1098
0
SEQEND
0
POLYLINE
0
VERTEX
10
10.1933
20
159.1098
0
VERTEX
10
-18.5386
20
207.1392
0
SEQEND
0
POLYLINE
0
VERTEX
10
-18.5386
20
207.1392
0
VERTEX
10
-13.5277
20
152.1292
0
SEQEND
0
POLYLINE
0
VERTEX
10
-13.5277
20
152.1292
0
VERTEX
10
5.1500
20
203.5398
0
SEQEND
0
POLYLINE
0
VERTEX
10
5.1500
20
203.5398
0
VERTEX
10
-33.6065
20
165.7205
0
SEQEND
0
POLYLINE
0
VERTEX
10
-33.6065
20
165.7205
0
VERTEX
10
16.8032
20
183.1487
0
SEQEND
0
POLYLINE
0
VERTEX
10
16.8032
20
183.1487
0
VERTEX
10
-35.7819
20
189.1479
0
SEQEND
0
POLYLINE
0
VERTEX
10
-35.7819
20
189.1479
0
VERTEX
10
8.3076
20
161.6384
0
SEQEND
0
POLYLINE
0
VERTEX
10
8.3076
20
161.6384
0
VERTEX
10
-19.5335
20
204.9810
0
SEQEND
0
POLYLINE
0
VERTEX
10
-19.5335
20
204.9810
0
VERTEX
10
-13.3454
20
154.7466
0
SEQEND
0
POLYLINE
0
VERTEX
10
-13.3454
20
154.7466
0
VERTEX
10
2.1912
20
202.2079
0
SEQEND
0
POLYLINE
0
VERTEX
10
2.1912
20
202.2079
0
VERTEX
10
-31.9390
20
166.7320
0
SEQEND
0
POLYLINE
0
VERTEX
10
-31.9390
20
166.7320
0
VERTEX
10
13.1645
20
183.9705
0
SEQEND
0
POLYLINE
0
VERTEX
10
13.1645
20
183.9705
0
VERTEX
10
-34.4041
20
187.8772
0
SEQEND
0
POLYLINE
0
VERTEX
10
-34.4041
20
187.8772
0
VERTEX
10
5.9342
20
164.4683
0
SEQEND
0
POLYLINE
0
VERTEX
10
5.9342
20
164.4683
0
VERTEX
10
-20.1871
20
202.4108
0
SEQEND
0
POLYLINE
0
VERTEX
10
-20.1871
20
202.4108
0
VERTEX
10
-13.2677
20
157.9159
0
SEQEND
0
POLYLINE
0
VERTEX
10
-13.2677
20
157.9159
0
VERTEX
10
-0.8639
20
200.3978
0
SEQEND
0
POLYLINE
0
VERTEX
10
-0.8639
20
200.3978
0
VERTEX
10
-29.9642
20
168.1774
0
SEQEND
0
POLYLINE
0
VERTEX
10
-29.9642
20
168.1774
0
VERTEX
10
9.1156
20
184.5820
0
SEQEND
0
POLYLINE
0
VERTEX
10
9.1156
20
184.5820
0
VERTEX
10
-32.5501
20
186.6802
0
SEQEND
0
POLYLINE
0
VERTEX
10
-32.5501
20
186.6802
0
VERTEX
10
3.1458
20
167.4701
0
SEQEND
0
POLYLINE
0
VERTEX
10
3.1458
20
167.4701
0
VERTEX
10
-20.5103
20
199.5781
0
SEQEND
0
POLYLINE
0
VERTEX
10
-20.5103
20
199.5781
0
VERTEX
10
-13.3457
20
161.4930
0
SEQEND
0
POLYLINE
0
VERTEX
10
-13.3457
20
161.4930
0
VERTEX
10
-3.9059
20
198.2199
0
SEQEND
0
POLYLINE
0
VERTEX
10
-3.9059
20
198.2199
0
VERTEX
10
-27.8281
20
169.9996
0
SEQEND
0
POLYLINE
0
VERTEX
10
-27.8281
20
169.9996
0
VERTEX
10
4.8166
20
184.9735
0
SEQEND
0
POLYLINE
0
VERTEX
10
4.8166
20
184.9735
0
VERTEX
10
-30.3617
20
185.6322
0
SEQEND
0
POLYLINE
0
VERTEX
10
-30.3617
20
185.6322
0
VERTEX
10
0.0428
20
170.5135
0
SEQEND
0
POLYLINE
0
VERTEX
10
0.0428
20
170.5135
0
VERTEX
10
-20.5391
20
196.6438
0
SEQEND
0
POLYLINE
0
VERTEX
10
-20.5391
20
196.6438
0
VERTEX
10
-13.6127
20
165.3139
0
SEQEND
0
POLYLINE
0
VERTEX
10
-13.6127
20
165.3139
0
VERTEX
10
-6.8337
20
195.8097
0
SEQEND
0
POLYLINE
0
VERTEX
10
-6.8337
20
195.8097
0
VERTEX
10
-25.6788
20
172.1162
0
SEQEND
0
POLYLINE
0
VERTEX
10
-25.6788
20
172.1162
0
VERTEX
10
0.4394
20
185.1570
0
SEQEND
0
POLYLINE
0
VERTEX
10
0.4394
20
185.1570
0
VERTEX
10
-27.9998
20
184.7934
0
SEQEND
0
POLYLINE
0
VERTEX
10
-27.9998
20
184.7934
0
VERTEX
10
-3.2516
20
173.4749
0
SEQEND
0
POLYLINE
0
VERTEX
10
-3.2516
20
173.4749
0
VERTEX
10
-20.3325
20
193.7713
0
SEQEND
0
POLYLINE
0
VERTEX
10
-20.3325
20
193.7713
0
VERTEX
10
-14.0819
20
169.2037
0
SEQEND
0
POLYLINE
0
VERTEX
10
-14.0819
20
169.2037
0
VERTEX
10
-9.5602
20
193.3199
0
SEQEND
0
POLYLINE
0
VERTEX
10
-9.5602
20
193.3199
0
VERTEX
10
-23.6580
20
174.4232
0
SEQEND
0
POLYLINE
0
VERTEX
10
-23.6580
20
174.4232
0
VERTEX
10
-3.8421
20
185.1665
0
SEQEND
0
POLYLINE
0
VERTEX
10
-3.8421
20
185.1665
0
VERTEX
10
-25.6350
20
184.2045
0
SEQEND
0
POLYLINE
0
VERTEX
10
-25.6350
20
184.2045
0
VERTEX
10
-6.5980
20
176.2447
0
SEQEND
0
POLYLINE
0
VERTEX
10
-6.5980
20
176.2447
0
VERTEX
10
-19.9697
20
191.1174
0
SEQEND
0
POLYLINE
0
VERTEX
10
-19.9697
20
191.1174
0
VERTEX
10
-14.7453
20
172.9860
0
SEQEND
0
POLYLINE
0
VERTEX
10
-14.7453
20
172.9860
0
VERTEX
10
-12.0177
20
190.9123
0
SEQEND
0
POLYLINE
0
VERTEX
10
-12.0177
20
190.9123
0
VERTEX
10
-21.8931
20
176.8012
0
SEQEND
0
POLYLINE
0
VERTEX
10
-21.8931
20
176.8012
0
VERTEX
10
-7.8614
20
185.0558
0
SEQEND
0
POLYLINE
0
VERTEX
10
-7.8614
20
185.0558
0
VERTEX
10
-23.4387
20
183.8848
0
SEQEND
0
POLYLINE
0
VERTEX
10
-23.4387
20
183.8848
0
VERTEX
10
-9.8480
20
178.7329
0
SEQEND
0
POLYLINE
0
VERTEX
10
-9.8480
20
178.7329
0
VERTEX
10
-19.5458
20
188.8233
0
SEQEND
0
POLYLINE
0
VERTEX
10
-19.5458
20
188.8233
0
VERTEX
10
-15.5744
20
176.4926
0
SEQEND
0
POLYLINE
0
VERTEX
10
-15.5744
20
176.4926
0
VERTEX
10
-14.1609
20
188.7492
0
SEQEND
0
POLYLINE
0
VERTEX
10
-14.1609
20
188.7492
0
VERTEX
10
-20.4904
20
179.1217
0
SEQEND
0
POLYLINE
0
VERTEX
10
-20.4904
20
179.1217
0
VERTEX
10
-11.4683
20
184.8954
0
SEQEND
0
POLYLINE
0
VERTEX
10
-11.4683
20
184.8954
0
VERTEX
10
-21.5737
20
183.8317
0
SEQEND
0
POLYLINE
0
VERTEX
10
-21.5737
20
183.8317
0
VERTEX
10
-12.8530
20
180.8739
0
SEQEND
0
POLYLINE
0
VERTEX
10
-12.8530
20
180.8739
0
VERTEX
10
-19.1659
20
187.0079
0
SEQEND
0
POLYLINE
0
VERTEX
10
-19.1659
20
187.0079
0
VERTEX
10
-16.5220
20
179.5728
0
SEQEND
0
POLYLINE
0
VERTEX
10
-16.5220
20
179.5728
0
VERTEX
10
-15.9689
20
186.9836
0
SEQEND
0
POLYLINE
0
VERTEX
10
-15.9689
20
186.9836
0
VERTEX
10
-19.5298
20
181.2547
0
SEQEND
0
POLYLINE
0
VERTEX
10
-19.5298
20
181.2547
0
VERTEX
10
-14.5371
20
184.7679
0
SEQEND
0
POLYLINE
0
VERTEX
10
-14.5371
20
184.7679
0
VERTEX
10
-20.1847
20
184.0210
0
SEQEND
0
POLYLINE
0
VERTEX
10
-20.1847
20
184.0210
0
VERTEX
10
-15.4725
20
182.6292
0
SEQEND
0
POLYLINE
0
VERTEX
10
-15.4725
20
182.6292
0
VERTEX
10
-18.9385
20
185.7610
0
SEQEND
0
POLYLINE
0
VERTEX
10
-18.9385
20
185.7610
0
VERTEX
10
-17.5263
20
182.1012
0
SEQEND
0
POLYLINE
0
VERTEX
10
-17.5263
20
182.1012
0
VERTEX
10
-17.4451
20
185.7511
0
SEQEND
0
POLYLINE
0
VERTEX
10
-17.4451
20
185.7511
0
VERTEX
10
-19.0611
20
183.0768
0
SEQEND
0
POLYLINE
0
VERTEX
10
-19.0611
20
183.0768
0
VERTEX
10
-16.9726
20
184.7620
0
SEQEND
0
POLYLINE
0
VERTEX
10
-16.9726
20
184.7620
0
VERTEX
10
-19.3902
20
184.4103
0
SEQEND
0
POLYLINE
0
VERTEX
10
-19.3902
20
184.4103
0
VERTEX
10
-17.5827
20
183.9882
0
SEQEND
0
POLYLINE
0
VERTEX
10
-17.5827
20
183.9882
0
VERTEX
10
-18.9683
20
185.1396
0
SEQEND
0
POLYLINE
0
VERTEX
10
-18.9683
20
185.1396
0
VERTEX
10
-18.5150
20
183.9845
0
SEQEND
0
POLYLINE
0
VERTEX
10
-18.5150
20
183.9845
0
VERTEX
10
-18.6159
20
185.1613
0
SEQEND
0
POLYLINE
0
VERTEX
10
-18.6159
20
185.1613
0
VERTEX
10
-19.1024
20
184.4786
0
SEQEND
0
POLYLINE
0
VERTEX
10
-19.1024
20
184.4786
0
VERTEX
10
-18.7152
20
184.9667
0
SEQEND
0
POLYLINE
0
VERTEX
10
-18.7152
20
184.9667
0
VERTEX
10
-19.2762
20
184.9422
0
SEQEND
0
POLYLINE
0
VERTEX
10
-19.2762
20
184.9422
0
VERTEX
10
-19.0838
20
184.9678
0
SEQEND
0
POLYLINE
0
VERTEX
10
-19.0838
20
184.9678
0
VERTEX
10
-19.3494
20
185.1653
0
SEQEND
0
POLYLINE
0
VERTEX
10
-19.3494
20
185.1653
0
VERTEX
10
-19.4114
20
185.1667
0
SEQEND
0
POLYLINE
0
VERTEX
10
-19.4114
20
185.1667
0
VERTEX
10
-19.5274
20
185.2920
0
SEQEND
0
POLYLINE
0
VERTEX
10
-19.5274
20
185.2920
0
VERTEX
10
-19.6399
20
185.3723
0
SEQEND
0
POLYLINE
0
VERTEX
10
-19.6399
20
185.3723
0
VERTEX
10
-19.7433
20
185.4641
0
SEQEND
0
POLYLINE
0
VERTEX
10
-19.7433
20
185.4641
0
VERTEX
10
-19.8913
20
185.5493
0
SEQEND
0
POLYLINE
0
VERTEX
10
-19.8913
20
185.5493
0
VERTEX
10
-19.9063
20
185.6095
0
SEQEND
0
POLYLINE
0
VERTEX
10
-19.9063
20
185.6095
0
VERTEX
10
-20.1580
20
185.8245
0
SEQEND
0
POLYLINE
0
VERTEX
10
-20.1580
20
185.8245
0
VERTEX
10
-20.1402
20
185.6312
0
SEQEND
0
POLYLINE
0
VERTEX
10
-20.1402
20
185.6312
0
VERTEX
10
-20.2412
20
186.1836
0
SEQEND
0
POLYLINE
0
VERTEX
10
-20.2412
20
186.1836
0
VERTEX
10
-20.6309
20
185.6975
0
SEQEND
0
POLYLINE
0
VERTEX
10
-20.6309
20
185.6975
0
VERTEX
10
-20.0735
20
186.3237
0
SEQEND
0
POLYLINE
0
VERTEX
10
-20.0735
20
186.3237
0
VERTEX
10
-21.2433
20
186.1602
0
SEQEND
0
POLYLINE
0
VERTEX
10
-21.2433
20
186.1602
0
VERTEX
10
-20.0162
20
185.9753
0
SEQEND
0
POLYLINE
0
VERTEX
10
-20.0162
20
185.9753
0
VERTEX
10
-21.4471
20
187.0700
0
SEQEND
0
POLYLINE
0
VERTEX
10
-21.4471
20
187.0700
0
VERTEX
10
-20.6334
20
185.4018
0
SEQEND
0
POLYLINE
0
VERTEX
10
-20.6334
20
185.4018
0
VERTEX
10
-20.8285
20
187.8370
0
SEQEND
0
POLYLINE
0
VERTEX
10
-20.8285
20
187.8370
0
VERTEX
10
-22.0067
20
185.4258
0
SEQEND
0
POLYLINE
0
VERTEX
10
-22.0067
20
185.4258
0
VERTEX
10
-19.7591
20
187.5964
0
SEQEND
0
POLYLINE
0
VERTEX
10
-19.7591
20
187.5964
0
VERTEX
10
-23.2994
20
186.7051
0
SEQEND
0
POLYLINE
0
VERTEX
10
-23.2994
20
186.7051
0
VERTEX
10
-19.4171
20
186.1427
0
SEQEND
0
POLYLINE
0
VERTEX
10
-19.4171
20
186.1427
0
VERTEX
10
-23.2416
20
188.8248
0
SEQEND
0
POLYLINE
0
VERTEX
10
-23.2416
20
188.8248
0
VERTEX
10
-20.8361
20
184.5406
0
SEQEND
0
POLYLINE
0
VERTEX
10
-20.8361
20
184.5406
0
VERTEX
10
-21.3647
20
190.2127
0
SEQEND
0
POLYLINE
0
VERTEX
10
-21.3647
20
190.2127
0
VERTEX
10
-23.6788
20
184.5634
0
SEQEND
0
POLYLINE
0
VERTEX
10
-23.6788
20
184.5634
0
VERTEX
10
-18.8859
20
189.3099
0
SEQEND
0
POLYLINE
0
VERTEX
10
-18.8859
20
189.3099
0
VERTEX
10
-25.9878
20
187.1216
0
SEQEND
0
POLYLINE
0
VERTEX
10
-25.9878
20
187.1216
0
VERTEX
10
-18.1508
20
186.1985
0
SEQEND
0
POLYLINE
0
VERTEX
10
-18.1508
20
186.1985
0
VERTEX
10
-25.5358
20
190.9881
0
SEQEND
0
POLYLINE
0
VERTEX
10
-25.5358
20
190.9881
0
VERTEX
10
-20.7116
20
183.1442
0
SEQEND
0
POLYLINE
0
VERTEX
10
-20.7116
20
183.1442
0
VERTEX
10
-21.9232
20
193.2329
0
SEQEND
0
POLYLINE
0
VERTEX
10
-21.9232
20
193.2329
0
VERTEX
10
-25.5446
20
183.1523
0
SEQEND
0
POLYLINE
0
VERTEX
10
-25.5446
20
183.1523
0
VERTEX
10
-17.5669
20
191.4654
0
SEQEND
0
POLYLINE
0
VERTEX
10
-17.5669
20
191.4654
0
VERTEX
10
-29.2017
20
187.3600
0
SEQEND
0
POLYLINE
0
VERTEX
10
-29.2017
20
187.3600
0
VERTEX
10
-16.2964
20
186.2320
0
SEQEND
0
POLYLINE
0
VERTEX
10
-16.2964
20
186.2320
0
VERTEX
10
-28.2918
20
193.4413
0
SEQEND
0
POLYLINE
0
VERTEX
10
-28.2918
20
193.4413
0
VERTEX
10
-20.2448
20
181.3377
0
SEQEND
0
POLYLINE
0
VERTEX
10
-20.2448
20
181.3377
0
VERTEX
10
-22.5695
20
196.7851
0
SEQEND
0
POLYLINE
0
VERTEX
10
-22.5695
20
196.7851
0
VERTEX
10
-27.4947
20
181.2684
0
SEQEND
0
POLYLINE
0
VERTEX
10
-27.4947
20
181.2684
0
VERTEX
10
-15.9349
20
194.0362
0
SEQEND
0
POLYLINE
0
VERTEX
10
-15.9349
20
194.0362
0
VERTEX
10
-32.8049
20
187.3880
0
SEQEND
0
POLYLINE
0
VERTEX
10
-32.8049
20
187.3880
0
VERTEX
10
-13.9655
20
186.3292
0
SEQEND
0
POLYLINE
0
VERTEX
10
-13.9655
20
186.3292
0
VERTEX
10
-31.4408
20
196.0562
0
SEQEND
0
POLYLINE
0
VERTEX
10
-31.4408
20
196.0562
0
VERTEX
10
-19.4445
20
179.2677
0
SEQEND
0
POLYLINE
0
VERTEX
10
-19.4445
20
179.2677
0
VERTEX
10
-23.3560
20
200.7282
0
SEQEND
0
POLYLINE
0
VERTEX
10
-23.3560
20
200.7282
0
VERTEX
10
-29.4204
20
179.0186
0
SEQEND
0
POLYLINE
0
VERTEX
10
-29.4204
20
179.0186
0
VERTEX
10
-14.1346
20
196.9678
0
SEQEND
0
POLYLINE
0
VERTEX
10
-14.1346
20
196.9678
0
VERTEX
10
-36.6400
20
187.1931
0
SEQEND
0
POLYLINE
0
VERTEX
10
-36.6400
20
187.1931
0
VERTEX
10
-11.2974
20
186.5661
0
SEQEND
0
POLYLINE
0
VERTEX
10
-11.2974
20
186.5661
0
VERTEX
10
-34.8858
20
198.7023
0
SEQEND
0
POLYLINE
0
VERTEX
10
-34.8858
20
198.7023
0
VERTEX
10
-18.3441
20
177.0933
0
SEQEND
0
POLYLINE
0
VERTEX
10
-18.3441
20
177.0933
0
VERTEX
10
-24.3179
20
204.9003
0
SEQEND
0
POLYLINE
0
VERTEX
10
-24.3179
20
204.9003
0
VERTEX
10
-31.2199
20
176.5351
0
SEQEND
0
POLYLINE
0
VERTEX
10
-31.2199
20
176.5351
0
VERTEX
10
-12.3138
20
200.1800
0
SEQEND
0
POLYLINE
0
VERTEX
10
-12.3138
20
200.1800
0
VERTEX
10
-40.5366
20
186.7850
0
SEQEND
0
POLYLINE
0
VERTEX
10
-40.5366
20
186.7850
0
VERTEX
10
-8.4509
20
187.0038
0
SEQEND
0
POLYLINE
0
VERTEX
10
-8.4509
20
187.0038
0
VERTEX
10
-38.5060
20
201.2552
0
SEQEND
0
POLYLINE
0
VERTEX
10
-38.5060
20
201.2552
0
VERTEX
10
-17.0007
20
174.9772
0
SEQEND
0
POLYLINE
0
VERTEX
10
-17.0007
20
174.9772
0
VERTEX
10
-25.4709
20
209.1269
0
SEQEND
0
POLYLINE
0
VERTEX
10
-25.4709
20
209.1269
0
VERTEX
10
-32.8051
20
173.9687
0
SEQEND
0
POLYLINE
0
VERTEX
10
-32.8051
20
173.9687
0
VERTEX
10
-10.6156
20
203.5707
0
SEQEND
0
POLYLINE
0
VERTEX
10
-10.6156
20
203.5707
0
VERTEX
10
-44.3211
20
186.1950
0
SEQEND
0
POLYLINE
0
VERTEX
10
-44.3211
20
186.1950
0
VERTEX
10
-5.5966
20
187.6848
0
SEQEND
0
POLYLINE
0
VERTEX
10
-5.5966
20
187.6848
0
VERTEX
10
-42.1636
20
203.6031
0
SEQEND
0
POLYLINE
0
VERTEX
10
-42.1636
20
203.6031
0
VERTEX
10
-15.4921
20
173.0769
0
SEQEND
0
POLYLINE
0
VERTEX
10
-15.4921
20
173.0769
0
VERTEX
10
-26.8091
20
213.2310
0
SEQEND
0
POLYLINE
0
VERTEX
10
-26.8091
20
213.2310
0
VERTEX
10
-34.1063
20
171.4807
0
SEQEND
0
POLYLINE
0
VERTEX
10
-34.1063
20
171.4807
0
VERTEX
10
-9.1693
20
207.0211
0
SEQEND
0
POLYLINE
0
VERTEX
10
-9.1693
20
207.0211
0
VERTEX
10
-47.8259
20
185.4751
0
SEQEND
0
POLYLINE
0
VERTEX
10
-47.8259
20
185.4751
0
VERTEX
10
-2.9069
20
188.6303
0
SEQEND
0
POLYLINE
0
VERTEX
10
-2.9069
20
188.6303
0
VERTEX
10
-45.7106
20
205.6536
0
SEQEND
0
POLYLINE
0
VERTEX
10
-45.7106
20
205.6536
0
VERTEX
10
-13.9125
20
171.5357
0
SEQEND
0
POLYLINE
0
VERTEX
10
-13.9125
20
171.5357
0
VERTEX
10
-28.3063
20
217.0424
0
SEQEND
0
POLYLINE
0
VERTEX
10
-28.3063
20
217.0424
0
VERTEX
10
-35.0761
20
169.2337
0
SEQEND
0
POLYLINE
0
VERTEX
10
-35.0761
20
169.2337
0
VERTEX
10
-8.0843
20
210.4024
0
SEQEND
0
POLYLINE
0
VERTEX
10
-8.0843
20
210.4024
0
VERTEX
10
-50.8984
20
184.6942
0
SEQEND
0
POLYLINE
0
VERTEX
10
-50.8984
20
184.6942
0
VERTEX
10
-0.5465
20
189.8394
0
SEQEND
0
POLYLINE
0
VERTEX
10
-0.5465
20
189.8394
0
VERTEX
10
-48.9977
20
207.3378
0
SEQEND
0
POLYLINE
0
VERTEX
10
-48.9977
20
207.3378
0
VERTEX
10
-12.3671
20
170.4752
0
SEQEND
0
POLYLINE
0
VERTEX
10
-12.3671
20
170.4752
0
VERTEX
10
-29.9171
20
220.4069
0
SEQEND
0
POLYLINE
0
VERTEX
10
-29.9171
20
220.4069
0
VERTEX
10
-35.6912
20
167.3830
0
SEQEND
0
POLYLINE
0
VERTEX
10
-35.6912
20
167.3830
0
VERTEX
10
-7.4442
20
213.5834
0
SEQEND
0
POLYLINE
0
VERTEX
10
-7.4442
20
213.5834
0
VERTEX
10
-53.4096
20
183.9341
0
SEQEND
0
POLYLINE
0
VERTEX
10
-53.4096
20
183.9341
0
VERTEX
10
1.3362
20
191.2897
0
SEQEND
0
POLYLINE
0
VERTEX
10
1.3362
20
191.2897
0
VERTEX
10
-51.8825
20
208.6136
0
SEQEND
0
POLYLINE
0
VERTEX
10
-51.8825
20
208.6136
0
VERTEX
10
-10.9656
20
169.9888
0
SEQEND
0
POLYLINE
0
VERTEX
10
-10.9656
20
169.9888
0
VERTEX
10
-31.5808
20
223.1951
0
SEQEND
0
POLYLINE
0
VERTEX
10
-31.5808
20
223.1951
0
VERTEX
10
-35.9528
20
166.0668
0
SEQEND
0
POLYLINE
0
VERTEX
10
-35.9528
20
166.0668
0
VERTEX
10
-7.3029
20
216.4381
0
SEQEND
0
POLYLINE
0
VERTEX
10
-7.3029
20
216.4381
0
VERTEX
10
-55.2603
20
183.2836
0
SEQEND
0
POLYLINE
0
VERTEX
10
-55.2603
20
183.2836
0
VERTEX
10
2.6180
20
192.9398
0
SEQEND
0
POLYLINE
0
VERTEX
10
2.6180
20
192.9398
0
VERTEX
10
-54.2381
20
209.4672
0
SEQEND
0
POLYLINE
0
VERTEX
10
-54.2381
20
209.4672
0
VERTEX
10
-9.8147
20
170.1377
0
SEQEND
0
POLYLINE
0
VERTEX
10
-9.8147
20
170.1377
0
VERTEX
10
-33.2257
20
225.3084
0
SEQEND
0
POLYLINE
0
VERTEX
10
-33.2257
20
225.3084
0
VERTEX
10
-35.8856
20
165.3992
0
SEQEND
0
POLYLINE
0
VERTEX
10
-35.8856
20
165.3992
0
VERTEX
10
-7.6825
20
218.8540
0
SEQEND
0
POLYLINE
0
VERTEX
10
-7.6825
20
218.8540
0
VERTEX
10
-56.3863
20
182.8326
0
SEQEND
0
POLYLINE
0
VERTEX
10
-56.3863
20
182.8326
0
VERTEX
10
3.2075
20
194.7329
0
SEQEND
0
POLYLINE
0
VERTEX
10
3.2075
20
194.7329
0
VERTEX
10
-55.9606
20
209.9120
0
SEQEND
0
POLYLINE
0
VERTEX
10
-55.9606
20
209.9120
0
VERTEX
10
-9.0116
20
170.9476
0
SEQEND
0
POLYLINE
0
VERTEX
10
-9.0116
20
170.9476
0
VERTEX
10
-34.7746
20
226.6853
0
SEQEND
0
POLYLINE
0
VERTEX
10
-34.7746
20
226.6853
0
VERTEX
10
-35.5343
20
165.4626
0
SEQEND
0
POLYLINE
0
VERTEX
10
-35.5343
20
165.4626
0
VERTEX
10
-8.5735
20
220.7387
0
SEQEND
0
POLYLINE
0
VERTEX
10
-8.5735
20
220.7387
0
VERTEX
10
-56.7610
20
182.6653
0
SEQEND
0
POLYLINE
0
VERTEX
10
-56.7610
20
182.6653
0
VERTEX
10
3.0503
20
196.6015
0
SEQEND
0
POLYLINE
0
VERTEX
10
3.0503
20
196.6015
0
VERTEX
10
-56.9760
20
209.9868
0
SEQEND
0
POLYLINE
0
VERTEX
10
-56.9760
20
209.9868
0
VERTEX
10
-8.6365
20
172.4090
0
SEQEND
0
POLYLINE
0
VERTEX
10
-8.6365
20
172.4090
0
VERTEX
10
-36.1510
20
227.3032
0
SEQEND
0
POLYLINE
0
VERTEX
10
-36.1510
20
227.3032
0
VERTEX
10
-34.9597
20
166.3031
0
SEQEND
0
POLYLINE
0
VERTEX
10
-34.9597
20
166.3031
0
VERTEX
10
-9.9365
20
222.0266
0
SEQEND
0
POLYLINE
0
VERTEX
10
-9.9365
20
222.0266
0
VERTEX
10
-56.3966
20
182.8540
0
SEQEND
0
POLYLINE
0
VERTEX
10
-56.3966
20
182.8540
0
VERTEX
10
2.1324
20
198.4732
0
SEQEND
0
POLYLINE
0
VERTEX
10
2.1324
20
198.4732
0
VERTEX
10
-57.2446
20
209.7516
0
SEQEND
0
POLYLINE
0
VERTEX
10
-57.2446
20
209.7516
0
VERTEX
10
-8.7472
20
174.4785
0
SEQEND
0
POLYLINE
0
VERTEX
10
-8.7472
20
174.4785
0
VERTEX
10
-37.2850
20
227.1803
0
SEQEND
0
POLYLINE
0
VERTEX
10
-37.2850
20
227.1803
0
VERTEX
10
-34.2335
20
167.9272
0
SEQEND
0
POLYLINE
0
VERTEX
10
-34.2335
20
167.9272
0
VERTEX
10
-11.7059
20
222.6837
0
SEQEND
0
POLYLINE
0
VERTEX
10
-11.7059
20
222.6837
0
VERTEX
10
-55.3420
20
183.4532
0
SEQEND
0
POLYLINE
0
VERTEX
10
-55.3420
20
183.4532
0
VERTEX
10
0.4803
20
200.2762
0
SEQEND
0
POLYLINE
0
VERTEX
10
0.4803
20
200.2762
0
VERTEX
10
-56.7646
20
209.2828
0
SEQEND
0
POLYLINE
0
VERTEX
10
-56.7646
20
209.2828
0
VERTEX
10
-9.3740
20
177.0822
0
SEQEND
0
POLYLINE
0
VERTEX
10
-9.3740
20
177.0822
0
VERTEX
10
-38.1189
20
226.3733
0
SEQEND
0
POLYLINE
0
VERTEX
10
-38.1189
20
226.3733
0
VERTEX
10
-33.4321
20
170.3010
0
SEQEND
0
POLYLINE
0
VERTEX
10
-33.4321
20
170.3010
0
VERTEX
10
-13.7952
20
222.7104
0
SEQEND
0
POLYLINE
0
VERTEX
10
-13.7952
20
222.7104
0
VERTEX
10
-53.6795
20
184.4945
0
SEQEND
0
POLYLINE
0
VERTEX
10
-53.6795
20
184.4945
0
VERTEX
10
-1.8398
20
201.9457
0
SEQEND
0
POLYLINE
0
VERTEX
10
-1.8398
20
201.9457
0
VERTEX
10
-55.5724
20
208.6668
0
SEQEND
0
POLYLINE
0
VERTEX
10
-55.5724
20
208.6668
0
VERTEX
10
-10.5165
20
180.1212
0
SEQEND
0
POLYLINE
0
VERTEX
10
-10.5165
20
180.1212
0
VERTEX
10
-38.6125
20
224.9743
0
SEQEND
0
POLYLINE
0
VERTEX
10
-38.6125
20
224.9743
0
VERTEX
10
-32.6310
20
173.3519
0
SEQEND
0
POLYLINE
0
VERTEX
10
-32.6310
20
173.3519
0
VERTEX
10
-16.1030
20
222.1427
0
SEQEND
0
POLYLINE
0
VERTEX
10
-16.1030
20
222.1427
0
VERTEX
10
-51.5195
20
185.9839
0
SEQEND
0
POLYLINE
0
VERTEX
10
-51.5195
20
185.9839
0
VERTEX
10
-4.7259
20
203.4286
0
SEQEND
0
POLYLINE
0
VERTEX
10
-4.7259
20
203.4286
0
VERTEX
10
-53.7419
20
207.9937
0
SEQEND
0
POLYLINE
0
VERTEX
10
-53.7419
20
207.9937
0
VERTEX
10
-12.1428
20
183.4784
0
SEQEND
0
POLYLINE
0
VERTEX
10
-12.1428
20
183.4784
0
VERTEX
10
-38.7469
20
223.1049
0
SEQEND
0
POLYLINE
0
VERTEX
10
-38.7469
20
223.1049
0
VERTEX
10
-31.8982
20
176.9719
0
SEQEND
0
POLYLINE
0
VERTEX
10
-31.8982
20
176.9719
0
VERTEX
10
-18.5199
20
221.0511
0
SEQEND
0
POLYLINE
0
VERTEX
10
-18.5199
20
221.0511
0
VERTEX
10
-48.9933
20
187.8992
0
SEQEND
0
POLYLINE
0
VERTEX
10
-48.9933
20
187.8992
0
VERTEX
10
-8.0459
20
204.6885
0
SEQEND
0
POLYLINE
0
VERTEX
10
-8.0459
20
204.6885
0
VERTEX
10
-51.3806
20
207.3510
0
SEQEND
0
POLYLINE
0
VERTEX
10
-51.3806
20
207.3510
0
VERTEX
10
-14.1891
20
187.0253
0
SEQEND
0
POLYLINE
0
VERTEX
10
-14.1891
20
187.0253
0
VERTEX
10
-38.5268
20
220.9090
0
SEQEND
0
POLYLINE
0
VERTEX
10
-38.5268
20
220.9090
0
VERTEX
10
-31.2898
20
181.0236
0
SEQEND
0
POLYLINE
0
VERTEX
10
-31.2898
20
181.0236
0
VERTEX
10
-20.9362
20
219.5377
0
SEQEND
0
POLYLINE
0
VERTEX
10
-20.9362
20
219.5377
0
VERTEX
10
-46.2453
20
190.1905
0
SEQEND
0
POLYLINE
0
VERTEX
10
-46.2453
20
190.1905
0
VERTEX
10
-11.6453
20
205.7090
0
SEQEND
0
POLYLINE
0
VERTEX
10
-11.6453
20
205.7090
0
VERTEX
10
-48.6241
20
206.8171
0
SEQEND
0
POLYLINE
0
VERTEX
10
-48.6241
20
206.8171
0
VERTEX
10
-16.5635
20
190.6305
0
SEQEND
0
POLYLINE
0
VERTEX
10
-16.5635
20
190.6305
0
VERTEX
10
-37.9817
20
218.5447
0
SEQEND
0
POLYLINE
0
VERTEX
10
-37.9817
20
218.5447
0
VERTEX
10
-30.8451
20
185.3471
0
SEQEND
0
POLYLINE
0
VERTEX
10
-30.8451
20
185.3471
0
VERTEX
10
-23.2482
20
217.7307
0
SEQEND
0
POLYLINE
0
VERTEX
10
-23.2482
20
217.7307
0
VERTEX
10
-43.4244
20
192.7815
0
SEQEND
0
POLYLINE
0
VERTEX
10
-43.4244
20
192.7815
0
VERTEX
10
-15.3551
20
206.4953
0
SEQEND
0
POLYLINE
0
VERTEX
10
-15.3551
20
206.4953
0
VERTEX
10
-45.6293
20
206.4563
0
SEQEND
0
POLYLINE
0
VERTEX
10
-45.6293
20
206.4563
0
VERTEX
10
-19.1491
20
194.1671
0
SEQEND
0
POLYLINE
0
VERTEX
10
-19.1491
20
194.1671
0
VERTEX
10
-37.1649
20
216.1750
0
SEQEND
0
POLYLINE
0
VERTEX
10
-37.1649
20
216.1750
0
VERTEX
10
-30.5838
20
189.7692
0
SEQEND
0
POLYLINE
0
VERTEX
10
-30.5838
20
189.7692
0
VERTEX
10
-25.3652
20
215.7782
0
SEQEND
0
POLYLINE
0
VERTEX
10
-25.3652
20
215.7782
0
VERTEX
10
-40.6758
20
195.5736
0
SEQEND
0
POLYLINE
0
VERTEX
10
-40.6758
20
195.5736
0
VERTEX
10
-19.0017
20
207.0746
0
SEQEND
0
POLYLINE
0
VERTEX
10
-19.0017
20
207.0746
0
VERTEX
10
-42.5656
20
206.3148
0
SEQEND
0
POLYLINE
0
VERTEX
10
-42.5656
20
206.3148
0
VERTEX
10
-21.8112
20
197.5204
0
SEQEND
0
POLYLINE
0
VERTEX
10
-21.8112
20
197.5204
0
VERTEX
10
-36.1509
20
213.9590
0
SEQEND
0
POLYLINE
0
VERTEX
10
-36.1509
20
213.9590
0
VERTEX
10
-30.5048
20
194.1124
0
SEQEND
0
POLYLINE
0
VERTEX
10
-30.5048
20
194.1124
0
VERTEX
10
-27.2139
20
213.8398
0
SEQEND
0
POLYLINE
0
VERTEX
10
-27.2139
20
213.8398
0
VERTEX
10
-38.1323
20
198.4505
0
SEQEND
0
POLYLINE
0
VERTEX
10
-38.1323
20
198.4505
0
VERTEX
10
-22.4163
20
207.4949
0
SEQEND
0
POLYLINE
0
VERTEX
10
-22.4163
20
207.4949
0
VERTEX
10
-39.6060
20
206.4176
0
SEQEND
0
POLYLINE
0
VERTEX
10
-39.6060
20
206.4176
0
VERTEX
10
-24.4037
20
200.5938
0
SEQEND
0
POLYLINE
0
VERTEX
10
-24.4037
20
200.5938
0
VERTEX
10
-35.0315
20
212.0426
0
SEQEND
0
POLYLINE
0
VERTEX
10
-35.0315
20
212.0426
0
VERTEX
10
-30.5858
20
198.2048
0
SEQEND
0
POLYLINE
0
VERTEX
10
-30.5858
20
198.2048
0
VERTEX
10
-28.7432
20
212.0780
0
SEQEND
0
POLYLINE
0
VERTEX
10
-28.7432
20
212.0780
0
VERTEX
10
-35.9076
20
201.2850
0
SEQEND
0
POLYLINE
0
VERTEX
10
-35.9076
20
201.2850
0
VERTEX
10
-25.4438
20
207.8218
0
SEQEND
0
POLYLINE
0
VERTEX
10
-25.4438
20
207.8218
0
VERTEX
10
-36.9172
20
206.7677
0
SEQEND
0
POLYLINE
0
VERTEX
10
-36.9172
20
206.7677
0
VERTEX
10
-26.7780
20
203.3138
0
SEQEND
0
POLYLINE
0
VERTEX
10
-26.7780
20
203.3138
0
VERTEX
10
-33.9102
20
210.5513
0
SEQEND
0
POLYLINE
0
VERTEX
10
-33.9102
20
210.5513
0
VERTEX
10
-30.7854
20
201.8891
0
SEQEND
0
POLYLINE
0
VERTEX
10
-30.7854
20
201.8891
0
VERTEX
10
-29.9257
20
210.6491
0
SEQEND
0
POLYLINE
0
VERTEX
10
-29.9257
20
210.6491
0
VERTEX
10
-34.0902
20
203.9464
0
SEQEND
0
POLYLINE
0
VERTEX
10
-34.0902
20
203.9464
0
VERTEX
10
-27.9514
20
208.1345
0
SEQEND
0
POLYLINE
0
VERTEX
10
-27.9514
20
208.1345
0
VERTEX
10
-34.6506
20
207.3466
0
SEQEND
0
POLYLINE
0
VERTEX
10
-34.6506
20
207.3466
0
VERTEX
10
-28.7910
20
205.6336
0
SEQEND
0
POLYLINE
0
VERTEX
10
-28.7910
20
205.6336
0
VERTEX
10
-32.8961
20
209.5834
0
SEQEND
0
POLYLINE
0
VERTEX
10
-32.8961
20
209.5834
0
VERTEX
10
-31.0464
20
205.0315
0
SEQEND
0
POLYLINE
0
VERTEX
10
-31.0464
20
205.0315
0
VERTEX
10
-30.7587
20
209.6939
0
SEQEND
0
POLYLINE
0
VERTEX
10
-30.7587
20
209.6939
0
VERTEX
10
-32.7396
20
206.3079
0
SEQEND
0
POLYLINE
0
VERTEX
10
-32.7396
20
206.3079
0
VERTEX
10
-29.8354
20
208.5201
0
SEQEND
0
POLYLINE
0
VERTEX
10
-29.8354
20
208.5201
0
VERTEX
10
-32.9339
20
208.1162
0
SEQEND
0
POLYLINE
0
VERTEX
10
-32.9339
20
208.1162
0
VERTEX
10
-30.3141
20
207.5341
0
SEQEND
0
POLYLINE
0
VERTEX
10
-30.3141
20
207.5341
0
VERTEX
10
-32.0964
20
209.2049
0
SEQEND
0
POLYLINE
0
VERTEX
10
-32.0964
20
209.2049
0
VERTEX
10
-31.2995
20
207.5286
0
SEQEND
0
POLYLINE
0
VERTEX
10
-31.2995
20
207.5286
0
VERTEX
10
-31.2632
20
209.3298
0
SEQEND
0
POLYLINE
0
VERTEX
10
-31.2632
20
209.3298
0
VERTEX
10
-31.8836
20
208.2552
0
SEQEND
0
POLYLINE
0
VERTEX
10
-31.8836
20
208.2552
0
VERTEX
10
-31.0265
20
209.0678
0
SEQEND
0
POLYLINE
0
VERTEX
10
-31.0265
20
209.0678
0
VERTEX
10
-31.8636
20
209.0225
0
SEQEND
0
POLYLINE
0
VERTEX
10
-31.8636
20
209.0225
0
VERTEX
10
-31.2406
20
209.0241
0
SEQEND
0
POLYLINE
0
VERTEX
10
-31.2406
20
209.0241
0
VERTEX
10
-31.6095
20
209.4475
0
SEQEND
0
POLYLINE
0
VERTEX
10
-31.6095
20
209.4475
0
VERTEX
10
-31.4695
20
209.3130
0
SEQEND
0
POLYLINE
0
VERTEX
10
-31.4695
20
209.3130
0
VERTEX
10
-31.4807
20
209.6438
0
SEQEND
0
POLYLINE
0
VERTEX
10
-31.4807
20
209.6438
0
VERTEX
10
-31.5183
20
209.6931
0
SEQEND
0
POLYLINE
0
VERTEX
10
-31.5183
20
209.6931
0
VERTEX
10
-31.4927
20
209.8620
0
SEQEND
0
POLYLINE
0
VERTEX
10
-31.4927
20
209.8620
0
VERTEX
10
-31.5000
20
210.0000
0
SEQEND
0
POLYLINE
0
VERTEX
10
-31.5000
20
210.0000
0
VERTEX
10
-31.4927
20
210.1380
0
SEQEND
0
POLYLINE
0
VERTEX
10
-31.4927
20
210.1380
0
VERTEX
10
-31.5183
20
210.3069
0
SEQEND
0
POLYLINE
0
VERTEX
10
-31.5183
20
210.3069
0
VERTEX
10
-31.4807
20
210.3562
0
SEQEND
0
POLYLINE
0
VERTEX
10
-31.4807
20
210.3562
0
VERTEX
10
-31.4695
20
210.6870
0
SEQEND
0
POLYLINE
0
VERTEX
10
-31.4695
20
210.6870
0
VERTEX
10
-31.6095
20
210.5525
0
SEQEND
0
POLYLINE
0
VERTEX
10
-31.6095
20
210.5525
0
VERTEX
10
-31.2406
20
210.9759
0
SEQEND
0
POLYLINE
0
VERTEX
10
-31.2406
20
210.9759
0
VERTEX
10
-31.8636
20
210.9775
0
SEQEND
0
POLYLINE
0
VERTEX
10
-31.8636
20
210.9775
0
VERTEX
10
-31.0265
20
210.9322
0
SEQEND
0
POLYLINE
0
VERTEX
10
-31.0265
20
210.9322
0
VERTEX
10
-31.8836
20
211.7448
0
SEQEND
0
POLYLINE
0
VERTEX
10
-31.8836
20
211.7448
0
VERTEX
10
-31.2632
20
210.6702
0
SEQEND
0
POLYLINE
0
VERTEX
10
-31.2632
20
210.6702
0
VERTEX
10
-31.2995
20
212.4714
0
SEQEND
0
POLYLINE
0
VERTEX
10
-31.2995
20
212.4714
0
VERTEX
10
-32.0964
20
210.7951
0
SEQEND
0
POLYLINE
0
VERTEX
10
-32.0964
20
210.7951
0
VERTEX
10
-30.3141
20
212.4659
0
SEQEND
0
POLYLINE
0
VERTEX
10
-30.3141
20
212.4659
0
VERTEX
10
-32.9339
20
211.8838
0
SEQEND
0
POLYLINE
0
VERTEX
10
-32.9339
20
211.8838
0
VERTEX
10
-29.8354
20
211.4799
0
SEQEND
0
POLYLINE
0
VERTEX
10
-29.8354
20
211.4799
0
VERTEX
10
-32.7396
20
213.6921
0
SEQEND
0
POLYLINE
0
VERTEX
10
-32.7396
20
213.6921
0
VERTEX
10
-30.7587
20
210.3061
0
SEQEND
0
POLYLINE
0
VERTEX
10
-30.7587
20
210.3061
0
VERTEX
10
-31.0464
20
214.9685
0
SEQEND
0
POLYLINE
0
VERTEX
10
-31.0464
20
214.9685
0
VERTEX
10
-32.8961
20
210.4166
0
SEQEND
0
POLYLINE
0
VERTEX
10
-32.8961
20
210.4166
0
VERTEX
10
-28.7910
20
214.3664
0
SEQEND
0
POLYLINE
0
VERTEX
10
-28.7910
20
214.3664
0
VERTEX
10
-34.6506
20
212.6534
0
SEQEND
0
POLYLINE
0
VERTEX
10
-34.6506
20
212.6534
0
VERTEX
10
-27.9514
20
211.8655
0
SEQEND
0
POLYLINE
0
VERTEX
10
-27.9514
20
211.8655
0
VERTEX
10
-34.0902
20
216.0536
0
SEQEND
0
POLYLINE
0
VERTEX
10
-34.0902
20
216.0536
0
VERTEX
10
-29.9257
20
209.3509
0
SEQEND
0
POLYLINE
0
VERTEX
10
-29.9257
20
209.3509
0
VERTEX
10
-30.7854
20
218.1109
0
SEQEND
0
POLYLINE
0
VERTEX
10
-30.7854
20
218.1109
0
VERTEX
10
-33.9102
20
209.4487
0
SEQEND
0
POLYLINE
0
VERTEX
10
-33.9102
20
209.4487
0
VERTEX
10
-26.7780
20
216.6862
0
SEQEND
0
POLYLINE
0
VERTEX
10
-26.7780
20
216.6862
0
VERTEX
10
-36.9172
20
213.2323
0
SEQEND
0
POLYLINE
0
VERTEX
10
-36.9172
20
213.2323
0
VERTEX
10
-25.4438
20
212.1782
0
SEQEND
0
POLYLINE
0
VERTEX
10
-25.4438
20
212.1782
0
VERTEX
10
-35.9076
20
218.7150
0
SEQEND
0
POLYLINE
0
VERTEX
10
-35.9076
20
218.7150
0
VERTEX
10
-28.7432
20
207.9220
0
SEQEND
0
POLYLINE
0
VERTEX
10
-28.7432
20
207.9220
0
VERTEX
10
-30.5858
20
221.7952
0
SEQEND
0
POLYLINE
0
VERTEX
10
-30.5858
20
221.7952
0
VERTEX
10
-35.0315
20
207.9574
0
SEQEND
0
POLYLINE
0
VERTEX
10
-35.0315
20
207.9574
0
VERTEX
10
-24.4037
20
219.4062
0
SEQEND
0
POLYLINE
0
VERTEX
10
-24.4037
20
219.4062
0
VERTEX
10
-39.6060
20
213.5824
0
SEQEND
0
POLYLINE
0
VERTEX
10
-39.6060
20
213.5824
0
VERTEX
10
-22.4163
20
212.5051
0
SEQEND
0
POLYLINE
0
VERTEX
10
-22.4163
20
212.5051
0
VERTEX
10
-38.1323
20
221.5495
0
SEQEND
0
POLYLINE
0
VERTEX
10
-38.1323
20
221.5495
0
VERTEX
10
-27.2139
20
206.1602
0
SEQEND
0
POLYLINE
0
VERTEX
10
-27.2139
20
206.1602
0
VERTEX
10
-30.5048
20
225.8876
0
SEQEND
0
POLYLINE
0
VERTEX
10
-30.5048
20
225.8876
0
VERTEX
10
-36.1509
20
206.0410
0
SEQEND
0
POLYLINE
0
VERTEX
10
-36.1509
20
206.0410
0
VERTEX
10
-21.8112
20
222.4796
0
SEQEND
0
POLYLINE
0
VERTEX
10
-21.8112
20
222.4796
0
VERTEX
10
-42.5656
20
213.6852
0
SEQEND
0
POLYLINE
0
VERTEX
10
-42.5656
20
213.6852
0
VERTEX
10
-19.0017
20
212.9254
0
SEQEND
0
POLYLINE
0
VERTEX
10
-19.0017
20
212.9254
0
VERTEX
10
-40.6758
20
224.4264
0
SEQEND
0
POLYLINE
0
VERTEX
10
-40.6758
20
224.4264
0
VERTEX
10
-25.3652
20
204.2218
0
SEQEND
0
POLYLINE
0
VERTEX
10
-25.3652
20
204.2218
0
VERTEX
10
-30.5838
20
230.2308
0
SEQEND
0
POLYLINE
0
VERTEX
10
-30.5838
20
230.2308
0
VERTEX
10
-37.1649
20
203.8250
0
SEQEND
0
POLYLINE
0
VERTEX
10
-37.1649
20
203.8250
0
VERTEX
10
-19.1491
20
225.8329
0
SEQEND
0
POLYLINE
0
VERTEX
10
-19.1491
20
225.8329
0
VERTEX
10
-45.6293
20
213.5437
0
SEQEND
0
POLYLINE
0
VERTEX
10
-45.6293
20
213.5437
0
VERTEX
10
-15.3551
20
213.5047
0
SEQEND
0
POLYLINE
0
VERTEX
10
-15.3551
20
213.5047
0
VERTEX
10
-43.4244
20
227.2185
0
SEQEND
0
POLYLINE
0
VERTEX
10
-43.4244
20
227.2185
0
VERTEX
10
-23.2482
20
202.2693
0
SEQEND
0
POLYLINE
0
VERTEX
10
-23.2482
20
202.2693
0
VERTEX
10
-30.8451
20
234.6529
0
SEQEND
0
POLYLINE
0
VERTEX
10
-30.8451
20
234.6529
0
VERTEX
10
-37.9817
20
201.4553
0
SEQEND
0
POLYLINE
0
VERTEX
10
-37.9817
20
201.4553
0
VERTEX
10
-16.5635
20
229.3695
0
SEQEND
0
POLYLINE
0
VERTEX
10
-16.5635
20
229.3695
0
VERTEX
10
-48.6241
20
213.1829
0
SEQEND
0
POLYLINE
0
VERTEX
10
-48.6241
20
213.1829
0
VERTEX
10
-11.6453
20
214.2910
0
SEQEND
0
POLYLINE
0
VERTEX
10
-11.6453
20
214.2910
0
VERTEX
10
-46.2453
20
229.8095
0
SEQEND
0
POLYLINE
0
VERTEX
10
-46.2453
20
229.8095
0
VERTEX
10
-20.9362
20
200.4623
0
SEQEND
0
POLYLINE
0
VERTEX
10
-20.9362
20
200.4623
0
VERTEX
10
-31.2898
20
238.9764
0
SEQEND
0
POLYLINE
0
VERTEX
10
-31.2898
20
238.9764
0
VERTEX
10
-38.5268
20
199.0910
0
SEQEND
0
POLYLINE
0
VERTEX
10
-38.5268
20
199.0910
0
VERTEX
10
-14.1891
20
232.9747
0
SEQEND
0
POLYLINE
0
VERTEX
10
-14.1891
20
232.9747
0
VERTEX
10
-51.3806
20
212.6490
0
SEQEND
0
POLYLINE
0
VERTEX
10
-51.3806
20
212.6490
0
VERTEX
10
-8.0459
20
215.3115
0
SEQEND
0
POLYLINE
0
VERTEX
10
-8.0459
20
215.3115
0
VERTEX
10
-48.9933
20
232.1008
0
SEQEND
0
POLYLINE
0
VERTEX
10
-48.9933
20
232.1008
0
VERTEX
10
-18.5199
20
198.9489
0
SEQEND
0
POLYLINE
0
VERTEX
10
-18.5199
20
198.9489
0
VERTEX
10
-31.8982
20
243.0281
0
SEQEND
0
POLYLINE
0
VERTEX
10
-31.8982
20
243.0281
0
VERTEX
10
-38.7469
20
196.8951
0
SEQEND
0
POLYLINE
0
VERTEX
10
-38.7469
20
196.8951
0
VERTEX
10
-12.1428
20
236.5216
0
SEQEND
0
POLYLINE
0
VERTEX
10
-12.1428
20
236.5216
0
VERTEX
10
-53.7419
20
212.0063
0
SEQEND
0
POLYLINE
0
VERTEX
10
-53.7419
20
212.0063
0
VERTEX
10
-4.7259
20
216.5714
0
SEQEND
0
POLYLINE
0
VERTEX
10
-4.7259
20
216.5714
0
VERTEX
10
-51.5195
20
234.0161
0
SEQEND
0
POLYLINE
0
VERTEX
10
-51.5195
20
234.0161
0
VERTEX
10
-16.1030
20
197.8573
0
SEQEND
0
POLYLINE
0
VERTEX
10
-16.1030
20
197.8573
0
VERTEX
10
-32.6310
20
246.6481
0
SEQEND
0
POLYLINE
0
VERTEX
10
-32.6310
20
246.6481
0
VERTEX
10
-38.6125
20
195.0257
0
SEQEND
0
POLYLINE
0
VERTEX
10
-38.6125
20
195.0257
0
VERTEX
10
-10.5165
20
239.8788
0
SEQEND
0
POLYLINE
0
VERTEX
10
-10.5165
20
239.8788
0
VERTEX
10
-55.5724
20
211.3332
0
SEQEND
0
POLYLINE
0
VERTEX
10
-55.5724
20
211.3332
0
VERTEX
10
-1.8398
20
218.0543
0
SEQEND
0
POLYLINE
0
VERTEX
10
-1.8398
20
218.0543
0
VERTEX
10
-53.6795
20
235.5055
0
SEQEND
0
POLYLINE
0
VERTEX
10
-53.6795
20
235.5055
0
VERTEX
10
-13.7952
20
197.2896
0
SEQEND
0
POLYLINE
0
VERTEX
10
-13.7952
20
197.2896
0
VERTEX
10
-33.4321
20
249.6990
0
SEQEND
0
POLYLINE
0
VERTEX
10
-33.4321
20
249.6990
0
VERTEX
10
-38.1189
20
193.6267
0
SEQEND
0
POLYLINE
0
VERTEX
10
-38.1189
20
193.6267
0
VERTEX
10
-9.3740
20
242.9178
0
SEQEND
0
POLYLINE
0
VERTEX
10
-9.3740
20
242.9178
0
VERTEX
10
-56.7646
20
210.7172
0
SEQEND
0
POLYLINE
0
VERTEX
10
-56.7646
20
210.7172
0
VERTEX
10
0.4803
20
219.7238
0
SEQEND
0
POLYLINE
0
VERTEX
10
0.4803
20
219.7238
0
VERTEX
10
-55.3420
20
236.5468
0
SEQEND
0
POLYLINE
0
VERTEX
10
-55.3420
20
236.5468
0
VERTEX
10
-11.7059
20
197.3163
0
SEQEND
0
POLYLINE
0
VERTEX
10
-11.7059
20
197.3163
0
VERTEX
10
-34.2335
20
252.0728
0
SEQEND
0
POLYLINE
0
VERTEX
10
-34.2335
20
252.0728
0
VERTEX
10
-37.2850
20
192.8197
0
SEQEND
0
POLYLINE
0
VERTEX
10
-37.2850
20
192.8197
0
VERTEX
10
-8.7472
20
245.5215
0
SEQEND
0
POLYLINE
0
VERTEX
10
-8.7472
20
245.5215
0
VERTEX
10
-57.2446
20
210.2484
0
SEQEND
0
POLYLINE
0
VERTEX
10
-57.2446
20
210.2484
0
VERTEX
10
2.1324
20
221.5268
0
SEQEND
0
POLYLINE
0
VERTEX
10
2.1324
20
221.5268
0
VERTEX
10
-56.3966
20
237.1460
0
SEQEND
0
POLYLINE
0
VERTEX
10
-56.3966
20
237.1460
0
VERTEX
10
-9.9365
20
197.9734
0
SEQEND
0
POLYLINE
0
VERTEX
10
-9.9365
20
197.9734
0
VERTEX
10
-34.9597
20
253.6969
0
SEQEND
0
POLYLINE
0
VERTEX
10
-34.9597
20
253.6969
0
VERTEX
10
-36.1510
20
192.6968
0
SEQEND
0
POLYLINE
0
VERTEX
10
-36.1510
20
192.6968
0
VERTEX
10
-8.6365
20
247.5910
0
SEQEND
0
POLYLINE
0
VERTEX
10
-8.6365
20
247.5910
0
VERTEX
10
-56.9760
20
210.0132
0
SEQEND
0
POLYLINE
0
VERTEX
10
-56.9760
20
210.0132
0
VERTEX
10
3.0503
20
223.3985
0
SEQEND
0
POLYLINE
0
VERTEX
10
3.0503
20
223.3985
0
VERTEX
10
-56.7610
20
237.3347
0
SEQEND
0
POLYLINE
0
VERTEX
10
-56.7610
20
237.3347
0
VERTEX
10
-8.5735
20
199.2613
0
SEQEND
0
POLYLINE
0
VERTEX
10
-8.5735
20
199.2613
0
VERTEX
10
-35.5343
20
254.5374
0
SEQEND
0
POLYLINE
0
VERTEX
10
-35.5343
20
254.5374
0
VERTEX
10
-34.7746
20
193.3147
0
SEQEND
0
POLYLINE
0
VERTEX
10
-34.7746
20
193.3147
0
VERTEX
10
-9.0116
20
249.0524
0
SEQEND
0
POLYLINE
0
VERTEX
10
-9.0116
20
249.0524
0
VERTEX
10
-55.9606
20
210.0880
0
SEQEND
0
POLYLINE
0
VERTEX
10
-55.9606
20
210.0880
0
VERTEX
10
3.2075
20
225.2671
0
SEQEND
0
POLYLINE
0
VERTEX
10
3.2075
20
225.2671
0
VERTEX
10
-56.3863
20
237.1674
0
SEQEND
0
POLYLINE
0
VERTEX
10
-56.3863
20
237.1674
0
VERTEX
10
-7.6825
20
201.1460
0
SEQEND
0
POLYLINE
0
VERTEX
10
-7.6825
20
201.1460
0
VERTEX
10
-35.8856
20
254.6008
0
SEQEND
0
POLYLINE
0
VERTEX
10
-35.8856
20
254.6008
0
VERTEX
10
-33.2257
20
194.6916
0
SEQEND
0
POLYLINE
0
VERTEX
10
-33.2257
20
194.6916
0
VERTEX
10
-9.8147
20
249.8623
0
SEQEND
0
POLYLINE
0
VERTEX
10
-9.8147
20
249.8623
0
VERTEX
10
-54.2381
20
210.5328
0
SEQEND
0
POLYLINE
0
VERTEX
10
-54.2381
20
210.5328
0
VERTEX
10
2.6180
20
227.0602
0
SEQEND
0
POLYLINE
0
VERTEX
10
2.6180
20
227.0602
0
VERTEX
10
-55.2603
20
236.7164
0
SEQEND
0
POLYLINE
0
VERTEX
10
-55.2603
20
236.7164
0
VERTEX
10
-7.3029
20
203.5619
0
SEQEND
0
POLYLINE
0
VERTEX
10
-7.3029
20
203.5619
0
VERTEX
10
-35.9528
20
253.9332
0
SEQEND
0
POLYLINE
0
VERTEX
10
-35.9528
20
253.9332
0
VERTEX
10
-31.5808
20
196.8049
0
SEQEND
0
POLYLINE
0
VERTEX
10
-31.5808
20
196.8049
0
VERTEX
10
-10.9656
20
250.0112
0
SEQEND
0
POLYLINE
0
VERTEX
10
-10.9656
20
250.0112
0
VERTEX
10
-51.8825
20
211.3864
0
SEQEND
0
POLYLINE
0
VERTEX
10
-51.8825
20
211.3864
0
VERTEX
10
1.3362
20
228.7103
0
SEQEND
0
POLYLINE
0
VERTEX
10
1.3362
20
228.7103
0
VERTEX
10
-53.4096
20
236.0659
0
SEQEND
0
POLYLINE
0
VERTEX
10
-53.4096
20
236.0659
0
VERTEX
10
-7.4442
20
206.4166
0
SEQEND
0
POLYLINE
0
VERTEX
10
-7.4442
20
206.4166
0
VERTEX
10
-35.6912
20
252.6170
0
SEQEND
0
POLYLINE
0
VERTEX
10
-35.6912
20
252.6170
0
VERTEX
10
-29.9171
20
199.5931
0
SEQEND
0
POLYLINE
0
VERTEX
10
-29.9171
20
199.5931
0
VERTEX
10
-12.3671
20
249.5248
0
SEQEND
0
POLYLINE
0
VERTEX
10
-12.3671
20
249.5248
0
VERTEX
10
-48.9977
20
212.6622
0
SEQEND
0
POLYLINE
0
VERTEX
10
-48.9977
20
212.6622
0
VERTEX
10
-0.5465
20
230.1606
0
SEQEND
0
POLYLINE
0
VERTEX
10
-0.5465
20
230.1606
0
VERTEX
10
-50.8984
20
235.3058
0
SEQEND
0
POLYLINE
0
VERTEX
10
-50.8984
20
235.3058
0
VERTEX
10
-8.0843
20
209.5976
0
SEQEND
0
POLYLINE
0
VERTEX
10
-8.0843
20
209.5976
0
VERTEX
10
-35.0761
20
250.7663
0
SEQEND
0
POLYLINE
0
VERTEX
10
-35.0761
20
250.7663
0
VERTEX
10
-28.3063
20
202.9576
0
SEQEND
0
POLYLINE
0
VERTEX
10
-28.3063
20
202.9576
0
VERTEX
10
-13.9125
20
248.4643
0
SEQEND
0
POLYLINE
0
VERTEX
10
-13.9125
20
248.4643
0
VERTEX
10
-45.7106
20
214.3464
0
SEQEND
0
POLYLINE
0
VERTEX
10
-45.7106
20
214.3464
0
VERTEX
10
-2.9069
20
231.3697
0
SEQEND
0
POLYLINE
0
VERTEX
10
-2.9069
20
231.3697
0
VERTEX
10
-47.8259
20
234.5249
0
SEQEND
0
POLYLINE
0
VERTEX
10
-47.8259
20
234.5249
0
VERTEX
10
-9.1693
20
212.9789
0
SEQEND
0
POLYLINE
0
VERTEX
10
-9.1693
20
212.9789
0
VERTEX
10
-34.1063
20
248.5193
0
SEQEND
0
POLYLINE
0
VERTEX
10
-34.1063
20
248.5193
0
VERTEX
10
-26.8091
20
206.7690
0
SEQEND
0
POLYLINE
0
VERTEX
10
-26.8091
20
206.7690
0
VERTEX
10
-15.4921
20
246.9231
0
SEQEND
0
POLYLINE
0
VERTEX
10
-15.4921
20
246.9231
0
VERTEX
10
-42.1636
20
216.3969
0
SEQEND
0
POLYLINE
0
VERTEX
10
-42.1636
20
216.3969
0
VERTEX
10
-5.5966
20
232.3152
0
SEQEND
0
POLYLINE
0
VERTEX
10
-5.5966
20
232.3152
0
VERTEX
10
-44.3211
20
233.8050
0
SEQEND
0
POLYLINE
0
VERTEX
10
-44.3211
20
233.8050
0
VERTEX
10
-10.6156
20
216.4293
0
SEQEND
0
POLYLINE
0
VERTEX
10
-10.6156
20
216.4293
0
VERTEX
10
-32.8051
20
246.0313
0
SEQEND
0
POLYLINE
0
VERTEX
10
-32.8051
20
246.0313
0
VERTEX
10
-25.4709
20
210.8731
0
SEQEND
0
POLYLINE
0
VERTEX
10
-25.4709
20
210.8731
0
VERTEX
10
-17.0007
20
245.0228
0
SEQEND
0
POLYLINE
0
VERTEX
10
-17.0007
20
245.0228
0
VERTEX
10
-38.5060
20
218.7448
0
SEQEND
0
POLYLINE
0
VERTEX
10
-38.5060
20
218.7448
0
VERTEX
10
-8.4509
20
232.9962
0
SEQEND
0
POLYLINE
0
VERTEX
10
-8.4509
20
232.9962
0
VERTEX
10
-40.5366
20
233.2150
0
SEQEND
0
POLYLINE
0
VERTEX
10
-40.5366
20
233.2150
0
VERTEX
10
-12.3138
20
219.8200
0
SEQEND
0
POLYLINE
0
VERTEX
10
-12.3138
20
219.8200
0
VERTEX
10
-31.2199
20
243.4649
0
SEQEND
0
POLYLINE
0
VERTEX
10
-31.2199
20
243.4649
0
VERTEX
10
-24.3179
20
215.0997
0
SEQEND
0
POLYLINE
0
VERTEX
10
-24.3179
20
215.0997
0
VERTEX
10
-18.3441
20
242.9067
0
SEQEND
0
POLYLINE
0
VERTEX
10
-18.3441
20
242.9067
0
VERTEX
10
-34.8858
20
221.2977
0
SEQEND
0
POLYLINE
0
VERTEX
10
-34.8858
20
221.2977
0
VERTEX
10
-11.2974
20
233.4339
0
SEQEND
0
POLYLINE
0
VERTEX
10
-11.2974
20
233.4339
0
VERTEX
10
-36.6400
20
232.8069
0
SEQEND
0
POLYLINE
0
VERTEX
10
-36.6400
20
232.8069
0
VERTEX
10
-14.1346
20
223.0322
0
SEQEND
0
POLYLINE
0
VERTEX
10
-14.1346
20
223.0322
0
VERTEX
10
-29.4204
20
240.9814
0
SEQEND
0
POLYLINE
0
VERTEX
10
-29.4204
20
240.9814
0
VERTEX
10
-23.3560
20
219.2718
0
SEQEND
0
POLYLINE
0
VERTEX
10
-23.3560
20
219.2718
0
VERTEX
10
-19.4445
20
240.7323
0
SEQEND
0
POLYLINE
0
VERTEX
10
-19.4445
20
240.7323
0
VERTEX
10
-31.4408
20
223.9438
0
SEQEND
0
POLYLINE
0
VERTEX
10
-31.4408
20
223.9438
0
VERTEX
10
-13.9655
20
233.6708
0
SEQEND
0
POLYLINE
0
VERTEX
10
-13.9655
20
233.6708
0
VERTEX
10
-32.8049
20
232.6120
0
SEQEND
0
POLYLINE
0
VERTEX
10
-32.8049
20
232.6120
0
VERTEX
10
-15.9349
20
225.9638
0
SEQEND
0
POLYLINE
0
VERTEX
10
-15.9349
20
225.9638
0
VERTEX
10
-27.4947
20
238.7316
0
SEQEND
0
POLYLINE
0
VERTEX
10
-27.4947
20
238.7316
0
VERTEX
10
-22.5695
20
223.2149
0
SEQEND
0
POLYLINE
0
VERTEX
10
-22.5695
20
223.2149
0
VERTEX
10
-20.2448
20
238.6623
0
SEQEND
0
POLYLINE
0
VERTEX
10
-20.2448
20
238.6623
0
VERTEX
10
-28.2918
20
226.5587
0
SEQEND
0
POLYLINE
0
VERTEX
10
-28.2918
20
226.5587
0
VERTEX
10
-16.2964
20
233.7680
0
SEQEND
0
POLYLINE
0
VERTEX
10
-16.2964
20
233.7680
0
VERTEX
10
-29.2017
20
232.6400
0
SEQEND
0
POLYLINE
0
VERTEX
10
-29.2017
20
232.6400
0
VERTEX
10
-17.5669
20
228.5346
0
SEQEND
0
POLYLINE
0
VERTEX
10
-17.5669
20
228.5346
0
VERTEX
10
-25.5446
20
236.8477
0
SEQEND
0
POLYLINE
0
VERTEX
10
-25.5446
20
236.8477
0
VERTEX
10
-21.9232
20
226.7671
0
SEQEND
0
POLYLINE
0
VERTEX
10
-21.9232
20
226.7671
0
VERTEX
10
-20.7116
20
236.8558
0
SEQEND
0
POLYLINE
0
VERTEX
10
-20.7116
20
236.8558
0
VERTEX
10
-25.5358
20
229.0119
0
SEQEND
0
POLYLINE
0
VERTEX
10
-25.5358
20
229.0119
0
VERTEX
10
-18.1508
20
233.8015
0
SEQEND
0
POLYLINE
0
VERTEX
10
-18.1508
20
233.8015
0
VERTEX
10
-25.9878
20
232.8784
0
SEQEND
0
POLYLINE
0
VERTEX
10
-25.9878
20
232.8784
0
VERTEX
10
-18.8859
20
230.6901
0
SEQEND
0
POLYLINE
0
VERTEX
10
-18.8859
20
230.6901
0
VERTEX
10
-23.6788
20
235.4366
0
SEQEND
0
POLYLINE
0
VERTEX
10
-23.6788
20
235.4366
0
VERTEX
10
-21.3647
20
229.7873
0
SEQEND
0
POLYLINE
0
VERTEX
10
-21.3647
20
229.7873
0
VERTEX
10
-20.8361
20
235.4594
0
SEQEND
0
POLYLINE
0
VERTEX
10
-20.8361
20
235.4594
0
VERTEX
10
-23.2416
20
231.1752
0
SEQEND
0
POLYLINE
0
VERTEX
10
-23.2416
20
231.1752
0
VERTEX
10
-19.4171
20
233.8573
0
SEQEND
0
POLYLINE
0
VERTEX
10
-19.4171
20
233.8573
0
VERTEX
10
-23.2994
20
233.2949
0
SEQEND
0
POLYLINE
0
VERTEX
10
-23.2994
20
233.2949
0
VERTEX
10
-19.7591
20
232.4036
0
SEQEND
0
POLYLINE
0
VERTEX
10
-19.7591
20
232.4036
0
VERTEX
10
-22.0067
20
234.5742
0
SEQEND
0
POLYLINE
0
VERTEX
10
-22.0067
20
234.5742
0
VERTEX
10
-20.8285
20
232.1630
0
SEQEND
0
POLYLINE
0
VERTEX
10
-20.8285
20
232.1630
0
VERTEX
10
-20.6334
20
234.5982
0
SEQEND
0
POLYLINE
0
VERTEX
10
-20.6334
20
234.5982
0
VERTEX
10
-21.4471
20
232.9300
0
SEQEND
0
POLYLINE
0
VERTEX
10
-21.4471
20
232.9300
0
VERTEX
10
-20.0162
20
234.0247
0
SEQEND
0
POLYLINE
0
VERTEX
10
-20.0162
20
234.0247
0
VERTEX
10
-21.2433
20
233.8398
0
SEQEND
0
POLYLINE
0
VERTEX
10
-21.2433
20
233.8398
0
VERTEX
10
-20.0735
20
233.6763
0
SEQEND
0
POLYLINE
0
VERTEX
10
-20.0735
20
233.6763
0
VERTEX
10
-20.6309
20
234.3025
0
SEQEND
0
POLYLINE
0
VERTEX
10
-20.6309
20
234.3025
0
VERTEX
10
-20.2412
20
233.8164
0
SEQEND
0
POLYLINE
0
VERTEX
10
-20.2412
20
233.8164
0
VERTEX
10
-20.1402
20
234.3688
0
SEQEND
0
POLYLINE
0
VERTEX
10
-20.1402
20
234.3688
0
VERTEX
10
-20.1580
20
234.1755
0
SEQEND
0
POLYLINE
0
VERTEX
10
-20.1580
20
234.1755
0
VERTEX
10
-19.9063
20
234.3905
0
SEQEND
0
POLYLINE
0
VERTEX
10
-19.9063
20
234.3905
0
VERTEX
10
-19.8913
20
234.4507
0
SEQEND
0
POLYLINE
0
VERTEX
10
-19.8913
20
234.4507
0
VERTEX
10
-19.7433
20
234.5359
0
SEQEND
0
POLYLINE
0
VERTEX
10
-19.7433
20
234.5359
0
VERTEX
10
-19.6399
20
234.6277
0
SEQEND
0
POLYLINE
0
VERTEX
10
-19.6399
20
234.6277
0
VERTEX
10
-19.5274
20
234.7080
0
SEQEND
0
POLYLINE
0
VERTEX
10
-19.5274
20
234.7080
0
VERTEX
10
-19.4114
20
234.8333
0
SEQEND
0
POLYLINE
0
VERTEX
10
-19.4114
20
234.8333
0
VERTEX
10
-19.3494
20
234.8347
0
SEQEND
0
POLYLINE
0
VERTEX
10
-19.3494
20
234.8347
0
VERTEX
10
-19.0838
20
235.0322
0
SEQEND
0
POLYLINE
0
VERTEX
10
-19.0838
20
235.0322
0
VERTEX
10
-19.2762
20
235.0578
0
SEQEND
0
POLYLINE
0
VERTEX
10
-19.2762
20
235.0578
0
VERTEX
10
-18.7152
20
235.0333
0
SEQEND
0
POLYLINE
0
VERTEX
10
-18.7152
20
235.0333
0
VERTEX
10
-19.1024
20
235.5214
0
SEQEND
0
POLYLINE
0
VERTEX
10
-19.1024
20
235.5214
0
VERTEX
10
-18.6159
20
234.8387
0
SEQEND
0
POLYLINE
0
VERTEX
10
-18.6159
20
234.8387
0
VERTEX
10
-18.5150
20
236.0155
0
SEQEND
0
POLYLINE
0
VERTEX
10
-18.5150
20
236.0155
0
VERTEX
10
-18.9683
20
234.8604
0
SEQEND
0
POLYLINE
0
VERTEX
10
-18.9683
20
234.8604
0
VERTEX
10
-17.5827
20
236.0118
0
SEQEND
0
POLYLINE
0
VERTEX
10
-17.5827
20
236.0118
0
VERTEX
10
-19.3902
20
235.5897
0
SEQEND
0
POLYLINE
0
VERTEX
10
-19.3902
20
235.5897
0
VERTEX
10
-16.9726
20
235.2380
0
SEQEND
0
POLYLINE
0
VERTEX
10
-16.9726
20
235.2380
0
VERTEX
10
-19.0611
20
236.9232
0
SEQEND
0
POLYLINE
0
VERTEX
10
-19.0611
20
236.9232
0
VERTEX
10
-17.4451
20
234.2489
0
SEQEND
0
POLYLINE
0
VERTEX
10
-17.4451
20
234.2489
0
VERTEX
10
-17.5263
20
237.8988
0
SEQEND
0
POLYLINE
0
VERTEX
10
-17.5263
20
237.8988
0
VERTEX
10
-18.9385
20
234.2390
0
SEQEND
0
POLYLINE
0
VERTEX
10
-18.9385
20
234.2390
0
VERTEX
10
-15.4725
20
237.3708
0
SEQEND
0
POLYLINE
0
VERTEX
10
-15.4725
20
237.3708
0
VERTEX
10
-20.1847
20
235.9790
0
SEQEND
0
POLYLINE
0
VERTEX
10
-20.1847
20
235.9790
0
VERTEX
10
-14.5371
20
235.2321
0
SEQEND
0
POLYLINE
0
VERTEX
10
-14.5371
20
235.2321
0
VERTEX
10
-19.5298
20
238.7453
0
SEQEND
0
POLYLINE
0
VERTEX
10
-19.5298
20
238.7453
0
VERTEX
10
-15.9689
20
233.0164
0
SEQEND
0
POLYLINE
0
VERTEX
10
-15.9689
20
233.0164
0
VERTEX
10
-16.5220
20
240.4272
0
SEQEND
0
POLYLINE
0
VERTEX
10
-16.5220
20
240.4272
0
VERTEX
10
-19.1659
20
232.9921
0
SEQEND
0
POLYLINE
0
VERTEX
10
-19.1659
20
232.9921
0
VERTEX
10
-12.8530
20
239.1261
0
SEQEND
0
POLYLINE
0
VERTEX
10
-12.8530
20
239.1261
0
VERTEX
10
-21.5737
20
236.1683
0
SEQEND
0
POLYLINE
0
VERTEX
10
-21.5737
20
236.1683
0
VERTEX
10
-11.4683
20
235.1046
0
SEQEND
0
POLYLINE
0
VERTEX
10
-11.4683
20
235.1046
0
VERTEX
10
-20.4904
20
240.8783
0
SEQEND
0
POLYLINE
0
VERTEX
10
-20.4904
20
240.8783
0
VERTEX
10
-14.1609
20
231.2508
0
SEQEND
0
POLYLINE
0
VERTEX
10
-14.1609
20
231.2508
0
VERTEX
10
-15.5744
20
243.5074
0
SEQEND
0
POLYLINE
0
VERTEX
10
-15.5744
20
243.5074
0
VERTEX
10
-19.5458
20
231.1767
0
SEQEND
0
POLYLINE
0
VERTEX
10
-19.5458
20
231.1767
0
VERTEX
10
-9.8480
20
241.2671
0
SEQEND
0
POLYLINE
0
VERTEX
10
-9.8480
20
241.2671
0
VERTEX
10
-23.4387
20
236.1152
0
SEQEND
0
POLYLINE
0
VERTEX
10
-23.4387
20
236.1152
0
VERTEX
10
-7.8614
20
234.9442
0
SEQEND
0
POLYLINE
0
VERTEX
10
-7.8614
20
234.9442
0
VERTEX
10
-21.8931
20
243.1988
0
SEQEND
0
POLYLINE
0
VERTEX
10
-21.8931
20
243.1988
0
VERTEX
10
-12.0177
20
229.0877
0
SEQEND
0
POLYLINE
0
VERTEX
10
-12.0177
20
229.0877
0
VERTEX
10
-14.7453
20
247.0140
0
SEQEND
0
POLYLINE
0
VERTEX
10
-14.7453
20
247.0140
0
VERTEX
10
-19.9697
20
228.8826
0
SEQEND
0
POLYLINE
0
VERTEX
10
-19.9697
20
228.8826
0
VERTEX
10
-6.5980
20
243.7553
0
SEQEND
0
POLYLINE
0
VERTEX
10
-6.5980
20
243.7553
0
VERTEX
10
-25.6350
20
235.7955
0
SEQEND
0
POLYLINE
0
VERTEX
10
-25.6350
20
235.7955
0
VERTEX
10
-3.8421
20
234.8335
0
SEQEND
0
POLYLINE
0
VERTEX
10
-3.8421
20
234.8335
0
VERTEX
10
-23.6580
20
245.5768
0
SEQEND
0
POLYLINE
0
VERTEX
10
-23.6580
20
245.5768
0
VERTEX
10
-9.5602
20
226.6801
0
SEQEND
0
POLYLINE
0
VERTEX
10
-9.5602
20
226.6801
0
VERTEX
10
-14.0819
20
250.7963
0
SEQEND
0
POLYLINE
0
VERTEX
10
-14.0819
20
250.7963
0
VERTEX
10
-20.3325
20
226.2287
0
SEQEND
0
POLYLINE
0
VERTEX
10
-20.3325
20
226.2287
0
VERTEX
10
-3.2516
20
246.5251
0
SEQEND
0
POLYLINE
0
VERTEX
10
-3.2516
20
246.5251
0
VERTEX
10
-27.9998
20
235.2066
0
SEQEND
0
POLYLINE
0
VERTEX
10
-27.9998
20
235.2066
0
VERTEX
10
0.4394
20
234.8430
0
SEQEND
0
POLYLINE
0
VERTEX
10
0.4394
20
234.8430
0
VERTEX
10
-25.6788
20
247.8838
0
SEQEND
0
POLYLINE
0
VERTEX
10
-25.6788
20
247.8838
0
VERTEX
10
-6.8337
20
224.1903
0
SEQEND
0
POLYLINE
0
VERTEX
10
-6.8337
20
224.1903
0
VERTEX
10
-13.6127
20
254.6861
0
SEQEND
0
POLYLINE
0
VERTEX
10
-13.6127
20
254.6861
0
VERTEX
10
-20.5391
20
223.3562
0
SEQEND
0
POLYLINE
0
VERTEX
10
-20.5391
20
223.3562
0
VERTEX
10
0.0428
20
249.4865
0
SEQEND
0
POLYLINE
0
VERTEX
10
0.0428
20
249.4865
0
VERTEX
10
-30.3617
20
234.3678
0
SEQEND
0
POLYLINE
0
VERTEX
10
-30.3617
20
234.3678
0
VERTEX
10
4.8166
20
235.0265
0
SEQEND
0
POLYLINE
0
VERTEX
10
4.8166
20
235.0265
0
VERTEX
10
-27.8281
20
250.0004
0
SEQEND
0
POLYLINE
0
VERTEX
10
-27.8281
20
250.0004
0
VERTEX
10
-3.9059
20
221.7801
0
SEQEND
0
POLYLINE
0
VERTEX
10
-3.9059
20
221.7801
0
VERTEX
10
-13.3457
20
258.5070
0
SEQEND
0
POLYLINE
0
VERTEX
10
-13.3457
20
258.5070
0
VERTEX
10
-20.5103
20
220.4219
0
SEQEND
0
POLYLINE
0
VERTEX
10
-20.5103
20
220.4219
0
VERTEX
10
3.1458
20
252.5299
0
SEQEND
0
POLYLINE
0
VERTEX
10
3.1458
20
252.5299
0
VERTEX
10
-32.5501
20
233.3198
0
SEQEND
0
POLYLINE
0
VERTEX
10
-32.5501
20
233.3198
0
VERTEX
10
9.1156
20
235.4180
0
SEQEND
0
POLYLINE
0
VERTEX
10
9.1156
20
235.4180
0
VERTEX
10
-29.9642
20
251.8226
0
SEQEND
0
POLYLINE
0
VERTEX
10
-29.9642
20
251.8226
0
VERTEX
10
-0.8639
20
219.6022
0
SEQEND
0
POLYLINE
0
VERTEX
10
-0.8639
20
219.6022
0
VERTEX
10
-13.2677
20
262.0841
0
SEQEND
0
POLYLINE
0
VERTEX
10
-13.2677
20
262.0841
0
VERTEX
10
-20.1871
20
217.5892
0
SEQEND
0
POLYLINE
0
VERTEX
10
-20.1871
20
217.5892
0
VERTEX
10
5.9342
20
255.5317
0
SEQEND
0
POLYLINE
0
VERTEX
10
5.9342
20
255.5317
0
VERTEX
10
-34.4041
20
232.1228
0
SEQEND
0
POLYLINE
0
VERTEX
10
-34.4041
20
232.1228
0
VERTEX
10
13.1645
20
236.0295
0
SEQEND
0
POLYLINE
0
VERTEX
10
13.1645
20
236.0295
0
VERTEX
10
-31.9390
20
253.2680
0
SEQEND
0
POLYLINE
0
VERTEX
10
-31.9390
20
253.2680
0
VERTEX
10
2.1912
20
217.7921
0
SEQEND
0
POLYLINE
0
VERTEX
10
2.1912
20
217.7921
0
VERTEX
10
-13.3454
20
265.2534
0
SEQEND
0
POLYLINE
0
VERTEX
10
-13.3454
20
265.2534
0
VERTEX
10
-19.5335
20
215.0190
0
SEQEND
0
POLYLINE
0
VERTEX
10
-19.5335
20
215.0190
0
VERTEX
10
8.3076
20
258.3616
0
SEQEND
0
POLYLINE
0
VERTEX
10
8.3076
20
258.3616
0
VERTEX
10
-35.7819
20
230.8521
0
SEQEND
0
POLYLINE
0
VERTEX
10
-35.7819
20
230.8521
0
VERTEX
10
16.8032
20
236.8513
0
SEQEND
0
POLYLINE
0
VERTEX
10
16.8032
20
236.8513
0
VERTEX
10
-33.6065
20
254.2795
0
SEQEND
0
POLYLINE
0
VERTEX
10
-33.6065
20
254.2795
0
VERTEX
10
5.1500
20
216.4602
0
SEQEND
0
POLYLINE
0
VERTEX
10
5.1500
20
216.4602
0
VERTEX
10
-13.5277
20
267.8708
0
SEQEND
0
POLYLINE
0
VERTEX
10
-13.5277
20
267.8708
0
VERTEX
10
-18.5386
20
212.8608
0
SEQEND
0
POLYLINE
0
VERTEX
10
-18.5386
20
212.8608
0
VERTEX
10
10.1933
20
260.8902
0
SEQEND
0
POLYLINE
0
VERTEX
10
10.1933
20
260.8902
0
VERTEX
10
-36.5679
20
229.5940
0
SEQEND
0
POLYLINE
0
VERTEX
10
-36.5679
20
229.5940
0
VERTEX
10
19.8916
20
237.8528
0
SEQEND
0
POLYLINE
0
VERTEX
10
19.8916
20
237.8528
0
VERTEX
10
-34.8314
20
254.8275
0
SEQEND
0
POLYLINE
0
VERTEX
10
-34.8314
20
254.8275
0
VERTEX
10
7.9018
20
215.6872
0
SEQEND
0
POLYLINE
0
VERTEX
10
7.9018
20
215.6872
0
VERTEX
10
-13.7500
20
269.8198
0
SEQEND
0
POLYLINE
0
VERTEX
10
-13.7500
20
269.8198
0
VERTEX
10
-17.2150
20
211.2439
0
SEQEND
0
POLYLINE
0
VERTEX
10
-17.2150
20
211.2439
0
VERTEX
10
11.5496
20
262.9968
0
SEQEND
0
POLYLINE
0
VERTEX
10
11.5496
20
262.9968
0
VERTEX
10
-36.6789
20
228.4389
0
SEQEND
0
POLYLINE
0
VERTEX
10
-36.6789
20
228.4389
0
VERTEX
10
22.3180
20
238.9862
0
SEQEND
0
POLYLINE
0
VERTEX
10
22.3180
20
238.9862
0
VERTEX
10
-35.4972
20
254.9105
0
SEQEND
0
POLYLINE
0
VERTEX
10
-35.4972
20
254.9105
0
VERTEX
10
10.3415
20
215.5197
0
SEQEND
0
POLYLINE
0
VERTEX
10
10.3415
20
215.5197
0
VERTEX
10
-13.9392
20
271.0179
0
SEQEND
0
POLYLINE
0
VERTEX
10
-13.9392
20
271.0179
0
VERTEX
10
-15.5981
20
210.2702
0
SEQEND
0
POLYLINE
0
VERTEX
10
-15.5981
20
210.2702
0
VERTEX
10
12.3666
20
264.5772
0
SEQEND
0
POLYLINE
0
VERTEX
10
12.3666
20
264.5772
0
VERTEX
10
-36.0680
20
227.4756
0
SEQEND
0
POLYLINE
0
VERTEX
10
-36.0680
20
227.4756
0
VERTEX
10
24.0050
20
240.1899
0
SEQEND
0
POLYLINE
0
VERTEX
10
24.0050
20
240.1899
0
VERTEX
10
-35.5136
20
254.5539
0
SEQEND
0
POLYLINE
0
VERTEX
10
-35.5136
20
254.5539
0
VERTEX
10
12.3772
20
215.9690
0
SEQEND
0
POLYLINE
0
VERTEX
10
12.3772
20
215.9690
0
VERTEX
10
-14.0188
20
271.4205
0
SEQEND
0
POLYLINE
0
VERTEX
10
-14.0188
20
271.4205
0
VERTEX
10
-13.7413
20
210.0076
0
SEQEND
0
POLYLINE
0
VERTEX
10
-13.7413
20
210.0076
0
VERTEX
10
12.6654
20
265.5504
0
SEQEND
0
POLYLINE
0
VERTEX
10
12.6654
20
265.5504
0
VERTEX
10
-34.7267
20
226.7848
0
SEQEND
0
POLYLINE
0
VERTEX
10
-34.7267
20
226.7848
0
VERTEX
10
24.9138
20
241.3943
0
SEQEND
0
POLYLINE
0
VERTEX
10
24.9138
20
241.3943
0
VERTEX
10
-34.8221
20
253.8067
0
SEQEND
0
POLYLINE
0
VERTEX
10
-34.8221
20
253.8067
0
VERTEX
10
13.9361
20
217.0112
0
SEQEND
0
POLYLINE
0
VERTEX
10
13.9361
20
217.0112
0
VERTEX
10
-13.9159
20
271.0232
0
SEQEND
0
POLYLINE
0
VERTEX
10
-13.9159
20
271.0232
0
VERTEX
10
-11.7123
20
210.4861
0
SEQEND
0
POLYLINE
0
VERTEX
10
-11.7123
20
210.4861
0
VERTEX
10
12.4960
20
265.8646
0
SEQEND
0
POLYLINE
0
VERTEX
10
12.4960
20
265.8646
0
VERTEX
10
-32.6845
20
226.4322
0
SEQEND
0
POLYLINE
0
VERTEX
10
-32.6845
20
226.4322
0
VERTEX
10
25.0462
20
242.5272
0
SEQEND
0
POLYLINE
0
VERTEX
10
25.0462
20
242.5272
0
VERTEX
10
-33.4003
20
252.7373
0
SEQEND
0
POLYLINE
0
VERTEX
10
-33.4003
20
252.7373
0
VERTEX
10
14.9705
20
218.5901
0
SEQEND
0
POLYLINE
0
VERTEX
10
14.9705
20
218.5901
0
VERTEX
10
-13.5665
20
269.8617
0
SEQEND
0
POLYLINE
0
VERTEX
10
-13.5665
20
269.8617
0
VERTEX
10
-9.5868
20
211.6955
0
SEQEND
0
POLYLINE
0
VERTEX
10
-9.5868
20
211.6955
0
VERTEX
10
11.9321
20
265.5009
0
SEQEND
0
POLYLINE
0
VERTEX
10
11.9321
20
265.5009
0
VERTEX
10
-30.0066
20
226.4639
0
SEQEND
0
POLYLINE
0
VERTEX
10
-30.0066
20
226.4639
0
VERTEX
10
24.4451
20
243.5198
0
SEQEND
0
POLYLINE
0
VERTEX
10
24.4451
20
243.5198
0
VERTEX
10
-31.2643
20
251.4278
0
SEQEND
0
POLYLINE
0
VERTEX
10
-31.2643
20
251.4278
0
VERTEX
10
15.4614
20
220.6210
0
SEQEND
0
POLYLINE
0
VERTEX
10
15.4614
20
220.6210
0
VERTEX
10
-12.9212
20
268.0092
0
SEQEND
0
POLYLINE
0
VERTEX
10
-12.9212
20
268.0092
0
VERTEX
10
-7.4430
20
213.5859
0
SEQEND
0
POLYLINE
0
VERTEX
10
-7.4430
20
213.5859
0
VERTEX
10
11.0663
20
264.4758
0
SEQEND
0
POLYLINE
0
VERTEX
10
11.0663
20
264.4758
0
VERTEX
10
-26.7895
20
226.9015
0
SEQEND
0
POLYLINE
0
VERTEX
10
-26.7895
20
226.9015
0
VERTEX
10
23.1910
20
244.3123
0
SEQEND
0
POLYLINE
0
VERTEX
10
23.1910
20
244.3123
0
VERTEX
10
-28.4682
20
249.9678
0
SEQEND
0
POLYLINE
0
VERTEX
10
-28.4682
20
249.9678
0
VERTEX
10
15.4215
20
222.9972
0
SEQEND
0
POLYLINE
0
VERTEX
10
15.4215
20
222.9972
0
VERTEX
10
-11.9498
20
265.5719
0
SEQEND
0
POLYLINE
0
VERTEX
10
-11.9498
20
265.5719
0
VERTEX
10
-5.3551
20
216.0697
0
SEQEND
0
POLYLINE
0
VERTEX
10
-5.3551
20
216.0697
0
VERTEX
10
10.0028
20
262.8409
0
SEQEND
0
POLYLINE
0
VERTEX
10
10.0028
20
262.8409
0
VERTEX
10
-23.1546
20
227.7399
0
SEQEND
0
POLYLINE
0
VERTEX
10
-23.1546
20
227.7399
0
VERTEX
10
21.3983
20
244.8593
0
SEQEND
0
POLYLINE
0
VERTEX
10
21.3983
20
244.8593
0
VERTEX
10
-25.1020
20
248.4479
0
SEQEND
0
POLYLINE
0
VERTEX
10
-25.1020
20
248.4479
0
VERTEX
10
14.8951
20
225.5965
0
SEQEND
0
POLYLINE
0
VERTEX
10
14.8951
20
225.5965
0
VERTEX
10
-10.6446
20
262.6828
0
SEQEND
0
POLYLINE
0
VERTEX
10
-10.6446
20
262.6828
0
VERTEX
10
-3.3879
20
219.0261
0
SEQEND
0
POLYLINE
0
VERTEX
10
-3.3879
20
219.0261
0
VERTEX
10
8.8507
20
260.6818
0
SEQEND
0
POLYLINE
0
VERTEX
10
8.8507
20
260.6818
0
VERTEX
10
-19.2413
20
228.9457
0
SEQEND
0
POLYLINE
0
VERTEX
10
-19.2413
20
228.9457
0
VERTEX
10
19.2085
20
245.1334
0
SEQEND
0
POLYLINE
0
VERTEX
10
19.2085
20
245.1334
0
VERTEX
10
-21.2873
20
246.9532
0
SEQEND
0
POLYLINE
0
VERTEX
10
-21.2873
20
246.9532
0
VERTEX
10
13.9573
20
228.2889
0
SEQEND
0
POLYLINE
0
VERTEX
10
13.9573
20
228.2889
0
VERTEX
10
-9.0223
20
259.4938
0
SEQEND
0
POLYLINE
0
VERTEX
10
-9.0223
20
259.4938
0
VERTEX
10
-1.5921
20
222.3082
0
SEQEND
0
POLYLINE
0
VERTEX
10
-1.5921
20
222.3082
0
VERTEX
10
7.7168
20
258.1132
0
SEQEND
0
POLYLINE
0
VERTEX
10
7.7168
20
258.1132
0
VERTEX
10
-15.1982
20
230.4583
0
SEQEND
0
POLYLINE
0
VERTEX
10
-15.1982
20
230.4583
0
VERTEX
10
16.7822
20
245.1281
0
SEQEND
0
POLYLINE
0
VERTEX
10
16.7822
20
245.1281
0
VERTEX
10
-17.1711
20
245.5575
0
SEQEND
0
POLYLINE
0
VERTEX
10
-17.1711
20
245.5575
0
VERTEX
10
12.7101
20
230.9451
0
SEQEND
0
POLYLINE
0
VERTEX
10
12.7101
20
230.9451
0
VERTEX
10
-7.1239
20
256.1672
0
SEQEND
0
POLYLINE
0
VERTEX
10
-7.1239
20
256.1672
0
VERTEX
10
0.0000
20
225.7500
0
SEQEND
0
POLYLINE
0
VERTEX
10
0.0000
20
225.7500
0
VERTEX
10
6.6986
20
255.2738
0
SEQEND
0
POLYLINE
0
VERTEX
10
6.6986
20
255.2738
0
VERTEX
10
-11.1748
20
232.1922
0
SEQEND
0
POLYLINE
0
VERTEX
10
-11.1748
20
232.1922
0
VERTEX
10
14.2902
20
244.8590
0
SEQEND
0
POLYLINE
0
VERTEX
10
14.2902
20
244.8590
0
VERTEX
10
-12.9180
20
244.3188
0
SEQEND
0
POLYLINE
0
VERTEX
10
-12.9180
20
244.3188
0
VERTEX
10
11.2776
20
233.4434
0
SEQEND
0
POLYLINE
0
VERTEX
10
11.2776
20
233.4434
0
VERTEX
10
-5.0135
20
252.8662
0
SEQEND
0
POLYLINE
0
VERTEX
10
-5.0135
20
252.8662
0
VERTEX
10
1.3762
20
229.1763
0
SEQEND
0
POLYLINE
0
VERTEX
10
1.3762
20
229.1763
0
VERTEX
10
5.8789
20
252.3184
0
SEQEND
0
POLYLINE
0
VERTEX
10
5.8789
20
252.3184
0
VERTEX
10
-7.3132
20
234.0413
0
SEQEND
0
POLYLINE
0
VERTEX
10
-7.3132
20
234.0413
0
VERTEX
10
11.9040
20
244.3636
0
SEQEND
0
POLYLINE
0
VERTEX
10
11.9040
20
244.3636
0
VERTEX
10
-8.7013
20
243.2753
0
SEQEND
0
POLYLINE
0
VERTEX
10
-8.7013
20
243.2753
0
VERTEX
10
9.7992
20
235.6772
0
SEQEND
0
POLYLINE
0
VERTEX
10
9.7992
20
235.6772
0
VERTEX
10
-2.7747
20
249.7463
0
SEQEND
0
POLYLINE
0
VERTEX
10
-2.7747
20
249.7463
0
VERTEX
10
2.5458
20
232.4117
0
SEQEND
0
POLYLINE
0
VERTEX
10
2.5458
20
232.4117
0
VERTEX
10
5.3206
20
249.4101
0
SEQEND
0
POLYLINE
0
VERTEX
10
5.3206
20
249.4101
0
VERTEX
10
-3.7400
20
235.8849
0
SEQEND
0
POLYLINE
0
VERTEX
10
-3.7400
20
235.8849
0
VERTEX
10
9.7866
20
243.6986
0
SEQEND
0
POLYLINE
0
VERTEX
10
9.7866
20
243.6986
0
VERTEX
10
-4.6935
20
242.4436
0
SEQEND
0
POLYLINE
0
VERTEX
10
-4.6935
20
242.4436
0
VERTEX
10
8.4219
20
237.5601
0
SEQEND
0
POLYLINE
0
VERTEX
10
8.4219
20
237.5601
0
VERTEX
10
-0.5063
20
246.9466
0
SEQEND
0
POLYLINE
0
VERTEX
10
-0.5063
20
246.9466
0
VERTEX
10
3.5382
20
235.2905
0
SEQEND
0
POLYLINE
0
VERTEX
10
3.5382
20
235.2905
0
VERTEX
10
5.0636
20
246.7108
0
SEQEND
0
POLYLINE
0
VERTEX
10
5.0636
20
246.7108
0
VERTEX
10
-0.5599
20
237.5944
0
SEQEND
0
POLYLINE
0
VERTEX
10
-0.5599
20
237.5944
0
VERTEX
10
8.0833
20
242.9373
0
SEQEND
0
POLYLINE
0
VERTEX
10
8.0833
20
242.9373
0
VERTEX
10
-1.0572
20
241.8184
0
SEQEND
0
POLYLINE
0
VERTEX
10
-1.0572
20
241.8184
0
VERTEX
10
7.2919
20
239.0309
0
SEQEND
0
POLYLINE
0
VERTEX
10
7.2919
20
239.0309
0
VERTEX
10
1.6839
20
244.5826
0
SEQEND
0
POLYLINE
0
VERTEX
10
1.6839
20
244.5826
0
VERTEX
10
4.4010
20
237.6657
0
SEQEND
0
POLYLINE
0
VERTEX
10
4.4010
20
237.6657
0
VERTEX
10
5.1236
20
244.3723
0
SEQEND
0
POLYLINE
0
VERTEX
10
5.1236
20
244.3723
0
VERTEX
10
2.1496
20
239.0408
0
SEQEND
0
POLYLINE
0
VERTEX
10
2.1496
20
239.0408
0
VERTEX
10
6.9139
20
242.1640
0
SEQEND
0
POLYLINE
0
VERTEX
10
6.9139
20
242.1640
0
VERTEX
10
2.0645
20
241.3736
0
SEQEND
0
POLYLINE
0
VERTEX
10
2.0645
20
241.3736
0
VERTEX
10
6.5461
20
240.0557
0
SEQEND
0
POLYLINE
0
VERTEX
10
6.5461
20
240.0557
0
VERTEX
10
3.6858
20
242.7403
0
SEQEND
0
POLYLINE
0
VERTEX
10
3.6858
20
242.7403
0
VERTEX
10
5.1962
20
239.4167
0
SEQEND
0
POLYLINE
0
VERTEX
10
5.1962
20
239.4167
0
VERTEX
10
5.4919
20
242.5273
0
SEQEND
0
POLYLINE
0
VERTEX
10
5.4919
20
242.5273
0
VERTEX
10
4.3414
20
240.1028
0
SEQEND
0
POLYLINE
0
VERTEX
10
4.3414
20
240.1028
0
VERTEX
10
6.3670
20
241.4686
0
SEQEND
0
POLYLINE
0
VERTEX
10
6.3670
20
241.4686
0
VERTEX
10
4.5554
20
241.0647
0
SEQEND
0
POLYLINE
0
VERTEX
10
4.5554
20
241.0647
0
VERTEX
10
6.3034
20
240.6285
0
SEQEND
0
POLYLINE
0
VERTEX
10
6.3034
20
240.6285
0
VERTEX
10
5.3937
20
241.4725
0
SEQEND
0
POLYLINE
0
VERTEX
10
5.3937
20
241.4725
0
VERTEX
10
5.9952
20
240.4560
0
SEQEND
0
POLYLINE
0
VERTEX
10
5.9952
20
240.4560
0
VERTEX
10
6.1373
20
241.2822
0
SEQEND
0
POLYLINE
0
VERTEX
10
6.1373
20
241.2822
0
VERTEX
10
6.0003
20
240.6745
0
SEQEND
0
POLYLINE
0
VERTEX
10
6.0003
20
240.6745
0
VERTEX
10
6.4951
20
240.9400
0
SEQEND
0
POLYLINE
0
VERTEX
10
6.4951
20
240.9400
0
VERTEX
10
6.3328
20
240.8333
0
SEQEND
0
POLYLINE
0
VERTEX
10
6.3328
20
240.8333
0
VERTEX
10
6.6579
20
240.7706
0
SEQEND
0
POLYLINE
0
VERTEX
10
6.6579
20
240.7706
0
VERTEX
10
6.7143
20
240.7964
0
SEQEND
0
POLYLINE
0
VERTEX
10
6.7143
20
240.7964
0
VERTEX
10
6.8732
20
240.7338
0
SEQEND
0
POLYLINE
0
VERTEX
10
6.8732
20
240.7338
0
VERTEX
10
7.0094
20
240.7102
0
SEQEND
0
POLYLINE
0
VERTEX
10
7.0094
20
240.7102
0
VERTEX
10
7.1423
20
240.6724
0
SEQEND
0
POLYLINE
0
VERTEX
10
7.1423
20
240.6724
0
VERTEX
10
7.3127
20
240.6598
0
SEQEND
0
POLYLINE
0
VERTEX
10
7.3127
20
240.6598
0
VERTEX
10
7.3524
20
240.6121
0
SEQEND
0
POLYLINE
0
VERTEX
10
7.3524
20
240.6121
0
VERTEX
10
7.6724
20
240.5276
0
SEQEND
0
POLYLINE
0
VERTEX
10
7.6724
20
240.5276
0
VERTEX
10
7.5725
20
240.6941
0
SEQEND
0
POLYLINE
0
VERTEX
10
7.5725
20
240.6941
0
VERTEX
10
7.9031
20
240.2402
0
SEQEND
0
POLYLINE
0
VERTEX
10
7.9031
20
240.2402
0
VERTEX
10
8.0433
20
240.8472
0
SEQEND
0
POLYLINE
0
VERTEX
10
8.0433
20
240.8472
0
VERTEX
10
7.8128
20
240.0411
0
SEQEND
0
POLYLINE
0
VERTEX
10
7.8128
20
240.0411
0
VERTEX
10
8.7958
20
240.6960
0
SEQEND
0
POLYLINE
0
VERTEX
10
8.7958
20
240.6960
0
VERTEX
10
7.6101
20
240.3302
0
SEQEND
0
POLYLINE
0
VERTEX
10
7.6101
20
240.3302
0
VERTEX
10
9.3742
20
239.9648
0
SEQEND
0
POLYLINE
0
VERTEX
10
9.3742
20
239.9648
0
VERTEX
10
7.9172
20
241.1147
0
SEQEND
0
POLYLINE
0
VERTEX
10
7.9172
20
241.1147
0
VERTEX
10
9.1496
20
239.0053
0
SEQEND
0
POLYLINE
0
VERTEX
10
9.1496
20
239.0053
0
VERTEX
10
9.1650
20
241.6890
0
SEQEND
0
POLYLINE
0
VERTEX
10
9.1650
20
241.6890
0
VERTEX
10
8.0818
20
238.7581
0
SEQEND
0
POLYLINE
0
VERTEX
10
8.0818
20
238.7581
0
VERTEX
10
10.8848
20
241.0972
0
SEQEND
0
POLYLINE
0
VERTEX
10
10.8848
20
241.0972
0
VERTEX
10
7.1429
20
239.9194
0
SEQEND
0
POLYLINE
0
VERTEX
10
7.1429
20
239.9194
0
VERTEX
10
11.7524
20
239.1624
0
SEQEND
0
POLYLINE
0
VERTEX
10
11.7524
20
239.1624
0
VERTEX
10
7.7262
20
241.9786
0
SEQEND
0
POLYLINE
0
VERTEX
10
7.7262
20
241.9786
0
VERTEX
10
10.6636
20
237.0975
0
SEQEND
0
POLYLINE
0
VERTEX
10
10.6636
20
237.0975
0
VERTEX
10
10.2973
20
243.1914
0
SEQEND
0
POLYLINE
0
VERTEX
10
10.2973
20
243.1914
0
VERTEX
10
8.0385
20
236.8355
0
SEQEND
0
POLYLINE
0
VERTEX
10
8.0385
20
236.8355
0
VERTEX
10
13.4877
20
241.8885
0
SEQEND
0
POLYLINE
0
VERTEX
10
13.4877
20
241.8885
0
VERTEX
10
6.0262
20
239.3198
0
SEQEND
0
POLYLINE
0
VERTEX
10
6.0262
20
239.3198
0
VERTEX
10
14.7580
20
238.2087
0
SEQEND
0
POLYLINE
0
VERTEX
10
14.7580
20
238.2087
0
VERTEX
10
7.0082
20
243.1827
0
SEQEND
0
POLYLINE
0
VERTEX
10
7.0082
20
243.1827
0
VERTEX
10
12.4772
20
234.6188
0
SEQEND
0
POLYLINE
0
VERTEX
10
12.4772
20
234.6188
0
VERTEX
10
11.3661
20
245.2723
0
SEQEND
0
POLYLINE
0
VERTEX
10
11.3661
20
245.2723
0
VERTEX
10
7.7854
20
234.3211
0
SEQEND
0
POLYLINE
0
VERTEX
10
7.7854
20
234.3211
0
VERTEX
10
16.4867
20
243.0680
0
SEQEND
0
POLYLINE
0
VERTEX
10
16.4867
20
243.0680
0
VERTEX
10
4.3700
20
238.4849
0
SEQEND
0
POLYLINE
0
VERTEX
10
4.3700
20
238.4849
0
VERTEX
10
18.3055
20
237.1942
0
SEQEND
0
POLYLINE
0
VERTEX
10
18.3055
20
237.1942
0
VERTEX
10
5.8038
20
244.6077
0
SEQEND
0
POLYLINE
0
VERTEX
10
5.8038
20
244.6077
0
VERTEX
10
14.6007
20
231.6988
0
SEQEND
0
POLYLINE
0
VERTEX
10
14.6007
20
231.6988
0
VERTEX
10
12.3057
20
247.8158
0
SEQEND
0
POLYLINE
0
VERTEX
10
12.3057
20
247.8158
0
VERTEX
10
7.4304
20
231.2968
0
SEQEND
0
POLYLINE
0
VERTEX
10
7.4304
20
231.2968
0
VERTEX
10
19.7452
20
244.6062
0
SEQEND
0
POLYLINE
0
VERTEX
10
19.7452
20
244.6062
0
VERTEX
10
2.3121
20
237.3860
0
SEQEND
0
POLYLINE
0
VERTEX
10
2.3121
20
237.3860
0
VERTEX
10
22.2772
20
236.2046
0
SEQEND
0
POLYLINE
0
VERTEX
10
22.2772
20
236.2046
0
VERTEX
10
4.1846
20
246.1255
0
SEQEND
0
POLYLINE
0
VERTEX
10
4.1846
20
246.1255
0
VERTEX
10
17.0201
20
228.4874
0
SEQEND
0
POLYLINE
0
VERTEX
10
17.0201
20
228.4874
0
VERTEX
10
13.0645
20
250.6783
0
SEQEND
0
POLYLINE
0
VERTEX
10
13.0645
20
250.6783
0
VERTEX
10
7.0803
20
227.8744
0
SEQEND
0
POLYLINE
0
VERTEX
10
7.0803
20
227.8744
0
VERTEX
10
23.1159
20
246.4458
0
SEQEND
0
POLYLINE
0
VERTEX
10
23.1159
20
246.4458
0
VERTEX
10
0.0110
20
236.0150
0
SEQEND
0
POLYLINE
0
VERTEX
10
0.0110
20
236.0150
0
VERTEX
10
26.5291
20
235.3152
0
SEQEND
0
POLYLINE
0
VERTEX
10
26.5291
20
235.3152
0
VERTEX
10
2.2498
20
247.6072
0
SEQEND
0
POLYLINE
0
VERTEX
10
2.2498
20
247.6072
0
VERTEX
10
19.6970
20
225.1459
0
SEQEND
0
POLYLINE
0
VERTEX
10
19.6970
20
225.1459
0
VERTEX
10
13.6083
20
253.6967
0
SEQEND
0
POLYLINE
0
VERTEX
10
13.6083
20
253.6967
0
VERTEX
10
6.8337
20
224.1903
0
SEQEND
0
POLYLINE
0
VERTEX
10
6.8337
20
224.1903
0
VERTEX
10
26.4496
20
248.5042
0
SEQEND
0
POLYLINE
0
VERTEX
10
26.4496
20
248.5042
0
VERTEX
10
-2.3637
20
234.3856
0
SEQEND
0
POLYLINE
0
VERTEX
10
-2.3637
20
234.3856
0
VERTEX
10
30.8985
20
234.5859
0
SEQEND
0
POLYLINE
0
VERTEX
10
30.8985
20
234.5859
0
VERTEX
10
0.1213
20
248.9308
0
SEQEND
0
POLYLINE
0
VERTEX
10
0.1213
20
248.9308
0
VERTEX
10
22.5696
20
221.8381
0
SEQEND
0
POLYLINE
0
VERTEX
10
22.5696
20
221.8381
0
VERTEX
10
13.9230
20
256.6967
0
SEQEND
0
POLYLINE
0
VERTEX
10
13.9230
20
256.6967
0
VERTEX
10
6.7747
20
220.3985
0
SEQEND
0
POLYLINE
0
VERTEX
10
6.7747
20
220.3985
0
VERTEX
10
29.6034
20
250.6778
0
SEQEND
0
POLYLINE
0
VERTEX
10
29.6034
20
250.6778
0
VERTEX
10
-4.6398
20
232.5336
0
SEQEND
0
POLYLINE
0
VERTEX
10
-4.6398
20
232.5336
0
VERTEX
10
35.2126
20
234.0574
0
SEQEND
0
POLYLINE
0
VERTEX
10
35.2126
20
234.0574
0
VERTEX
10
-2.0625
20
249.9883
0
SEQEND
0
POLYLINE
0
VERTEX
10
-2.0625
20
249.9883
0
VERTEX
10
25.5561
20
218.7210
0
SEQEND
0
POLYLINE
0
VERTEX
10
25.5561
20
218.7210
0
VERTEX
10
14.0158
20
259.5029
0
SEQEND
0
POLYLINE
0
VERTEX
10
14.0158
20
259.5029
0
VERTEX
10
6.9687
20
216.6623
0
SEQEND
0
POLYLINE
0
VERTEX
10
6.9687
20
216.6623
0
VERTEX
10
32.4487
20
252.8470
0
SEQEND
0
POLYLINE
0
VERTEX
10
32.4487
20
252.8470
0
VERTEX
10
-6.6530
20
230.5147
0
SEQEND
0
POLYLINE
0
VERTEX
10
-6.6530
20
230.5147
0
VERTEX
10
39.2980
20
233.7490
0
SEQEND
0
POLYLINE
0
VERTEX
10
39.2980
20
233.7490
0
VERTEX
10
-4.1543
20
250.6915
0
SEQEND
0
POLYLINE
0
VERTEX
10
-4.1543
20
250.6915
0
VERTEX
10
28.5587
20
215.9367
0
SEQEND
0
POLYLINE
0
VERTEX
10
28.5587
20
215.9367
0
VERTEX
10
13.9147
20
261.9481
0
SEQEND
0
POLYLINE
0
VERTEX
10
13.9147
20
261.9481
0
VERTEX
10
7.4583
20
213.1451
0
SEQEND
0
POLYLINE
0
VERTEX
10
7.4583
20
213.1451
0
VERTEX
10
34.8781
20
254.8837
0
SEQEND
0
POLYLINE
0
VERTEX
10
34.8781
20
254.8837
0
VERTEX
10
-8.2550
20
228.4012
0
SEQEND
0
POLYLINE
0
VERTEX
10
-8.2550
20
228.4012
0
VERTEX
10
42.9903
20
233.6579
0
SEQEND
0
POLYLINE
0
VERTEX
10
42.9903
20
233.6579
0
VERTEX
10
-6.0068
20
250.9765
0
SEQEND
0
POLYLINE
0
VERTEX
10
-6.0068
20
250.9765
0
VERTEX
10
31.4698
20
213.6042
0
SEQEND
0
POLYLINE
0
VERTEX
10
31.4698
20
213.6042
0
VERTEX
10
13.6658
20
263.8824
0
SEQEND
0
POLYLINE
0
VERTEX
10
13.6658
20
263.8824
0
VERTEX
10
8.2618
20
210.0014
0
SEQEND
0
POLYLINE
0
VERTEX
10
8.2618
20
210.0014
0
VERTEX
10
36.8108
20
256.6582
0
SEQEND
0
POLYLINE
0
VERTEX
10
36.8108
20
256.6582
0
VERTEX
10
-9.3220
20
226.2777
0
SEQEND
0
POLYLINE
0
VERTEX
10
-9.3220
20
226.2777
0
VERTEX
10
46.1430
20
233.7601
0
SEQEND
0
POLYLINE
0
VERTEX
10
46.1430
20
233.7601
0
VERTEX
10
-7.4806
20
250.8066
0
SEQEND
0
POLYLINE
0
VERTEX
10
-7.4806
20
250.8066
0
VERTEX
10
34.1784
20
211.8140
0
SEQEND
0
POLYLINE
0
VERTEX
10
34.1784
20
211.8140
0
VERTEX
10
13.3305
20
265.1818
0
SEQEND
0
POLYLINE
0
VERTEX
10
13.3305
20
265.1818
0
VERTEX
10
9.3731
20
207.3680
0
SEQEND
0
POLYLINE
0
VERTEX
10
9.3731
20
207.3680
0
VERTEX
10
38.1960
20
258.0472
0
SEQEND
0
POLYLINE
0
VERTEX
10
38.1960
20
258.0472
0
VERTEX
10
-9.7609
20
224.2348
0
SEQEND
0
POLYLINE
0
VERTEX
10
-9.7609
20
224.2348
0
VERTEX
10
48.6357
20
234.0131
0
SEQEND
0
POLYLINE
0
VERTEX
10
48.6357
20
234.0131
0
VERTEX
10
-8.4529
20
250.1732
0
SEQEND
0
POLYLINE
0
VERTEX
10
-8.4529
20
250.1732
0
VERTEX
10
36.5774
20
210.6236
0
SEQEND
0
POLYLINE
0
VERTEX
10
36.5774
20
210.6236
0
VERTEX
10
12.9803
20
265.7541
0
SEQEND
0
POLYLINE
0
VERTEX
10
12.9803
20
265.7541
0
VERTEX
10
10.7633
20
205.3561
0
SEQEND
0
POLYLINE
0
VERTEX
10
10.7633
20
205.3561
0
VERTEX
10
39.0148
20
258.9421
0
SEQEND
0
POLYLINE
0
VERTEX
10
39.0148
20
258.9421
0
VERTEX
10
-9.5140
20
222.3635
0
SEQEND
0
POLYLINE
0
VERTEX
10
-9.5140
20
222.3635
0
VERTEX
10
50.3806
20
234.3597
0
SEQEND
0
POLYLINE
0
VERTEX
10
50.3806
20
234.3597
0
VERTEX
10
-8.8250
20
249.0950
0
SEQEND
0
POLYLINE
0
VERTEX
10
-8.8250
20
249.0950
0
VERTEX
10
38.5703
20
210.0552
0
SEQEND
0
POLYLINE
0
VERTEX
10
38.5703
20
210.0552
0
VERTEX
10
12.6913
20
265.5445
0
SEQEND
0
POLYLINE
0
VERTEX
10
12.6913
20
265.5445
0
VERTEX
10
12.3838
20
204.0447
0
SEQEND
0
POLYLINE
0
VERTEX
10
12.3838
20
204.0447
0
VERTEX
10
39.2799
20
259.2554
0
SEQEND
0
POLYLINE
0
VERTEX
10
39.2799
20
259.2554
0
VERTEX
10
-8.5616
20
220.7481
0
SEQEND
0
POLYLINE
0
VERTEX
10
-8.5616
20
220.7481
0
VERTEX
10
51.3278
20
234.7329
0
SEQEND
0
POLYLINE
0
VERTEX
10
51.3278
20
234.7329
0
VERTEX
10
-8.5289
20
247.6156
0
SEQEND
0
POLYLINE
0
VERTEX
10
-8.5289
20
247.6156
0
VERTEX
10
40.0785
20
210.0957
0
SEQEND
0
POLYLINE
0
VERTEX
10
40.0785
20
210.0957
0
VERTEX
10
12.5382
20
264.5380
0
SEQEND
0
POLYLINE
0
VERTEX
10
12.5382
20
264.5380
0
VERTEX
10
14.1706
20
203.4757
0
SEQEND
0
POLYLINE
0
VERTEX
10
14.1706
20
203.4757
0
VERTEX
10
39.0334
20
258.9272
0
SEQEND
0
POLYLINE
0
VERTEX
10
39.0334
20
258.9272
0
VERTEX
10
-6.9225
20
219.4601
0
SEQEND
0
POLYLINE
0
VERTEX
10
-6.9225
20
219.4601
0
VERTEX
10
51.4678
20
235.0613
0
SEQEND
0
POLYLINE
0
VERTEX
10
51.4678
20
235.0613
0
VERTEX
10
-7.5312
20
245.7991
0
SEQEND
0
POLYLINE
0
VERTEX
10
-7.5312
20
245.7991
0
VERTEX
10
41.0469
20
210.6984
0
SEQEND
0
POLYLINE
0
VERTEX
10
41.0469
20
210.6984
0
VERTEX
10
12.5886
20
262.7597
0
SEQEND
0
POLYLINE
0
VERTEX
10
12.5886
20
262.7597
0
VERTEX
10
16.0499
20
203.6514
0
SEQEND
0
POLYLINE
0
VERTEX
10
16.0499
20
203.6514
0
VERTEX
10
38.3432
20
257.9299
0
SEQEND
0
POLYLINE
0
VERTEX
10
38.3432
20
257.9299
0
VERTEX
10
-4.6517
20
218.5524
0
SEQEND
0
POLYLINE
0
VERTEX
10
-4.6517
20
218.5524
0
VERTEX
10
50.8319
20
235.2754
0
SEQEND
0
POLYLINE
0
VERTEX
10
50.8319
20
235.2754
0
VERTEX
10
-5.8369
20
243.7252
0
SEQEND
0
POLYLINE
0
VERTEX
10
-5.8369
20
243.7252
0
VERTEX
10
41.4481
20
211.7873
0
SEQEND
0
POLYLINE
0
VERTEX
10
41.4481
20
211.7873
0
VERTEX
10
12.8966
20
260.2732
0
SEQEND
0
POLYLINE
0
VERTEX
10
12.8966
20
260.2732
0
VERTEX
10
17.9439
20
204.5339
0
SEQEND
0
POLYLINE
0
VERTEX
10
17.9439
20
204.5339
0
VERTEX
10
37.2972
20
256.2703
0
SEQEND
0
POLYLINE
0
VERTEX
10
37.2972
20
256.2703
0
VERTEX
10
-1.8370
20
218.0549
0
SEQEND
0
POLYLINE
0
VERTEX
10
-1.8370
20
218.0549
0
VERTEX
10
49.4906
20
235.3131
0
SEQEND
0
POLYLINE
0
VERTEX
10
49.4906
20
235.3131
0
VERTEX
10
-3.4888
20
241.4828
0
SEQEND
0
POLYLINE
0
VERTEX
10
-3.4888
20
241.4828
0
VERTEX
10
41.2858
20
213.2619
0
SEQEND
0
POLYLINE
0
VERTEX
10
41.2858
20
213.2619
0
VERTEX
10
13.4985
20
257.1768
0
SEQEND
0
POLYLINE
0
VERTEX
10
13.4985
20
257.1768
0
VERTEX
10
19.7768
20
206.0467
0
SEQEND
0
POLYLINE
0
VERTEX
10
19.7768
20
206.0467
0
VERTEX
10
35.9973
20
253.9912
0
SEQEND
0
POLYLINE
0
VERTEX
10
35.9973
20
253.9912
0
VERTEX
10
1.4066
20
217.9711
0
SEQEND
0
POLYLINE
0
VERTEX
10
1.4066
20
217.9711
0
VERTEX
10
47.5493
20
235.1253
0
SEQEND
0
POLYLINE
0
VERTEX
10
47.5493
20
235.1253
0
VERTEX
10
-0.5670
20
239.1637
0
SEQEND
0
POLYLINE
0
VERTEX
10
-0.5670
20
239.1637
0
VERTEX
10
40.5957
20
215.0045
0
SEQEND
0
POLYLINE
0
VERTEX
10
40.5957
20
215.0045
0
VERTEX
10
14.4090
20
253.5974
0
SEQEND
0
POLYLINE
0
VERTEX
10
14.4090
20
253.5974
0
VERTEX
10
21.4808
20
208.0788
0
SEQEND
0
POLYLINE
0
VERTEX
10
21.4808
20
208.0788
0
VERTEX
10
34.5523
20
251.1695
0
SEQEND
0
POLYLINE
0
VERTEX
10
34.5523
20
251.1695
0
VERTEX
10
4.9446
20
218.2765
0
SEQEND
0
POLYLINE
0
VERTEX
10
4.9446
20
218.2765
0
VERTEX
10
45.1430
20
234.6799
0
SEQEND
0
POLYLINE
0
VERTEX
10
45.1430
20
234.6799
0
VERTEX
10
2.8156
20
236.8559
0
SEQEND
0
POLYLINE
0
VERTEX
10
2.8156
20
236.8559
0
VERTEX
10
39.4447
20
216.8875
0
SEQEND
0
POLYLINE
0
VERTEX
10
39.4447
20
216.8875
0
VERTEX
10
15.6187
20
249.6830
0
SEQEND
0
POLYLINE
0
VERTEX
10
15.6187
20
249.6830
0
VERTEX
10
23.0011
20
210.4907
0
SEQEND
0
POLYLINE
0
VERTEX
10
23.0011
20
210.4907
0
VERTEX
10
33.0705
20
247.9128
0
SEQEND
0
POLYLINE
0
VERTEX
10
33.0705
20
247.9128
0
VERTEX
10
8.6303
20
218.9188
0
SEQEND
0
POLYLINE
0
VERTEX
10
8.6303
20
218.9188
0
VERTEX
10
42.4278
20
233.9649
0
SEQEND
0
POLYLINE
0
VERTEX
10
42.4278
20
233.9649
0
VERTEX
10
6.5190
20
234.6380
0
SEQEND
0
POLYLINE
0
VERTEX
10
6.5190
20
234.6380
0
VERTEX
10
37.9277
20
218.7812
0
SEQEND
0
POLYLINE
0
VERTEX
10
37.9277
20
218.7812
0
VERTEX
10
17.0940
20
245.5947
0
SEQEND
0
POLYLINE
0
VERTEX
10
17.0940
20
245.5947
0
VERTEX
10
24.3002
20
213.1219
0
SEQEND
0
POLYLINE
0
VERTEX
10
24.3002
20
213.1219
0
VERTEX
10
31.6532
20
244.3545
0
SEQEND
0
POLYLINE
0
VERTEX
10
31.6532
20
244.3545
0
VERTEX
10
12.3138
20
219.8200
0
SEQEND
0
POLYLINE
0
VERTEX
10
12.3138
20
219.8200
0
VERTEX
10
39.5730
20
232.9905
0
SEQEND
0
POLYLINE
0
VERTEX
10
39.5730
20
232.9905
0
VERTEX
10
10.3831
20
232.5734
0
SEQEND
0
POLYLINE
0
VERTEX
10
10.3831
20
232.5734
0
VERTEX
10
36.1637
20
220.5617
0
SEQEND
0
POLYLINE
0
VERTEX
10
36.1637
20
220.5617
0
VERTEX
10
18.7773
20
241.4971
0
SEQEND
0
POLYLINE
0
VERTEX
10
18.7773
20
241.4971
0
VERTEX
10
25.3603
20
215.7996
0
SEQEND
0
POLYLINE
0
VERTEX
10
25.3603
20
215.7996
0
VERTEX
10
30.3882
20
240.6463
0
SEQEND
0
POLYLINE
0
VERTEX
10
30.3882
20
240.6463
0
VERTEX
10
15.8507
20
220.8802
0
SEQEND
0
POLYLINE
0
VERTEX
10
15.8507
20
220.8802
0
VERTEX
10
36.7513
20
231.7888
0
SEQEND
0
POLYLINE
0
VERTEX
10
36.7513
20
231.7888
0
VERTEX
10
14.2365
20
230.7072
0
SEQEND
0
POLYLINE
0
VERTEX
10
14.2365
20
230.7072
0
VERTEX
10
34.2886
20
222.1184
0
SEQEND
0
POLYLINE
0
VERTEX
10
34.2886
20
222.1184
0
VERTEX
10
20.5905
20
237.5497
0
SEQEND
0
POLYLINE
0
VERTEX
10
20.5905
20
237.5497
0
VERTEX
10
26.1849
20
218.3481
0
SEQEND
0
POLYLINE
0
VERTEX
10
26.1849
20
218.3481
0
VERTEX
10
29.3449
20
236.9507
0
SEQEND
0
POLYLINE
0
VERTEX
10
29.3449
20
236.9507
0
VERTEX
10
19.1094
20
221.9831
0
SEQEND
0
POLYLINE
0
VERTEX
10
19.1094
20
221.9831
0
VERTEX
10
34.1294
20
230.4120
0
SEQEND
0
POLYLINE
0
VERTEX
10
34.1294
20
230.4120
0
VERTEX
10
17.9058
20
229.0631
0
SEQEND
0
POLYLINE
0
VERTEX
10
17.9058
20
229.0631
0
VERTEX
10
32.4485
20
223.3593
0
SEQEND
0
POLYLINE
0
VERTEX
10
32.4485
20
223.3593
0
VERTEX
10
22.4391
20
233.8978
0
SEQEND
0
POLYLINE
0
VERTEX
10
22.4391
20
233.8978
0
VERTEX
10
26.7983
20
220.5989
0
SEQEND
0
POLYLINE
0
VERTEX
10
26.7983
20
220.5989
0
VERTEX
10
28.5703
20
233.4316
0
SEQEND
0
POLYLINE
0
VERTEX
10
28.5703
20
233.4316
0
VERTEX
10
21.9790
20
223.0021
0
SEQEND
0
POLYLINE
0
VERTEX
10
21.9790
20
223.0021
0
VERTEX
10
31.8588
20
228.9299
0
SEQEND
0
POLYLINE
0
VERTEX
10
31.8588
20
228.9299
0
VERTEX
10
21.2251
20
227.6425
0
SEQEND
0
POLYLINE
0
VERTEX
10
21.2251
20
227.6425
0
VERTEX
10
30.7913
20
224.2164
0
SEQEND
0
POLYLINE
0
VERTEX
10
30.7913
20
224.2164
0
VERTEX
10
24.2175
20
230.6650
0
SEQEND
0
POLYLINE
0
VERTEX
10
24.2175
20
230.6650
0
VERTEX
10
27.2437
20
222.3994
0
SEQEND
0
POLYLINE
0
VERTEX
10
27.2437
20
222.3994
0
VERTEX
10
28.0877
20
230.2453
0
SEQEND
0
POLYLINE
0
VERTEX
10
28.0877
20
230.2453
0
VERTEX
10
24.3739
20
223.8084
0
SEQEND
0
POLYLINE
0
VERTEX
10
24.3739
20
223.8084
0
VERTEX
10
30.0678
20
227.4249
0
SEQEND
0
POLYLINE
0
VERTEX
10
30.0678
20
227.4249
0
VERTEX
10
24.0453
20
226.4260
0
SEQEND
0
POLYLINE
0
VERTEX
10
24.0453
20
226.4260
0
VERTEX
10
29.4576
20
224.6484
0
SEQEND
0
POLYLINE
0
VERTEX
10
29.4576
20
224.6484
0
VERTEX
10
25.8160
20
227.9470
0
SEQEND
0
POLYLINE
0
VERTEX
10
25.8160
20
227.9470
0
VERTEX
10
27.5799
20
223.6215
0
SEQEND
0
POLYLINE
0
VERTEX
10
27.5799
20
223.6215
0
VERTEX
10
27.8955
20
227.5316
0
SEQEND
0
POLYLINE
0
VERTEX
10
27.8955
20
227.5316
0
VERTEX
10
26.2387
20
224.2784
0
SEQEND
0
POLYLINE
0
VERTEX
10
26.2387
20
224.2784
0
VERTEX
10
28.8550
20
225.9867
0
SEQEND
0
POLYLINE
0
VERTEX
10
28.8550
20
225.9867
0
VERTEX
10
26.2421
20
225.3745
0
SEQEND
0
POLYLINE
0
VERTEX
10
26.2421
20
225.3745
0
VERTEX
10
28.5729
20
224.6424
0
SEQEND
0
POLYLINE
0
VERTEX
10
28.5729
20
224.6424
0
VERTEX
10
27.1276
20
225.8070
0
SEQEND
0
POLYLINE
0
VERTEX
10
27.1276
20
225.8070
0
VERTEX
10
27.8764
20
224.1684
0
SEQEND
0
POLYLINE
0
VERTEX
10
27.8764
20
224.1684
0
VERTEX
10
27.9691
20
225.4058
0
SEQEND
0
POLYLINE
0
VERTEX
10
27.9691
20
225.4058
0
VERTEX
10
27.5494
20
224.3017
0
SEQEND
0
POLYLINE
0
VERTEX
10
27.5494
20
224.3017
0
VERTEX
10
28.2840
20
224.7058
0
SEQEND
0
POLYLINE
0
VERTEX
10
28.2840
20
224.7058
0
VERTEX
10
27.7234
20
224.4340
0
SEQEND
0
POLYLINE
0
VERTEX
10
27.7234
20
224.4340
0
VERTEX
10
28.2395
20
224.2127
0
SEQEND
0
POLYLINE
0
VERTEX
10
28.2395
20
224.2127
0
VERTEX
10
28.0549
20
224.2731
0
SEQEND
0
POLYLINE
0
VERTEX
10
28.0549
20
224.2731
0
VERTEX
10
28.2086
20
223.9799
0
SEQEND
0
POLYLINE
0
VERTEX
10
28.2086
20
223.9799
0
VERTEX
10
28.2639
20
223.9518
0
SEQEND
0
POLYLINE
0
VERTEX
10
28.2639
20
223.9518
0
VERTEX
10
28.3140
20
223.7885
0
SEQEND
0
POLYLINE
0
VERTEX
10
28.3140
20
223.7885
0
VERTEX
10
28.3805
20
223.6673
0
SEQEND
0
POLYLINE
0
VERTEX
10
28.3805
20
223.6673
0
VERTEX
10
28.4338
20
223.5398
0
SEQEND
0
POLYLINE
0
VERTEX
10
28.4338
20
223.5398
0
VERTEX
10
28.5302
20
223.3988
0
SEQEND
0
POLYLINE
0
VERTEX
10
28.5302
20
223.3988
0
VERTEX
10
28.5176
20
223.3381
0
SEQEND
0
POLYLINE
0
VERTEX
10
28.5176
20
223.3381
0
VERTEX
10
28.6511
20
223.0351
0
SEQEND
0
POLYLINE
0
VERTEX
10
28.6511
20
223.0351
0
VERTEX
10
28.7189
20
223.2171
0
SEQEND
0
POLYLINE
0
VERTEX
10
28.7189
20
223.2171
0
VERTEX
10
28.5702
20
222.6755
0
SEQEND
0
POLYLINE
0
VERTEX
10
28.5702
20
222.6755
0
VERTEX
10
29.1322
20
222.9444
0
SEQEND
0
POLYLINE
0
VERTEX
10
29.1322
20
222.9444
0
VERTEX
10
28.3583
20
222.6220
0
SEQEND
0
POLYLINE
0
VERTEX
10
28.3583
20
222.6220
0
VERTEX
10
29.4832
20
222.2618
0
SEQEND
0
POLYLINE
0
VERTEX
10
29.4832
20
222.2618
0
VERTEX
10
28.4579
20
222.9608
0
SEQEND
0
POLYLINE
0
VERTEX
10
28.4579
20
222.9608
0
VERTEX
10
29.2721
20
221.3537
0
SEQEND
0
POLYLINE
0
VERTEX
10
29.2721
20
221.3537
0
VERTEX
10
29.2628
20
223.2098
0
SEQEND
0
POLYLINE
0
VERTEX
10
29.2628
20
223.2098
0
VERTEX
10
28.3820
20
220.9311
0
SEQEND
0
POLYLINE
0
VERTEX
10
28.3820
20
220.9311
0
VERTEX
10
30.4897
20
222.5922
0
SEQEND
0
POLYLINE
0
VERTEX
10
30.4897
20
222.5922
0
VERTEX
10
27.5229
20
221.6118
0
SEQEND
0
POLYLINE
0
VERTEX
10
27.5229
20
221.6118
0
VERTEX
10
31.0993
20
220.8788
0
SEQEND
0
POLYLINE
0
VERTEX
10
31.0993
20
220.8788
0
VERTEX
10
27.8455
20
223.0699
0
SEQEND
0
POLYLINE
0
VERTEX
10
27.8455
20
223.0699
0
VERTEX
10
30.1276
20
218.9940
0
SEQEND
0
POLYLINE
0
VERTEX
10
30.1276
20
218.9940
0
VERTEX
10
29.8191
20
223.8977
0
SEQEND
0
POLYLINE
0
VERTEX
10
29.8191
20
223.8977
0
VERTEX
10
27.8343
20
218.5579
0
SEQEND
0
POLYLINE
0
VERTEX
10
27.8343
20
218.5579
0
VERTEX
10
32.3704
20
222.6437
0
SEQEND
0
POLYLINE
0
VERTEX
10
32.3704
20
222.6437
0
VERTEX
10
25.9927
20
220.4469
0
SEQEND
0
POLYLINE
0
VERTEX
10
25.9927
20
220.4469
0
VERTEX
10
33.3408
20
219.3371
0
SEQEND
0
POLYLINE
0
VERTEX
10
33.3408
20
219.3371
0
VERTEX
10
26.6805
20
223.5691
0
SEQEND
0
POLYLINE
0
VERTEX
10
26.6805
20
223.5691
0
VERTEX
10
31.2559
20
216.0496
0
SEQEND
0
POLYLINE
0
VERTEX
10
31.2559
20
216.0496
0
VERTEX
10
30.3128
20
225.2098
0
SEQEND
0
POLYLINE
0
VERTEX
10
30.3128
20
225.2098
0
VERTEX
10
27.0271
20
215.5945
0
SEQEND
0
POLYLINE
0
VERTEX
10
27.0271
20
215.5945
0
VERTEX
10
34.6636
20
223.1056
0
SEQEND
0
POLYLINE
0
VERTEX
10
34.6636
20
223.1056
0
VERTEX
10
23.8691
20
219.0771
0
SEQEND
0
POLYLINE
0
VERTEX
10
23.8691
20
219.0771
0
VERTEX
10
36.1329
20
217.7278
0
SEQEND
0
POLYLINE
0
VERTEX
10
36.1329
20
217.7278
0
VERTEX
10
24.9951
20
224.3435
0
SEQEND
0
POLYLINE
0
VERTEX
10
24.9951
20
224.3435
0
VERTEX
10
32.6746
20
212.6435
0
SEQEND
0
POLYLINE
0
VERTEX
10
32.6746
20
212.6435
0
VERTEX
10
30.6760
20
227.0399
0
SEQEND
0
POLYLINE
0
VERTEX
10
30.6760
20
227.0399
0
VERTEX
10
26.0682
20
212.1137
0
SEQEND
0
POLYLINE
0
VERTEX
10
26.0682
20
212.1137
0
VERTEX
10
37.2381
20
223.9567
0
SEQEND
0
POLYLINE
0
VERTEX
10
37.2381
20
223.9567
0
VERTEX
10
21.2833
20
217.4690
0
SEQEND
0
POLYLINE
0
VERTEX
10
21.2833
20
217.4690
0
VERTEX
10
39.3672
20
216.1392
0
SEQEND
0
POLYLINE
0
VERTEX
10
39.3672
20
216.1392
0
VERTEX
10
22.8529
20
225.2672
0
SEQEND
0
POLYLINE
0
VERTEX
10
22.8529
20
225.2672
0
VERTEX
10
34.3772
20
208.9213
0
SEQEND
0
POLYLINE
0
VERTEX
10
34.3772
20
208.9213
0
VERTEX
10
30.8531
20
229.2522
0
SEQEND
0
POLYLINE
0
VERTEX
10
30.8531
20
229.2522
0
VERTEX
10
25.0659
20
208.2198
0
SEQEND
0
POLYLINE
0
VERTEX
10
25.0659
20
208.2198
0
VERTEX
10
39.9492
20
225.1483
0
SEQEND
0
POLYLINE
0
VERTEX
10
39.9492
20
225.1483
0
VERTEX
10
18.3893
20
215.6089
0
SEQEND
0
POLYLINE
0
VERTEX
10
18.3893
20
215.6089
0
VERTEX
10
42.9070
20
214.6508
0
SEQEND
0
POLYLINE
0
VERTEX
10
42.9070
20
214.6508
0
VERTEX
10
20.3462
20
226.2115
0
SEQEND
0
POLYLINE
0
VERTEX
10
20.3462
20
226.2115
0
VERTEX
10
36.3329
20
205.0425
0
SEQEND
0
POLYLINE
0
VERTEX
10
36.3329
20
205.0425
0
VERTEX
10
30.8052
20
231.6887
0
SEQEND
0
POLYLINE
0
VERTEX
10
30.8052
20
231.6887
0
VERTEX
10
24.1224
20
204.0436
0
SEQEND
0
POLYLINE
0
VERTEX
10
24.1224
20
204.0436
0
VERTEX
10
42.6481
20
226.6051
0
SEQEND
0
POLYLINE
0
VERTEX
10
42.6481
20
226.6051
0
VERTEX
10
15.3551
20
213.5047
0
SEQEND
0
POLYLINE
0
VERTEX
10
15.3551
20
213.5047
0
VERTEX
10
46.5949
20
213.3278
0
SEQEND
0
POLYLINE
0
VERTEX
10
46.5949
20
213.3278
0
VERTEX
10
17.5917
20
227.0522
0
SEQEND
0
POLYLINE
0
VERTEX
10
17.5917
20
227.0522
0
VERTEX
10
38.4869
20
201.1717
0
SEQEND
0
POLYLINE
0
VERTEX
10
38.4869
20
201.1717
0
VERTEX
10
30.5129
20
234.1781
0
SEQEND
0
POLYLINE
0
VERTEX
10
30.5129
20
234.1781
0
VERTEX
10
23.3273
20
199.7353
0
SEQEND
0
POLYLINE
0
VERTEX
10
23.3273
20
199.7353
0
VERTEX
10
45.1898
20
228.2295
0
SEQEND
0
POLYLINE
0
VERTEX
10
45.1898
20
228.2295
0
VERTEX
10
12.3538
20
211.1867
0
SEQEND
0
POLYLINE
0
VERTEX
10
12.3538
20
211.1867
0
VERTEX
10
50.2606
20
212.2173
0
SEQEND
0
POLYLINE
0
VERTEX
10
50.2606
20
212.2173
0
VERTEX
10
14.7246
20
227.6770
0
SEQEND
0
POLYLINE
0
VERTEX
10
14.7246
20
227.6770
0
VERTEX
10
40.7635
20
197.4693
0
SEQEND
0
POLYLINE
0
VERTEX
10
40.7635
20
197.4693
0
VERTEX
10
29.9782
20
236.5448
0
SEQEND
0
POLYLINE
0
VERTEX
10
29.9782
20
236.5448
0
VERTEX
10
22.7523
20
195.4570
0
SEQEND
0
POLYLINE
0
VERTEX
10
22.7523
20
195.4570
0
VERTEX
10
47.4417
20
229.9065
0
SEQEND
0
POLYLINE
0
VERTEX
10
47.4417
20
229.9065
0
VERTEX
10
9.5537
20
208.7055
0
SEQEND
0
POLYLINE
0
VERTEX
10
9.5537
20
208.7055
0
VERTEX
10
53.7306
20
211.3453
0
SEQEND
0
POLYLINE
0
VERTEX
10
53.7306
20
211.3453
0
VERTEX
10
11.8910
20
227.9922
0
SEQEND
0
POLYLINE
0
VERTEX
10
11.8910
20
227.9922
0
VERTEX
10
43.0696
20
194.0829
0
SEQEND
0
POLYLINE
0
VERTEX
10
43.0696
20
194.0829
0
VERTEX
10
29.2237
20
238.6187
0
SEQEND
0
POLYLINE
0
VERTEX
10
29.2237
20
238.6187
0
VERTEX
10
22.4475
20
191.3734
0
SEQEND
0
POLYLINE
0
VERTEX
10
22.4475
20
191.3734
0
VERTEX
10
49.2903
20
231.5102
0
SEQEND
0
POLYLINE
0
VERTEX
10
49.2903
20
231.5102
0
VERTEX
10
7.1091
20
206.1298
0
SEQEND
0
POLYLINE
0
VERTEX
10
7.1091
20
206.1298
0
VERTEX
10
56.8377
20
210.7157
0
SEQEND
0
POLYLINE
0
VERTEX
10
56.8377
20
210.7157
0
VERTEX
10
9.2398
20
227.9270
0
SEQEND
0
POLYLINE
0
VERTEX
10
9.2398
20
227.9270
0
VERTEX
10
45.3005
20
191.1392
0
SEQEND
0
POLYLINE
0
VERTEX
10
45.3005
20
191.1392
0
VERTEX
10
28.2916
20
240.2448
0
SEQEND
0
POLYLINE
0
VERTEX
10
28.2916
20
240.2448
0
VERTEX
10
22.4390
20
187.6431
0
SEQEND
0
POLYLINE
0
VERTEX
10
22.4390
20
187.6431
0
VERTEX
10
50.6475
20
232.9108
0
SEQEND
0
POLYLINE
0
VERTEX
10
50.6475
20
232.9108
0
VERTEX
10
5.1522
20
203.5416
0
SEQEND
0
POLYLINE
0
VERTEX
10
5.1522
20
203.5416
0
VERTEX
10
59.4300
20
210.3110
0
SEQEND
0
POLYLINE
0
VERTEX
10
59.4300
20
210.3110
0
VERTEX
10
6.9143
20
227.4372
0
SEQEND
0
POLYLINE
0
VERTEX
10
6.9143
20
227.4372
0
VERTEX
10
47.3461
20
188.7381
0
SEQEND
0
POLYLINE
0
VERTEX
10
47.3461
20
188.7381
0
VERTEX
10
27.2398
20
241.2910
0
SEQEND
0
POLYLINE
0
VERTEX
10
27.2398
20
241.2910
0
VERTEX
10
22.7282
20
184.4093
0
SEQEND
0
POLYLINE
0
VERTEX
10
22.7282
20
184.4093
0
VERTEX
10
51.4543
20
233.9831
0
SEQEND
0
POLYLINE
0
VERTEX
10
51.4543
20
233.9831
0
VERTEX
10
3.7863
20
201.0308
0
SEQEND
0
POLYLINE
0
VERTEX
10
3.7863
20
201.0308
0
VERTEX
10
61.3797
20
210.0941
0
SEQEND
0
POLYLINE
0
VERTEX
10
61.3797
20
210.0941
0
VERTEX
10
5.0435
20
226.5066
0
SEQEND
0
POLYLINE
0
VERTEX
10
5.0435
20
226.5066
0
VERTEX
10
49.0980
20
186.9470
0
SEQEND
0
POLYLINE
0
VERTEX
10
49.0980
20
186.9470
0
VERTEX
10
26.1384
20
241.6563
0
SEQEND
0
POLYLINE
0
VERTEX
10
26.1384
20
241.6563
0
VERTEX
10
23.2932
20
181.7915
0
SEQEND
0
POLYLINE
0
VERTEX
10
23.2932
20
181.7915
0
VERTEX
10
51.6834
20
234.6137
0
SEQEND
0
POLYLINE
0
VERTEX
10
51.6834
20
234.6137
0
VERTEX
10
3.0801
20
198.6895
0
SEQEND
0
POLYLINE
0
VERTEX
10
3.0801
20
198.6895
0
VERTEX
10
62.5898
20
210.0119
0
SEQEND
0
POLYLINE
0
VERTEX
10
62.5898
20
210.0119
0
VERTEX
10
3.7343
20
225.1469
0
SEQEND
0
POLYLINE
0
VERTEX
10
3.7343
20
225.1469
0
VERTEX
10
50.4570
20
185.7989
0
SEQEND
0
POLYLINE
0
VERTEX
10
50.4570
20
185.7989
0
VERTEX
10
25.0634
20
241.2750
0
SEQEND
0
POLYLINE
0
VERTEX
10
25.0634
20
241.2750
0
VERTEX
10
24.0914
20
179.8790
0
SEQEND
0
POLYLINE
0
VERTEX
10
24.0914
20
179.8790
0
VERTEX
10
51.3393
20
234.7090
0
SEQEND
0
POLYLINE
0
VERTEX
10
51.3393
20
234.7090
0
VERTEX
10
3.0651
20
196.6049
0
SEQEND
0
POLYLINE
0
VERTEX
10
52.5000
20
210.0000
0
SEQEND
0
POLYLINE
0
VERTEX
10
52.4281
20
207.2524
0
SEQEND
0
POLYLINE
0
VERTEX
10
52.2124
20
204.5123
0
SEQEND
0
POLYLINE
0
VERTEX
10
51.8536
20
201.7872
0
SEQEND
0
POLYLINE
0
VERTEX
10
51.3527
20
199.0846
0
SEQEND
0
POLYLINE
0
VERTEX
10
50.7111
20
196.4120
0
SEQEND
0
POLYLINE
0
VERTEX
10
49.9305
20
193.7766
0
SEQEND
0
POLYLINE
0
VERTEX
10
49.0130
20
191.1857
0
SEQEND
0
POLYLINE
0
VERTEX
10
47.9611
20
188.6463
0
SEQEND
0
POLYLINE
0
VERTEX
10
46.7778
20
186.1655
0
SEQEND
0
POLYLINE
0
VERTEX
10
45.4663
20
183.7500
0
SEQEND
0
POLYLINE
0
VERTEX
10
44.0302
20
181.4065
0
SEQEND
0
POLYLINE
0
VERTEX
10
42.4734
20
179.1413
0
SEQEND
0
POLYLINE
0
VERTEX
10
40.8002
20
176.9607
0
SEQEND
0
POLYLINE
0
VERTEX
10
39.0151
20
174.8706
0
SEQEND
0
POLYLINE
0
VERTEX
10
37.1231
20
172.8769
0
SEQEND
0
POLYLINE
0
VERTEX
10
35.1294
20
170.9849
0
SEQEND
0
POLYLINE
0
VERTEX
10
33.0393
20
169.1998
0
SEQEND
0
POLYLINE
0
VERTEX
10
30.8587
20
167.5266
0
SEQEND
0
POLYLINE
0
VERTEX
10
28.5935
20
165.9698
0
SEQEND
0
POLYLINE
0
VERTEX
10
26.2500
20
164.5337
0
SEQEND
0
POLYLINE
0
VERTEX
10
23.8345
20
163.2222
0
SEQEND
0
POLYLINE
0
VERTEX
10
21.3537
20
162.0389
0
SEQEND
0
POLYLINE
0
VERTEX
10
18.8143
20
160.9870
0
SEQEND
0
POLYLINE
0
VERTEX
10
16.2234
20
160.0695
0
SEQEND
0
POLYLINE
0
VERTEX
10
13.5880
20
159.2889
0
SEQEND
0
POLYLINE
0
VERTEX
10
10.9154
20
158.6473
0
SEQEND
0
POLYLINE
0
VERTEX
10
8.2128
20
158.1464
0
SEQEND
0
POLYLINE
0
VERTEX
10
5.4877
20
157.7876
0
SEQEND
0
POLYLINE
0
VERTEX
10
2.7476
20
157.5719
0
SEQEND
0
POLYLINE
0
VERTEX
10
-2.7476
20
157.5719
0
SEQEND
0
POLYLINE
0
VERTEX
10
-5.4877
20
157.7876
0
SEQEND
0
POLYLINE
0
VERTEX
10
-8.2128
20
158.1464
0
SEQEND
0
POLYLINE
0
VERTEX
10
-10.9154
20
158.6473
0
SEQEND
0
POLYLINE
0
VERTEX
10
-13.5880
20
159.2889
0
SEQEND
0
POLYLINE
0
VERTEX
10
-16.2234
20
160.0695
0
SEQEND
0
POLYLINE
0
VERTEX
10
-18.8143
20
160.9870
0
SEQEND
0
POLYLINE
0
VERTEX
10
-21.3537
20
162.0389
0
SEQEND
0
POLYLINE
0
VERTEX
10
-23.8345
20
163.2222
0
SEQEND
0
POLYLINE
0
VERTEX
10
-26.2500
20
164.5337
0
SEQEND
0
POLYLINE
0
VERTEX
10
-28.5935
20
165.9698
0
SEQEND
0
POLYLINE
0
VERTEX
10
-30.8587
20
167.5266
0
SEQEND
0
POLYLINE
0
VERTEX
10
-33.0393
20
169.1998
0
SEQEND
0
POLYLINE
0
VERTEX
10
-35.1294
20
170.9849
0
SEQEND
0
POLYLINE
0
VERTEX
10
-37.1231
20
172.8769
0
SEQEND
0
POLYLINE
0
VERTEX
10
-39.0151
20
174.8706
0
SEQEND
0
POLYLINE
0
VERTEX
10
-40.8002
20
176.9607
0
SEQEND
0
POLYLINE
0
VERTEX
10
-42.4734
20
179.1413
0
SEQEND
0
POLYLINE
0
VERTEX
10
-44.0302
20
181.4065
0
SEQEND
0
POLYLINE
0
VERTEX
10
-45.4663
20
183.7500
0
SEQEND
0
POLYLINE
0
VERTEX
10
-46.7778
20
186.1655
0
SEQEND
0
POLYLINE
0
VERTEX
10
-47.9611
20
188.6463
0
SEQEND
0
POLYLINE
0
VERTEX
10
-49.0130
20
191.1857
0
SEQEND
0
POLYLINE
0
VERTEX
10
-49.9305
20
193.7766
0
SEQEND
0
POLYLINE
0
VERTEX
10
-50.7111
20
196.4120
0
SEQEND
0
POLYLINE
0
VERTEX
10
-51.3527
20
199.0846
0
SEQEND
0
POLYLINE
0
VERTEX
10
-51.8536
20
201.7872
0
SEQEND
0
POLYLINE
0
VERTEX
10
-52.2124
20
204.5123
0
SEQEND
0
POLYLINE
0
VERTEX
10
-52.4281
20
207.2524
0
SEQEND
0
POLYLINE
0
VERTEX
10
-52.5000
20
209.3571
0
SEQEND
0
POLYLINE
0
VERTEX
10
-52.4281
20
212.7476
0
SEQEND
0
POLYLINE
0
VERTEX
10
-52.2124
20
215.4877
0
SEQEND
0
POLYLINE
0
VERTEX
10
-51.8536
20
218.2128
0
SEQEND
0
POLYLINE
0
VERTEX
10
-51.3527
20
220.9154
0
SEQEND
0
POLYLINE
0
VERTEX
10
-50.7111
20
223.5880
0
SEQEND
0
POLYLINE
0
VERTEX
10
-49.9305
20
226.2234
0
SEQEND
0
POLYLINE
0
VERTEX
10
-49.0130
20
228.8143
0
SEQEND
0
POLYLINE
0
VERTEX
10
-47.9611
20
231.3537
0
SEQEND
0
POLYLINE
0
VERTEX
10
-46.7778
20
233.8345
0
SEQEND
0
POLYLINE
0
VERTEX
10
-45.4663
20
236.2500
0
SEQEND
0
POLYLINE
0
VERTEX
10
-44.0302
20
238.5935
0
SEQEND
0
POLYLINE
0
VERTEX
10
-42.4734
20
240.8587
0
SEQEND
0
POLYLINE
0
VERTEX
10
-40.8002
20
243.0393
0
SEQEND
0
POLYLINE
0
VERTEX
10
-39.0151
20
245.1294
0
SEQEND
0
POLYLINE
0
VERTEX
10
-37.1231
20
247.1231
0
SEQEND
0
POLYLINE
0
VERTEX
10
-35.1294
20
249.0151
0
SEQEND
0
POLYLINE
0
VERTEX
10
-33.0393
20
250.8002
0
SEQEND
0
POLYLINE
0
VERTEX
10
-30.8587
20
252.4734
0
SEQEND
0
POLYLINE
0
VERTEX
10
-28.5935
20
254.0302
0
SEQEND
0
POLYLINE
0
VERTEX
10
-26.2500
20
255.4663
0
SEQEND
0
POLYLINE
0
VERTEX
10
-23.8345
20
256.7778
0
SEQEND
0
POLYLINE
0
VERTEX
10
-21.3537
20
257.9611
0
SEQEND
0
POLYLINE
0
VERTEX
10
-18.8143
20
259.0130
0
SEQEND
0
POLYLINE
0
VERTEX
10
-16.2234
20
259.9305
0
SEQEND
0
POLYLINE
0
VERTEX
10
-13.5880
20
260.7111
0
SEQEND
0
POLYLINE
0
VERTEX
10
-10.9154
20
261.3527
0
SEQEND
0
POLYLINE
0
VERTEX
10
-8.2128
20
261.8536
0
SEQEND
0
POLYLINE
0
VERTEX
10
-5.4877
20
262.2124
0
SEQEND
0
POLYLINE
0
VERTEX
10
-2.7476
20
262.4281
0
SEQEND
0
POLYLINE
0
VERTEX
10
2.7476
20
262.4281
0
SEQEND
0
POLYLINE
0
VERTEX
10
5.4877
20
262.2124
0
SEQEND
0
POLYLINE
0
VERTEX
10
8.2128
20
261.8536
0
SEQEND
0
POLYLINE
0
VERTEX
10
10.9154
20
261.3527
0
SEQEND
0
POLYLINE
0
VERTEX
10
13.5880
20
260.7111
0
SEQEND
0
POLYLINE
0
VERTEX
10
16.2234
20
259.9305
0
SEQEND
0
POLYLINE
0
VERTEX
10
18.8143
20
259.0130
0
SEQEND
0
POLYLINE
0
VERTEX
10
21.3537
20
257.9611
0
SEQEND
0
POLYLINE
0
VERTEX
10
23.8345
20
256.7778
0
SEQEND
0
POLYLINE
0
VERTEX
10
26.2500
20
255.4663
0
SEQEND
0
POLYLINE
0
VERTEX
10
28.5935
20
254.0302
0
SEQEND
0
POLYLINE
0
VERTEX
10
30.8587
20
252.4734
0
SEQEND
0
POLYLINE
0
VERTEX
10
33.0393
20
250.8002
0
SEQEND
0
POLYLINE
0
VERTEX
10
35.1294
20
249.0151
0
SEQEND
0
POLYLINE
0
VERTEX
10
37.1231
20
247.1231
0
SEQEND
0
POLYLINE
0
VERTEX
10
39.0151
20
245.1294
0
SEQEND
0
POLYLINE
0
VERTEX
10
40.8002
20
243.0393
0
SEQEND
0
POLYLINE
0
VERTEX
10
42.4734
20
240.8587
0
SEQEND
0
POLYLINE
0
VERTEX
10
44.0302
20
238.5935
0
SEQEND
0
POLYLINE
0
VERTEX
10
45.4663
20
236.2500
0
SEQEND
0
POLYLINE
0
VERTEX
10
46.7778
20
233.8345
0
SEQEND
0
POLYLINE
0
VERTEX
10
47.9611
20
231.3537
0
SEQEND
0
POLYLINE
0
VERTEX
10
49.0130
20
228.8143
0
SEQEND
0
POLYLINE
0
VERTEX
10
49.9305
20
226.2234
0
SEQEND
0
POLYLINE
0
VERTEX
10
50.7111
20
223.5880
0
SEQEND
0
POLYLINE
0
VERTEX
10
51.3527
20
220.9154
0
SEQEND
0
POLYLINE
0
VERTEX
10
51.8536
20
218.2128
0
SEQEND
0
POLYLINE
0
VERTEX
10
52.2124
20
215.4877
0
SEQEND
0
POLYLINE
0
VERTEX
10
52.4281
20
212.7476
0
SEQEND
0
ENDSEC
0
EOF
